<svg xmlns:xlink="http://www.w3.org/1999/xlink" xmlns="http://www.w3.org/2000/svg" viewBox="0 0 578.19 160.24" width="578.19" height="160.24"><defs><style>.cls-1{fill:#3255ff;}.cls-2{fill:#ff7800;}.cls-3{fill:#001a96;}</style></defs><g id="Layer_2" data-name="Layer 2"><g id="Layer_1-2" data-name="Layer 1"><g id="Layer_2-2" data-name="Layer 2"><g id="Layer_1-2-2" data-name="Layer 1-2"><polygon class="cls-1" points="429.54 42.66 460.33 2.07 482.92 2.07 455.14 42.66 429.54 42.66"></polygon><polygon class="cls-2" points="455.14 42.66 484.84 83.29 464.19 83.29 429.54 42.66 455.14 42.66"></polygon><path class="cls-3" d="M47.39,33.83,31.88,32.24c-6.23-.73-8.67-3.78-8.67-7.94,0-5.37,4.88-8.67,13.19-8.67,9.16,0,14,4.28,14.9,10.75H72.55C71.45,12,61.43,0,36.4,0,13,0,1.47,10.5,1.47,25.77c0,13.8,8.43,22.1,23.08,23.81l17.71,2c6.1.85,9.28,3.54,9.28,8.91,0,5.62-3.91,9.28-14.29,9.28-11.36,0-15.75-6.1-16.36-12.82H0C.86,71.44,10.14,85.37,36.88,85.37c26.38,0,36.4-10.75,36.4-26.75,0-14.65-8.06-23.08-25.89-24.79"></path><rect class="cls-3" x="391.86" y="2.07" width="21.36" height="81.22"></rect><rect class="cls-3" x="356.17" y="2.07" width="21.36" height="81.22"></rect><path class="cls-3" d="M521.89,51.78l12-34.81,12,34.81ZM550.46,2.07H517.37L489.64,83.29h21.5L516.39,68h34.93l5.25,15.27h21.62Z"></path><path class="cls-3" d="M301.25,66.32H286.59V19.05h14.66c14.65,0,20.88,7.57,20.88,23.45,0,15.63-6.1,23.82-20.88,23.82m4.88-64.25h-41V83.29h41c26.38,0,38.48-19.66,38.48-40.79S332.51,2.07,306.13,2.07"></path><polygon class="cls-3" points="462.29 2.07 454.27 2.07 414.18 42.56 457.44 83.29 465.57 83.29 433.22 42.66 462.29 2.07"></polygon><path class="cls-3" d="M122.79,28.7c-2,4.64-3.79,9.16-5.5,13.8-1.58-4.64-3.42-9.16-5.37-13.8L100.32,2.08H76.14l30.53,57.76V83.29h21.62V59.84L158.57,2.08H134.76Z"></path><path class="cls-3" d="M229.64,66.68A107.63,107.63,0,0,0,226,56.18L203.14,2.07h-35.3V83.29h20.52V18.81a91.3,91.3,0,0,0,3.91,11.48l22.59,53h35.3V2.07H229.64Z"></path></g></g><path class="cls-3" d="M67.27,119,60.35,150.7H52l-6.77-27.81L38.41,150.7H30L23.1,119h5l6.24,28.71,7-28.71h7.77l7,28.71L62.35,119Z"></path><path class="cls-3" d="M87.73,143.5h4.39c-.43,3.29-3.05,8-11.45,8S68.6,145.79,68.6,138.73s3.91-12.64,12.07-12.64c7.58,0,11.5,5.39,11.5,12.21a11,11,0,0,1-.1,1.81H73.28c.38,6,3.43,7.82,7.53,7.82C85.15,147.93,87.06,146,87.73,143.5Zm-14.41-6.87H87.59c-.24-4.82-2.63-7-6.87-7S73.9,131.33,73.32,136.63Z"></path><path class="cls-3" d="M121.64,138.78c0,7-3.43,12.68-11.11,12.68-4.29,0-7.2-1.76-8.82-4.86v4.1H96.94V117.31h4.77V131c1.62-3.1,4.53-4.86,8.82-4.86C118.21,126.09,121.64,131.76,121.64,138.78Zm-4.81,0c0-5.92-2-8.88-7.3-8.88-5,0-7.82,2.77-7.82,8.88s2.81,8.87,7.82,8.87C114.82,147.65,116.83,144.69,116.83,138.78Z"></path><path class="cls-3" d="M131.23,140.44c.14,4.49,3.34,7,8,7,4.86,0,7.68-2.2,7.68-7.06,0-3.58-2.15-6.06-6.3-6.06a9.37,9.37,0,0,0-5.87,2l-2.33-3.1,12-10.3H127.13v-4h23v4l-10.26,9.2a11,11,0,0,1,3.1-.38c4.06,0,9,2.48,9,8.83,0,5.1-3.1,10.92-13,10.92-8.49,0-12.79-4.58-12.93-11.07Z"></path><path class="cls-3" d="M168.77,144.31c0-3.82,1.91-6.3,7.25-7.2l6-1c2.29-.38,3.34-1.09,3.34-2.76,0-2.15-1.14-3.63-5.24-3.63-3.92,0-5.78,1.58-6,4.58H169.3c0-5.06,3.81-8.25,10.59-8.25,6.58,0,9.82,3,9.82,7.39v11.83c0,1.77,0,3.2.24,5.44h-4.34a50.51,50.51,0,0,1-.29-5.39c-.95,3-3.57,6-8.63,6C171.82,151.32,168.77,148.7,168.77,144.31Zm16.55-5.2v-1.43a11.23,11.23,0,0,1-4.24,1.67l-3.29.76c-3,.67-4.25,1.81-4.25,4s1.67,3.53,4.15,3.53C182.7,147.65,185.32,143.88,185.32,139.11Z"></path><path class="cls-3" d="M218,135.82V150.7h-4.77V136.25c0-5-2.29-6.21-5.29-6.21-4.68,0-7.26,3-7.26,10.59V150.7h-4.77V126.85h4.77v5.34c1.44-3.53,4.06-6.1,8.64-6.1C215.61,126.09,218,129.57,218,135.82Z"></path><path class="cls-3" d="M247.67,117.31V150.7H242.9v-4.1c-1.62,3.1-4.53,4.86-8.83,4.86-7.68,0-11.11-5.67-11.11-12.68s3.43-12.69,11.11-12.69c4.3,0,7.21,1.76,8.83,4.86V117.31Zm-4.77,21.47c0-6.11-2.82-8.88-7.83-8.88-5.29,0-7.29,3-7.29,8.88s2,8.87,7.29,8.87C240.08,147.65,242.9,144.88,242.9,138.78Z"></path><path class="cls-3" d="M287.45,143.16H272.09l-2.82,7.54h-5L276.1,119h7.39l11.78,31.72h-5Zm-1.48-4-6.2-16.74-6.2,16.74Z"></path><path class="cls-3" d="M309.87,122.94v23.8h6.49v4H298.47v-4H305v-23.8h-6.49v-4h17.89v4Z"></path><path class="cls-3" d="M338.25,140.06c.14,4.82,2.91,7.59,9.16,7.59s7.91-2.2,7.91-5.44c0-3-1.76-4.58-5.34-5.1l-7.34-1.05c-5.39-.77-8.21-3.58-8.21-8.54,0-5.3,3.91-9.4,12.4-9.4,8.92,0,12.69,4.48,13.12,10.16h-4.77c-.47-3.82-3-6.34-8.39-6.34-5.16,0-7.4,2.24-7.4,5.43,0,2.34,1.29,4.06,4.25,4.49l7.77,1.14c5.54.81,8.88,3.34,8.88,8.59,0,6.25-3.82,9.87-12.88,9.87-10.4,0-13.93-5.43-13.93-11.4Z"></path><path class="cls-3" d="M387.38,126.85l-10,26c-2,5.06-3.15,7.44-8.92,7.44h-4.1v-3.82h7.06l2.24-5.72H372l-9-23.85h4.91l6.44,17,1,2.86.91-2.86,6.53-17Z"></path><path class="cls-3" d="M413.42,135.82V150.7h-4.77V136.25c0-5-2.29-6.21-5.29-6.21-4.67,0-7.25,3-7.25,10.59V150.7h-4.77V126.85h4.77v5.34c1.43-3.53,4.05-6.1,8.63-6.1C411.09,126.09,413.42,129.57,413.42,135.82Z"></path><path class="cls-3" d="M443.14,117.31V150.7h-4.77v-4.1c-1.62,3.1-4.53,4.86-8.82,4.86-7.68,0-11.12-5.67-11.12-12.68s3.44-12.69,11.12-12.69c4.29,0,7.2,1.76,8.82,4.86V117.31Zm-4.77,21.47c0-6.11-2.81-8.88-7.82-8.88-5.3,0-7.3,3-7.3,8.88s2,8.87,7.3,8.87C435.56,147.65,438.37,144.88,438.37,138.78Z"></path><path class="cls-3" d="M449.1,119h6v4.29h-6Zm.62,7.87h4.77V150.7h-4.77Z"></path><path class="cls-3" d="M472,126.09c7.44,0,11.21,4.1,11.45,9.68H479c-.38-3.2-2.24-5.87-6.77-5.87s-7.58,2.34-7.58,8.88,2.86,8.87,7.48,8.87,6.68-2.77,7.11-6.16h4.49c-.19,5.3-4.06,10-11.6,10-8.06,0-12.3-5.58-12.3-12.68S464,126.09,472,126.09Z"></path><path class="cls-3" d="M487.84,144.31c0-3.82,1.9-6.3,7.25-7.2l6-1c2.29-.38,3.34-1.09,3.34-2.76,0-2.15-1.15-3.63-5.25-3.63-3.91,0-5.77,1.58-6,4.58h-4.77c.05-5.06,3.82-8.25,10.59-8.25,6.58,0,9.83,3,9.83,7.39v11.83c0,1.77.05,3.2.24,5.44h-4.34a48,48,0,0,1-.29-5.39c-1,3-3.58,6-8.64,6C490.89,151.32,487.84,148.7,487.84,144.31Zm16.55-5.2v-1.43a11.34,11.34,0,0,1-4.25,1.67l-3.29.76c-3,.67-4.24,1.81-4.24,4s1.67,3.53,4.15,3.53C501.77,147.65,504.39,143.88,504.39,139.11Z"></path><path class="cls-3" d="M516.55,143.69V130.52H512V128l5-1.72,2-4.86h2.38v5.39H529v3.67h-7.63v16.36h7.16v3.82h-4.72C518,150.7,516.55,148.46,516.55,143.69Z"></path><path class="cls-3" d="M550.66,143.5h4.39c-.43,3.29-3.06,8-11.45,8s-12.07-5.67-12.07-12.73,3.91-12.64,12.07-12.64c7.58,0,11.5,5.39,11.5,12.21a11,11,0,0,1-.1,1.81H536.21c.38,6,3.43,7.82,7.53,7.82C548.08,147.93,550,146,550.66,143.5Zm-14.41-6.87h14.27c-.24-4.82-2.63-7-6.87-7S536.82,131.33,536.25,136.63Z"></path></g></g></svg>