<svg xmlns:xlink="http://www.w3.org/1999/xlink" xmlns="http://www.w3.org/2000/svg" width="200" height="52" viewBox="0 0 200 52" fill="none"><path d="M18.2375 0.49742C19.4996 -0.165807 21.42 -0.165807 22.682 0.49742L35.5603 7.26503C36.3204 7.66446 36.7379 8.25968 36.8127 8.87412H36.8249V42.8917C36.8082 43.5619 36.3868 44.2276 35.5603 44.6621L22.682 51.4296C21.42 52.0929 19.4996 52.0929 18.2375 51.4296L5.35927 44.6621C4.53623 44.2296 4.14126 43.559 4.1217 42.8917C4.11976 42.826 4.11951 42.7712 4.12138 42.7258L4.1213 9.09262C4.12 9.05578 4.11988 9.01899 4.12093 8.98235L4.1217 8.87412L4.12746 8.87408C4.18467 8.2529 4.58316 7.6729 5.35927 7.26503L18.2375 0.49742ZM34.7976 27.8523L22.682 34.2191C21.42 34.8824 19.4996 34.8824 18.2375 34.2191L6.14848 27.8665V42.8243L18.2375 49.1436C18.9202 49.5067 19.6287 49.8604 20.3215 49.9055L20.4598 49.9099C21.1817 49.9124 21.8826 49.5477 22.5933 49.2024L34.7976 42.77V27.8523ZM2.02706 42.1521C2.02706 43.4552 2.17931 44.312 2.48159 44.9156C2.73214 45.4158 3.10806 45.798 3.79449 46.2633L3.83367 46.2897C3.98431 46.3907 4.15026 46.4966 4.35225 46.6207L4.59047 46.7659L5.32195 47.2053L4.27282 48.931L3.45409 48.4389L3.31648 48.355C3.07975 48.2093 2.88355 48.0848 2.70054 47.9619C0.744219 46.6495 0.0146143 45.2191 0.000217865 42.2426L0 42.1521H2.02706ZM19.446 18.7346C19.3522 18.7667 19.2643 18.8037 19.1842 18.8458L6.30596 25.6134C6.29245 25.6205 6.27955 25.6275 6.2673 25.6345L6.25639 25.6408L6.27659 25.6523L6.30596 25.6682L19.1842 32.4358C19.2643 32.4779 19.3522 32.5149 19.446 32.547V18.7346ZM21.4736 18.7346V32.547C21.5674 32.5149 21.6553 32.4779 21.7353 32.4358L34.6136 25.6682C34.6271 25.6611 34.64 25.654 34.6523 25.6471L34.6632 25.6408L34.643 25.6293L34.6136 25.6134L21.7353 18.8458C21.6553 18.8037 21.5674 18.7667 21.4736 18.7346ZM34.7976 11.2872L23.245 17.3582L34.7976 23.4292V11.2872ZM6.14848 11.3014V23.415L17.6742 17.3582L6.14848 11.3014ZM21.7353 2.2808C21.0656 1.92886 19.854 1.92886 19.1842 2.2808L6.30596 9.04844C6.29245 9.05554 6.27955 9.06256 6.2673 9.06949L6.25639 9.07578L6.27659 9.0873L6.30596 9.10316L19.1842 15.8708C19.854 16.2227 21.0656 16.2227 21.7353 15.8708L34.6136 9.10316C34.6271 9.09607 34.64 9.08905 34.6523 9.08207L34.6632 9.07578L34.643 9.06426L34.6136 9.04844L21.7353 2.2808ZM36.7008 3.02294L37.5196 3.5149L37.6572 3.59897C37.8939 3.74435 38.0901 3.86925 38.2731 3.99201C40.2294 5.30426 40.959 6.73497 40.9732 9.7112L40.9736 9.80187H38.9466C38.9466 8.4985 38.7943 7.64187 38.492 7.03834C38.2415 6.53813 37.8656 6.15586 37.1791 5.69071L37.14 5.6643C36.9893 5.56325 36.8234 5.4574 36.6214 5.33298L36.3832 5.18783L35.6517 4.74864L36.7008 3.02294Z" fill="#0F37FD"></path><path d="M61.5659 41.4737V22.5027H66.8267V19.0292H61.5659V16.5354C61.5659 13.715 62.7995 12.3048 65.2665 12.3048C65.9797 12.3048 66.7379 12.4235 67.5403 12.661V8.96485C66.5594 8.66797 65.4746 8.51953 64.2855 8.51953C61.9971 8.51953 60.221 9.17268 58.9578 10.479C57.6945 11.7853 57.0628 13.6853 57.0628 16.1791V19.0292H52.7383V22.5027H57.0628V41.4737H61.5659ZM79.8454 41.7853C81.5695 41.7853 83.0778 41.4291 84.3707 40.7163C85.6636 40.004 86.6373 38.9797 87.2912 37.6438V41.4737H91.7496V19.0292H87.2912V22.6808C86.6072 21.3449 85.6267 20.3132 84.3484 19.5858C83.0705 18.8585 81.5695 18.4948 79.8454 18.4948C77.9135 18.4948 76.1894 18.9846 74.6738 19.9644C73.1578 20.9441 71.9764 22.3246 71.1294 24.1059C70.2823 25.8872 69.8588 27.9357 69.8588 30.2513C69.8588 32.567 70.2746 34.5933 71.107 36.33C71.9391 38.0668 73.1058 39.4102 74.6068 40.3602C76.1079 41.3102 77.8539 41.7853 79.8454 41.7853ZM80.9156 38.2227C78.8644 38.2227 77.2669 37.525 76.1229 36.1296C74.9784 34.7343 74.406 32.7749 74.406 30.2513C74.406 27.6982 74.9784 25.7016 76.1229 24.2618C77.2669 22.8218 78.8498 22.1019 80.8709 22.1019C82.9216 22.1019 84.5046 22.7996 85.619 24.1949C86.7338 25.5903 87.2912 27.5794 87.2912 30.1623C87.2912 32.7155 86.7338 34.6972 85.619 36.1074C84.5046 37.5175 82.9367 38.2227 80.9156 38.2227ZM102.806 41.4737V28.6927C102.806 26.7036 103.378 25.1153 104.523 23.9278C105.667 22.7402 107.191 22.1465 109.093 22.1465C110.757 22.1465 111.968 22.5918 112.727 23.4824C113.484 24.3731 113.863 25.7981 113.863 27.7575V41.4737H118.366V27.4904C118.366 21.4933 115.676 18.4948 110.296 18.4948C108.573 18.4948 107.034 18.8733 105.682 19.6304C104.33 20.3874 103.297 21.4785 102.583 22.9035L102.182 19.0292H97.9914C98.2291 20.8995 98.348 23.0074 98.348 25.3528V41.4737H102.806ZM133.436 41.7853C134.684 41.7853 135.799 41.6222 136.78 41.2956V37.6438C135.977 37.8812 135.189 38 134.417 38C133.228 38 132.299 37.6808 131.63 37.0425C130.961 36.4042 130.627 35.3132 130.627 33.7694V22.5027H136.824V19.0292H130.627V11.8595L126.124 13.4181V19.0292H121.755V22.5027H126.124V34.1257C126.124 36.6195 126.763 38.5195 128.041 39.8258C129.319 41.1321 131.117 41.7853 133.436 41.7853ZM150.645 41.7853C152.815 41.7853 154.732 41.3102 156.397 40.3602C158.061 39.4102 159.346 38.0594 160.253 36.3078C161.16 34.5562 161.613 32.5076 161.613 30.1623C161.613 27.8169 161.16 25.761 160.253 23.9945C159.346 22.2281 158.061 20.8699 156.397 19.9198C154.732 18.9698 152.815 18.4948 150.645 18.4948C148.446 18.4948 146.514 18.9698 144.849 19.9198C143.185 20.8699 141.899 22.2281 140.993 23.9945C140.086 25.761 139.633 27.8169 139.633 30.1623C139.633 32.5076 140.086 34.5562 140.993 36.3078C141.899 38.0594 143.185 39.4102 144.849 40.3602C146.514 41.3102 148.446 41.7853 150.645 41.7853ZM150.601 38.2227C148.55 38.2227 146.967 37.5398 145.852 36.1742C144.738 34.8085 144.18 32.8046 144.18 30.1623C144.18 27.5794 144.745 25.5903 145.875 24.1949C147.004 22.7996 148.594 22.1019 150.645 22.1019C152.666 22.1019 154.234 22.7996 155.349 24.1949C156.464 25.5903 157.021 27.5794 157.021 30.1623C157.021 32.8046 156.471 34.8085 155.371 36.1742C154.271 37.5398 152.681 38.2227 150.601 38.2227ZM171.332 41.4737V28.7818C171.332 26.7333 171.838 25.1153 172.848 23.9278C173.859 22.7402 175.226 22.1465 176.95 22.1465C178.436 22.1465 179.514 22.5918 180.182 23.4824C180.851 24.3731 181.185 25.7833 181.185 27.713V41.4737H185.688V28.7818C185.688 26.7333 186.186 25.1153 187.182 23.9278C188.178 22.7402 189.537 22.1465 191.262 22.1465C192.748 22.1465 193.825 22.5918 194.494 23.4824C195.163 24.3731 195.497 25.7833 195.497 27.713V41.4737H200V27.4904C200 21.4933 197.503 18.4948 192.51 18.4948C190.845 18.4948 189.352 18.8807 188.029 19.6526C186.706 20.4245 185.703 21.4785 185.02 22.8144C183.95 19.9347 181.676 18.4948 178.198 18.4948C176.563 18.4948 175.137 18.8659 173.918 19.6081C172.699 20.3503 171.763 21.4042 171.109 22.7699L170.708 19.0292H166.517C166.755 20.8995 166.874 23.0074 166.874 25.3528V41.4737H171.332Z" fill="#0F37FD"></path></svg>