<svg xmlns:xlink="http://www.w3.org/1999/xlink" xmlns="http://www.w3.org/2000/svg" width="220" height="32" viewBox="0 0 220 32" fill="none"><path fill-rule="evenodd" clip-rule="evenodd" d="M107.706 24.7292C107.369 24.5253 107.2 24.0209 107.2 23.2159V4.01562H103.629V23.7922C103.624 24.4181 103.675 25.0431 103.781 25.6598C103.872 26.1703 104.084 26.6518 104.399 27.0637C104.73 27.474 105.166 27.7877 105.661 27.9717C106.352 28.2096 107.081 28.3189 107.812 28.2937C108.082 28.2937 108.366 28.2808 108.688 28.2582C109.012 28.2336 109.335 28.1884 109.654 28.1231L109.589 25.0319C108.672 25.0319 108.028 24.9289 107.706 24.7292ZM94.7879 6.66242C94.7811 6.39142 94.8298 6.12189 94.9311 5.87046C95.0324 5.61904 95.1843 5.39105 95.3772 5.20057C95.5621 5.00921 95.7845 4.85809 96.0305 4.7567C96.2765 4.65529 96.5409 4.60581 96.8068 4.61134C97.2125 4.6144 97.6082 4.73673 97.9447 4.96308C98.2813 5.18941 98.5439 5.50978 98.6997 5.88426C98.8556 6.25874 98.8978 6.6708 98.8212 7.0691C98.7445 7.4674 98.5524 7.83435 98.2686 8.12426C98.0782 8.31715 97.8502 8.46896 97.5988 8.57031C97.3473 8.67166 97.0779 8.72038 96.8068 8.7135C96.5409 8.71902 96.2765 8.66955 96.0305 8.56814C95.7845 8.46675 95.5621 8.31562 95.3772 8.12426C95.1839 7.93402 95.032 7.70608 94.9306 7.45459C94.8293 7.20311 94.7807 6.93346 94.7879 6.66242ZM95.0584 28.0812V11.4472H98.6197V28.0908L95.0584 28.0812ZM86.6508 13.9685L84.4998 18.3411L81.238 24.7617H78.4142L75.2523 18.7114L72.8663 13.9685H72.7473V28.091H68.8833V4.92379H72.4832L76.9008 13.7463L79.757 19.6999H79.9597L82.7836 13.6787L87.0886 4.92379H90.6305V28.091H86.786V13.9685H86.6508ZM112.137 28.0909V4.01562H115.701V16.76H117.633C118.236 16.7763 118.832 16.6376 119.365 16.3575C119.848 16.087 120.29 15.5493 120.695 14.7476L122.408 11.386H126.411L124.376 15.5816C124.102 16.167 123.764 16.72 123.368 17.2301C122.959 17.7138 122.424 18.0749 121.822 18.2734C122.62 18.524 123.304 19.0471 123.754 19.7513C123.96 20.069 124.132 20.408 124.266 20.7624C124.401 21.1197 124.524 21.4803 124.636 21.8378L126.72 28.0909H122.762L121.046 22.7105C120.731 21.7252 120.338 21.0533 119.868 20.6947C119.272 20.2989 118.563 20.1101 117.849 20.157H115.701V28.0909H112.137ZM142.449 24.8283C142.852 24.015 143.055 23.1158 143.037 22.2074L143.051 17.3935C143.068 16.4906 142.882 15.5951 142.509 14.7726C142.161 14.0241 141.648 13.3638 141.009 12.8406C140.342 12.3012 139.576 11.8966 138.755 11.6493C137.851 11.3703 136.909 11.2324 135.963 11.2404C135.048 11.2361 134.138 11.373 133.265 11.6461C132.448 11.8957 131.683 12.2941 131.011 12.8213C130.355 13.345 129.82 14.004 129.443 14.7533C129.038 15.5679 128.836 16.468 128.854 17.3775V22.2074C128.835 23.1139 129.032 24.0121 129.427 24.8283C129.789 25.5681 130.313 26.2172 130.959 26.7281C131.631 27.2491 132.396 27.637 133.213 27.8712C134.094 28.1311 135.007 28.2613 135.925 28.2576C136.826 28.2604 137.724 28.1302 138.587 27.8712C139.409 27.6304 140.18 27.2431 140.864 26.7281C141.529 26.223 142.07 25.5735 142.449 24.8283ZM139.151 16.3922C139.38 16.8972 139.49 17.448 139.473 18.0021V21.5536C139.49 22.1079 139.38 22.6587 139.151 23.1636C138.957 23.573 138.676 23.9347 138.327 24.223C137.987 24.4913 137.599 24.6913 137.183 24.8122C136.779 24.9315 136.359 24.9933 135.937 24.9958C135.046 25.0188 134.173 24.7471 133.452 24.223C132.756 23.7079 132.408 22.8223 132.408 21.5665V18.0246C132.391 17.4705 132.502 16.9197 132.73 16.4148C132.923 16.0047 133.205 15.6429 133.555 15.3554C133.894 15.0869 134.282 14.8878 134.698 14.7693C135.509 14.5204 136.376 14.5204 137.187 14.7693C137.603 14.8878 137.991 15.0869 138.33 15.3554C138.675 15.6376 138.955 15.9913 139.151 16.3922ZM154.342 11.2445C155.256 11.2162 156.158 11.4389 156.953 11.8885C157.659 12.3121 158.226 12.9305 158.587 13.6691C159.172 13.2042 159.786 12.7742 160.422 12.3811C160.88 12.1032 161.358 11.862 161.854 11.6599C162.516 11.3825 163.224 11.2391 163.941 11.2381C165.659 11.2381 166.947 11.7372 167.805 12.7353C168.664 13.7335 169.093 15.1621 169.093 17.021V28.0846H165.531V17.533C165.531 16.5251 165.328 15.8007 164.923 15.366C164.687 15.1382 164.405 14.963 164.096 14.8521C163.787 14.7412 163.457 14.6968 163.13 14.722C162.53 14.7365 161.941 14.8861 161.407 15.16C160.651 15.5444 159.939 16.0061 159.278 16.538C159.301 16.786 159.317 17.0082 159.327 17.2111C159.33 17.2815 159.335 17.3512 159.341 17.4229L159.341 17.4231C159.351 17.5579 159.362 17.6999 159.362 17.8679V28.0911H155.782V17.4654C155.782 16.435 155.559 15.717 155.138 15.3144C154.712 14.9184 154.148 14.7028 153.567 14.7124C152.952 14.713 152.343 14.8321 151.773 15.0633C151.012 15.3991 150.287 15.8112 149.61 16.2933V28.0942H146.029V11.4474H149.248L149.549 13.1604C150.407 12.4983 151.361 11.9666 152.375 11.5826C153.01 11.3711 153.673 11.2571 154.342 11.2445ZM175.689 21.77V20.9296H185.914V17.6678C185.931 16.7468 185.76 15.8321 185.413 14.9793C185.091 14.2142 184.604 13.5301 183.986 12.9765C183.345 12.414 182.599 11.9859 181.79 11.7175C180.893 11.4175 179.951 11.2695 179.004 11.2796C178.076 11.2709 177.154 11.4268 176.281 11.74C175.477 12.0258 174.738 12.4631 174.1 13.028C173.47 13.5966 172.972 14.2968 172.642 15.079C172.282 15.9416 172.105 16.8688 172.121 17.8031V22.1821C172.1 23.1108 172.295 24.0316 172.693 24.8708C173.06 25.6179 173.596 26.2695 174.259 26.7738C174.943 27.289 175.718 27.6701 176.544 27.8975C177.436 28.1489 178.358 28.2736 179.285 28.2678C180.349 28.2663 181.407 28.1135 182.427 27.8138C183.556 27.4603 184.579 26.8305 185.403 25.9816C185.068 25.5459 184.727 25.1338 184.378 24.7453C184.031 24.3566 183.678 23.9477 183.32 23.5184C182.712 24.108 181.965 24.5353 181.149 24.7613C180.54 24.9251 179.915 25.0157 179.285 25.0318C178.824 25.0336 178.365 24.9707 177.923 24.845C177.508 24.7332 177.118 24.5395 176.78 24.2751C176.444 24.0025 176.173 23.6581 175.988 23.2673C175.776 22.7971 175.674 22.2853 175.689 21.77ZM181.377 15.3303C182.022 15.8583 182.344 16.7041 182.344 17.8675V18.3634H175.72V17.8257C175.723 16.7266 176.053 15.9034 176.712 15.3559C177.37 14.8098 178.204 14.5205 179.059 14.5413C179.901 14.5236 180.721 14.8029 181.377 15.3303ZM188.733 17.2301C188.733 15.369 189.268 13.9061 190.342 12.8414C191.415 11.7767 192.823 11.24 194.563 11.2314C195.267 11.2429 195.969 11.3053 196.663 11.4182C197.57 11.5649 198.457 11.8189 199.302 12.1749V4.01562H202.867V28.0909H199.613L199.29 26.4422C198.38 27.0256 197.408 27.5052 196.392 27.8718C195.726 28.1061 195.028 28.2364 194.322 28.2582C192.605 28.2582 191.243 27.771 190.239 26.7964C189.234 25.8219 188.735 24.3032 188.741 22.2403L188.733 17.2301ZM192.296 21.973C192.296 23.0936 192.537 23.861 193.017 24.2752C193.532 24.7012 194.186 24.9223 194.853 24.8967C195.188 24.8909 195.521 24.8454 195.845 24.7615C196.239 24.6653 196.627 24.5415 197.004 24.3911C197.412 24.234 197.811 24.0545 198.199 23.8534C198.574 23.6593 198.938 23.4444 199.29 23.2095V15.5816C198.573 15.2911 197.837 15.0501 197.088 14.8602C196.445 14.6979 195.784 14.6136 195.12 14.6092C194.39 14.5895 193.677 14.8405 193.121 15.3142C192.569 15.7843 192.295 16.5796 192.296 17.7002V21.973ZM213.361 27.9146C214.416 27.5957 215.427 27.1468 216.372 26.5784L216.478 26.6428L216.78 28.0885H220V17.363C220.002 15.3002 219.466 13.7642 218.391 12.7553C217.315 11.7464 215.633 11.242 213.348 11.242C212.288 11.2534 211.233 11.383 210.203 11.6284C208.971 11.9374 207.819 12.5049 206.825 13.2931L208.473 15.9495C209.182 15.3363 210.03 14.9041 210.942 14.6905C211.622 14.5384 212.314 14.4532 213.009 14.4362C214.163 14.4362 215.026 14.6551 215.585 15.0801C216.146 15.5052 216.43 16.2102 216.43 17.1988V18.2066H211.822C211.158 18.215 210.497 18.3047 209.854 18.4738C209.155 18.6509 208.491 18.9414 207.887 19.3336C207.28 19.7296 206.762 20.251 206.374 20.8631C205.955 21.5619 205.748 22.3673 205.778 23.1814C205.78 24.757 206.251 25.9935 207.192 26.8906C208.131 27.788 209.432 28.2367 211.091 28.2367C211.857 28.2258 212.621 28.1175 213.361 27.9146ZM212.437 20.9629H216.44L216.448 23.5195C216.178 23.6783 215.869 23.8458 215.521 24.0218C215.163 24.2079 214.793 24.3714 214.413 24.5111C214.022 24.6565 213.624 24.7801 213.219 24.8815C212.824 24.9808 212.417 25.0317 212.009 25.0328C211.373 25.0647 210.745 24.881 210.228 24.5111C210.006 24.34 209.828 24.1175 209.712 23.8631C209.595 23.6085 209.541 23.3293 209.555 23.0494C209.532 22.6583 209.632 22.2698 209.841 21.9385C210.021 21.6764 210.263 21.463 210.547 21.3171C210.836 21.169 211.149 21.072 211.471 21.0304C211.791 20.9867 212.114 20.964 212.437 20.9629Z" fill="black"></path><path d="M52.4235 10.3809L56.3871 17.2425L35.5093 29.2979C35.5093 29.2979 22.7231 37.0255 13.5303 21.0934L20.0313 17.3422C20.0313 17.3422 24.2557 26.68 31.5779 22.4395C38.8999 18.1987 52.4235 10.3809 52.4235 10.3809Z" fill="black"></path><path d="M3.9637 21.045L0 14.1834L21.3222 1.87372C21.3222 1.87372 34.1085 -5.85404 43.2981 10.078L36.797 13.8292C36.797 13.8292 32.5726 4.4915 25.2505 8.73212C17.9285 12.9727 3.9637 21.045 3.9637 21.045Z" fill="black"></path><path d="M28.596 20.8767C31.4733 20.8767 33.8058 18.5441 33.8058 15.6668C33.8058 12.7895 31.4733 10.457 28.596 10.457C25.7187 10.457 23.3862 12.7895 23.3862 15.6668C23.3862 18.5441 25.7187 20.8767 28.596 20.8767Z" fill="#FF931E"></path><path d="M10.2006 29.0099C11.7032 29.0099 12.9214 27.7918 12.9214 26.2892C12.9214 24.7864 11.7032 23.5684 10.2006 23.5684C8.6979 23.5684 7.47974 24.7864 7.47974 26.2892C7.47974 27.7918 8.6979 29.0099 10.2006 29.0099Z" fill="black"></path><path d="M46.5177 8.04124C48.0203 8.04124 49.2385 6.8231 49.2385 5.32043C49.2385 3.81777 48.0203 2.59961 46.5177 2.59961C45.015 2.59961 43.7969 3.81777 43.7969 5.32043C43.7969 6.8231 45.015 8.04124 46.5177 8.04124Z" fill="black"></path></svg>