<svg xmlns:xlink="http://www.w3.org/1999/xlink" xmlns="http://www.w3.org/2000/svg" width="200" height="39" viewBox="0 0 200 39" fill="none"><path fill-rule="evenodd" clip-rule="evenodd" d="M16.6403 0.851288C16.6552 0.851288 16.7444 0.854303 16.9172 1.01332C17.0945 1.17653 17.3066 1.45817 17.5349 1.8927C17.9909 2.76005 18.4273 4.07102 18.8034 5.76265C19.2264 7.66487 19.5607 9.9899 19.7716 12.5926C18.7529 13.0854 17.7054 13.6212 16.6399 14.1966C15.5746 13.6213 14.5273 13.0856 13.5088 12.5928C13.7197 9.99005 14.054 7.66492 14.477 5.76265C14.8531 4.07102 15.2895 2.76005 15.7455 1.8927C15.974 1.45817 16.1859 1.17653 16.3633 1.01332C16.5361 0.854303 16.6252 0.851288 16.6403 0.851288ZM13.4407 13.5064C14.1955 13.8759 14.9662 14.2691 15.7486 14.6849C15.342 14.9108 14.933 15.1423 14.5226 15.3791C14.1121 15.6158 13.7071 15.8541 13.308 16.0931C13.339 15.2081 13.3835 14.3443 13.4407 13.5064ZM16.6403 0C14.8378 0 13.2983 5.06436 12.6872 12.2016C6.19666 9.16199 1.03832 7.96214 0.137087 9.52212C-0.426174 10.4971 0.77627 12.3724 3.19271 14.6421C3.15148 14.771 3.12921 14.9083 3.12921 15.0509C3.12921 15.7909 3.72877 16.3908 4.46839 16.3908C4.67387 16.3908 4.86853 16.3445 5.04254 16.2618C6.13317 17.1596 7.37294 18.0956 8.73382 19.044C2.85467 23.1417 -0.764107 27.0059 0.137087 28.5659C1.03832 30.1259 6.19666 28.9261 12.6872 25.8865C12.8247 27.4922 13.0092 28.9931 13.2331 30.3549C12.854 30.5915 12.6019 31.0121 12.6019 31.4917C12.6019 32.1538 13.0827 32.7038 13.7145 32.8117C14.4748 36.0804 15.5054 38.088 16.6403 38.088C18.4426 38.088 19.9819 33.0239 20.5932 25.8867C27.0835 28.9262 32.2415 30.1259 33.1429 28.5659C34.044 27.0059 30.4253 23.1417 24.5461 19.044C30.4253 14.9465 34.044 11.0821 33.1429 9.52212C32.5607 8.51459 30.2029 8.65828 26.8573 9.7053C26.6158 9.35361 26.2108 9.12296 25.7519 9.12296C25.0118 9.12296 24.412 9.72283 24.412 10.4628C24.412 10.4964 24.4132 10.5297 24.4157 10.5627C23.2154 11.0252 21.9327 11.5741 20.5932 12.2014C19.9819 5.06424 18.4426 0 16.6403 0ZM15.2815 31.4917C15.2815 32.009 14.9879 32.4579 14.5582 32.681C14.9153 34.2015 15.322 35.3899 15.7455 36.1955C15.974 36.6299 16.1859 36.9116 16.3633 37.0748C16.5361 37.2337 16.6252 37.2368 16.6403 37.2368C16.6552 37.2368 16.7444 37.2337 16.9172 37.0748C17.0945 36.9116 17.3066 36.6299 17.5349 36.1955C17.9909 35.3281 18.4273 34.0171 18.8034 32.3254C19.2264 30.4232 19.5607 28.0981 19.7716 25.4955C18.7529 25.0026 17.7054 24.4669 16.6399 23.8915C15.5746 24.4667 14.5273 25.0024 13.5088 25.4953C13.6452 27.1788 13.8332 28.7461 14.0635 30.158C14.7463 30.2195 15.2815 30.7931 15.2815 31.4917ZM24.7458 11.3478C23.4734 11.8373 22.1024 12.4274 20.6651 13.1086C20.7472 14.2364 20.8066 15.4107 20.8407 16.6205C21.8719 17.2548 22.8597 17.8934 23.7958 18.5283C25.9461 17.0443 27.7941 15.5924 29.2312 14.275C30.509 13.1036 31.4268 12.0704 31.9506 11.2421C32.2128 10.8271 32.3509 10.5028 32.4035 10.2678C32.4549 10.0389 32.413 9.96054 32.4057 9.94795C32.3984 9.93531 32.3514 9.8596 32.1269 9.7895C31.8967 9.71758 31.5465 9.67489 31.0556 9.69445C30.0804 9.73329 28.7341 10.0087 27.0904 10.5244C27.0582 11.2358 26.4713 11.8026 25.7519 11.8026C25.3511 11.8026 24.9914 11.6267 24.7458 11.3478ZM5.80757 15.0509C5.80757 15.2727 5.75373 15.4818 5.65843 15.666C6.78167 16.5867 8.0672 17.5505 9.48397 18.5283C10.4203 17.8932 11.4083 17.2546 12.4396 16.6201C12.4738 15.4106 12.5332 14.2365 12.6154 13.1088C10.2544 11.9899 8.0724 11.1166 6.21241 10.5315C4.55837 10.0113 3.20398 9.73347 2.22424 9.69445C1.73337 9.67489 1.38317 9.71758 1.15293 9.7895C0.928645 9.85958 0.881553 9.93526 0.874198 9.94795V9.94797C0.866898 9.96059 0.824928 10.0389 0.876287 10.2678C0.929026 10.5028 1.06703 10.8271 1.32938 11.2421C1.80436 11.9935 2.6037 12.9134 3.70188 13.9521C3.91903 13.8002 4.1833 13.7111 4.46839 13.7111C5.20801 13.7111 5.80757 14.311 5.80757 15.0509ZM4.04875 23.8131C5.48581 22.4957 7.33375 21.0437 9.48397 19.5598C10.4203 20.1949 11.4083 20.8334 12.4396 21.468C12.4738 22.6775 12.5332 23.8516 12.6154 24.9794C10.2544 26.0982 8.0724 26.9714 6.21241 27.5566C4.55837 28.0769 3.20398 28.3545 2.22424 28.3936C1.73335 28.4132 1.38317 28.3705 1.15293 28.2986C0.928572 28.2285 0.881517 28.1528 0.874198 28.1401C0.866916 28.1275 0.824928 28.0491 0.876287 27.8202C0.929026 27.5852 1.06703 27.2609 1.32938 26.8459C1.85301 26.0176 2.77088 24.9844 4.04875 23.8131ZM10.2415 19.044C10.9392 19.5126 11.6655 19.9831 12.4171 20.4524C12.4095 19.9875 12.4057 19.5177 12.4057 19.044C12.4057 18.5704 12.4095 18.1006 12.4171 17.6357C11.6655 18.1049 10.9392 18.5755 10.2415 19.044ZM13.2569 19.044C13.2569 19.6993 13.2644 20.3462 13.2789 20.9832C13.8237 21.3143 14.3805 21.6441 14.9481 21.9717C15.516 22.2994 16.0804 22.6164 16.6399 22.9226C17.1995 22.6164 17.7639 22.2994 18.3318 21.9717C18.8997 21.6441 19.4567 21.3141 20.0015 20.9829C20.016 20.346 20.0235 19.6991 20.0235 19.044C20.0235 18.389 20.016 17.7421 20.0015 17.1052C19.4567 16.7739 18.8997 16.4439 18.3318 16.1163C17.7639 15.7887 17.1995 15.4716 16.6399 15.1655C16.0804 15.4716 15.516 15.7887 14.9481 16.1163C14.3805 16.4439 13.8237 16.7738 13.2789 17.1048C13.2644 17.7419 13.2569 18.389 13.2569 19.044ZM13.4407 24.5816C13.3835 23.7437 13.339 22.88 13.308 21.995C13.7071 22.234 14.1121 22.4723 14.5226 22.7091C14.933 22.9459 15.342 23.1773 15.7486 23.4032C14.9662 23.8189 14.1955 24.2122 13.4407 24.5816ZM27.0675 27.5566C25.2077 26.9714 23.0258 26.0982 20.6651 24.9795C20.7472 23.8516 20.8066 22.6773 20.8407 21.4676C21.8719 20.8332 22.8597 20.1947 23.7958 19.5598C25.9461 21.0437 27.7941 22.4957 29.2312 23.8131C30.509 24.9844 31.4268 26.0176 31.9506 26.8459C32.2128 27.2609 32.3509 27.5852 32.4035 27.8202C32.4549 28.0493 32.413 28.1275 32.4057 28.1401C32.3984 28.1528 32.3514 28.2285 32.1269 28.2986C31.8967 28.3705 31.5465 28.4132 31.0556 28.3936C30.0759 28.3545 28.7216 28.0769 27.0675 27.5566ZM23.0384 19.044C22.3408 18.5757 21.6147 18.1051 20.8634 17.636C20.8709 18.1009 20.8749 18.5704 20.8749 19.044C20.8749 19.5177 20.8709 19.9871 20.8634 20.452C21.6147 19.983 22.3408 19.5124 23.0384 19.044ZM19.8397 13.5062C19.8969 14.3443 19.9416 15.2082 19.9724 16.0934C19.5731 15.8543 19.1679 15.616 18.7573 15.3791C18.3469 15.1423 17.9381 14.9108 17.5313 14.6849C18.3138 14.269 19.0847 13.8757 19.8397 13.5062ZM17.5313 23.4032C18.3138 23.8191 19.0847 24.2124 19.8397 24.582C19.8969 23.7439 19.9416 22.88 19.9724 21.9946C19.5731 22.2338 19.1679 22.4721 18.7573 22.7091C18.3469 22.9459 17.9381 23.1773 17.5313 23.4032ZM87.8281 13.552L79.1145 22.2539C79.0023 22.0361 78.9007 21.8093 78.8099 21.5739C78.5056 20.7834 78.3536 19.9445 78.3536 19.0585C78.3536 18.1719 78.5056 17.3334 78.8099 16.5427C79.1145 15.7516 79.5366 15.0655 80.0761 14.483C80.6157 13.9009 81.264 13.4405 82.021 13.1015C82.7783 12.7628 83.6089 12.5932 84.5139 12.5932C85.419 12.5932 86.2544 12.767 87.0197 13.1148C87.3043 13.2439 87.5738 13.3895 87.8281 13.552ZM87.0591 25.0672C86.302 25.4062 85.4712 25.5755 84.5664 25.5755C83.6612 25.5755 82.8257 25.4017 82.06 25.0543C81.7758 24.9248 81.5065 24.7791 81.2524 24.6164L89.9656 15.9152C90.078 16.1326 90.1793 16.359 90.2701 16.5948C90.5745 17.3853 90.7267 18.2242 90.7267 19.1106C90.7267 19.9968 90.5745 20.8353 90.2701 21.6264C89.9656 22.417 89.5437 23.1032 89.004 23.6853C88.4644 24.2674 87.8164 24.7281 87.0591 25.0672ZM88.3774 27.7653C89.5437 27.2614 90.5531 26.5792 91.4057 25.7186C92.2584 24.8587 92.9194 23.8549 93.3893 22.7079C93.8595 21.561 94.0945 20.3444 94.0945 19.0585C94.0945 17.7723 93.8595 16.5557 93.3893 15.4084C93.1107 14.7282 92.7676 14.1 92.3606 13.5236L98.0279 7.86411L95.7758 5.61523L90.0913 11.2919C89.5809 10.9445 89.027 10.6441 88.4296 10.3905C87.2634 9.89529 85.9758 9.64732 84.5664 9.64732C83.1564 9.64732 81.8688 9.8995 80.7027 10.4035C79.5366 10.9075 78.5272 11.5895 77.6743 12.4498C76.8217 13.3101 76.1603 14.3139 75.6905 15.4608C75.2206 16.6079 74.9856 17.8244 74.9856 19.1106C74.9856 20.3966 75.2206 21.6128 75.6905 22.76C75.9694 23.4405 76.3125 24.0687 76.7196 24.6456L71.0527 30.3044L73.3047 32.5532L78.9888 26.8769C79.4992 27.2243 80.0532 27.5247 80.6505 27.7782C81.8167 28.2735 83.1042 28.5212 84.5139 28.5212C85.9237 28.5212 87.2113 28.2689 88.3774 27.7653ZM66.0134 25.3122L63.9462 23.2186C63.1611 23.9512 62.3673 24.5316 61.5644 24.9591C60.7622 25.3863 59.8026 25.5998 58.6861 25.5998C57.8138 25.5998 57.0069 25.43 56.2654 25.0897C55.5241 24.7494 54.8828 24.283 54.342 23.6895C53.801 23.0964 53.3827 22.403 53.0858 21.6093C52.7891 20.8157 52.6412 19.9649 52.6412 19.0583C52.6412 18.151 52.7891 17.3047 53.0858 16.5194C53.3827 15.7347 53.801 15.0501 54.342 14.4654C54.8828 13.8811 55.5241 13.419 56.2654 13.0786C57.0069 12.7387 57.8138 12.5685 58.6861 12.5685C59.7327 12.5685 60.6661 12.7778 61.4861 13.1966C62.3062 13.6149 63.0826 14.1646 63.8149 14.8449L65.8825 12.464C65.4464 12.0453 64.9842 11.6615 64.4955 11.3123C64.0074 10.9635 63.4753 10.6624 62.8994 10.4096C62.3235 10.1564 61.6911 9.96051 61.0019 9.82105C60.3127 9.68123 59.5494 9.61133 58.7122 9.61133C57.3166 9.61133 56.0431 9.86024 54.8917 10.3573C53.74 10.8544 52.7457 11.5347 51.9083 12.3983C51.0707 13.2619 50.4211 14.2691 49.9585 15.4207C49.496 16.5721 49.2651 17.8021 49.2651 19.1104C49.2651 20.4362 49.5007 21.6747 49.9716 22.8263C50.4427 23.9773 51.0927 24.976 51.9213 25.8223C52.75 26.6682 53.7311 27.3355 54.8652 27.8242C55.9994 28.3127 57.2383 28.5568 58.5813 28.5568C59.4365 28.5568 60.217 28.4825 60.9237 28.3343C61.6301 28.1859 62.2801 27.9682 62.8732 27.6805C63.4664 27.3923 64.0204 27.052 64.5351 26.6597C65.0496 26.2672 65.5425 25.8178 66.0134 25.3122ZM107.538 14.7986C107.538 14.1892 107.798 13.6714 108.319 13.2452C108.839 12.8183 109.568 12.6052 110.505 12.6052C111.338 12.6052 112.162 12.7665 112.978 13.0885C113.793 13.4104 114.617 13.8761 115.45 14.4851L117.168 12.0571C116.231 11.3086 115.229 10.7387 114.162 10.3473C113.095 9.95561 111.893 9.75977 110.557 9.75977C109.655 9.75977 108.822 9.88587 108.063 10.1384C107.299 10.3906 106.649 10.7517 106.107 11.2216C105.564 11.6918 105.139 12.2529 104.827 12.9056C104.519 13.5583 104.363 14.285 104.363 15.0857C104.363 15.9384 104.497 16.6609 104.766 17.2527C105.035 17.8444 105.43 18.3491 105.942 18.767C106.453 19.1847 107.091 19.5326 107.846 19.8114C108.605 20.09 109.469 20.3419 110.444 20.5684C111.295 20.7772 111.984 20.9773 112.518 21.1686C113.047 21.3602 113.464 21.5648 113.771 21.782C114.075 21.9998 114.284 22.239 114.396 22.4999C114.509 22.7613 114.565 23.0569 114.565 23.3876C114.565 24.1015 114.275 24.6673 113.693 25.0848C113.112 25.5028 112.327 25.7113 111.338 25.7113C110.193 25.7113 109.169 25.5066 108.267 25.0979C107.364 24.6889 106.471 24.1015 105.586 23.3355L103.66 25.6332C104.753 26.6252 105.942 27.3605 107.226 27.8392C108.51 28.3179 109.854 28.5571 111.26 28.5571C112.214 28.5571 113.091 28.4353 113.889 28.1919C114.682 27.9478 115.368 27.591 115.932 27.121C116.5 26.6511 116.942 26.0771 117.263 25.3982C117.58 24.7196 117.741 23.9448 117.741 23.0746C117.741 22.3087 117.615 21.6429 117.363 21.0772C117.111 20.5115 116.738 20.0159 116.253 19.5891C115.767 19.1629 115.151 18.8015 114.413 18.5057C113.676 18.21 112.826 17.9403 111.871 17.6964C110.999 17.4876 110.284 17.2872 109.716 17.0958C109.152 16.9046 108.709 16.6957 108.384 16.4693C108.063 16.2432 107.842 15.9995 107.72 15.7383C107.599 15.477 107.538 15.1639 107.538 14.7986ZM143.166 28.1117V15.0557L137.405 23.6383H137.3L131.592 15.1076V28.1117H128.412V9.90625H131.827L137.379 18.5149L142.931 9.90625H146.346V28.1117H143.166ZM173.064 19.1104C173.064 20.0001 172.912 20.8419 172.607 21.6359C172.303 22.4295 171.88 23.1183 171.34 23.7026C170.8 24.287 170.152 24.7494 169.394 25.0897C168.637 25.43 167.805 25.6 166.9 25.6C165.994 25.6 165.158 25.4255 164.392 25.0766C163.626 24.7276 162.968 24.2567 162.42 23.6639C161.872 23.0704 161.445 22.377 161.14 21.5832C160.836 20.7896 160.683 19.9476 160.683 19.0583C160.683 18.1682 160.836 17.3265 161.14 16.5329C161.445 15.7389 161.867 15.0501 162.407 14.4654C162.947 13.8811 163.596 13.419 164.353 13.0786C165.111 12.7387 165.942 12.5685 166.848 12.5685C167.753 12.5685 168.589 12.7429 169.355 13.0921C170.121 13.4409 170.779 13.9118 171.327 14.505C171.876 15.0977 172.303 15.7915 172.607 16.5852C172.912 17.3788 173.064 18.2209 173.064 19.1104ZM176.434 19.0583C176.434 17.7671 176.198 16.5459 175.728 15.3943C175.259 14.2434 174.605 13.24 173.77 12.3852C172.934 11.5302 171.932 10.8544 170.765 10.3573C169.599 9.86024 168.31 9.61133 166.9 9.61133C165.489 9.61133 164.201 9.86447 163.034 10.3704C161.867 10.8763 160.857 11.5609 160.004 12.4244C159.15 13.288 158.489 14.2956 158.019 15.4468C157.549 16.5982 157.314 17.8194 157.314 19.1104C157.314 20.4013 157.549 21.6221 158.019 22.7738C158.489 23.9254 159.142 24.9284 159.978 25.7831C160.813 26.6379 161.815 27.314 162.982 27.8111C164.148 28.3081 165.437 28.5568 166.848 28.5568C168.258 28.5568 169.547 28.3036 170.713 27.798C171.88 27.292 172.89 26.6076 173.743 25.7437C174.597 24.8805 175.259 23.8727 175.728 22.7215C176.198 21.5701 176.434 20.349 176.434 19.0583ZM190.578 13.2452C190.057 13.6714 189.798 14.1892 189.798 14.7986C189.798 15.1639 189.859 15.477 189.979 15.7383C190.101 15.9995 190.322 16.2432 190.644 16.4693C190.969 16.6957 191.412 16.9046 191.975 17.0958C192.543 17.2872 193.259 17.4876 194.131 17.6964C195.086 17.9403 195.936 18.21 196.673 18.5057C197.411 18.8015 198.026 19.1629 198.513 19.5891C198.998 20.0159 199.372 20.5115 199.623 21.0772C199.875 21.6429 200 22.3087 200 23.0746C200 23.9448 199.84 24.7196 199.523 25.3982C199.203 26.0771 198.76 26.6511 198.191 27.121C197.628 27.591 196.942 27.9478 196.148 28.1919C195.349 28.4353 194.474 28.5571 193.519 28.5571C192.113 28.5571 190.769 28.3179 189.485 27.8392C188.201 27.3605 187.013 26.6252 185.92 25.6332L187.845 23.3355C188.731 24.1015 189.625 24.6889 190.528 25.0979C191.428 25.5066 192.453 25.7113 193.597 25.7113C194.587 25.7113 195.371 25.5028 195.954 25.0848C196.533 24.6673 196.826 24.1015 196.826 23.3876C196.826 23.0569 196.769 22.7613 196.657 22.4999C196.542 22.239 196.335 21.9998 196.032 21.782C195.723 21.5648 195.306 21.3602 194.777 21.1686C194.243 20.9773 193.555 20.7772 192.705 20.5684C191.728 20.3419 190.865 20.09 190.106 19.8114C189.351 19.5326 188.713 19.1847 188.201 18.767C187.689 18.3491 187.295 17.8444 187.026 17.2527C186.757 16.6609 186.623 15.9384 186.623 15.0857C186.623 14.285 186.779 13.5583 187.086 12.9056C187.398 12.2529 187.823 11.6918 188.366 11.2216C188.909 10.7517 189.56 10.3906 190.322 10.1384C191.081 9.88587 191.915 9.75977 192.818 9.75977C194.152 9.75977 195.355 9.95561 196.421 10.3473C197.489 10.7387 198.491 11.3086 199.428 12.0571L197.71 14.4851C196.877 13.8761 196.052 13.4104 195.237 13.0885C194.421 12.7665 193.597 12.6052 192.765 12.6052C191.828 12.6052 191.1 12.8183 190.578 13.2452ZM18.8342 19.0341C18.8342 17.7814 17.8186 16.7659 16.5657 16.7659C15.313 16.7659 14.2974 17.7814 14.2974 19.0341C14.2974 20.2871 15.313 21.3026 16.5657 21.3026C17.8186 21.3026 18.8342 20.2871 18.8342 19.0341Z" fill="black"></path></svg>