<svg xmlns:xlink="http://www.w3.org/1999/xlink" xmlns="http://www.w3.org/2000/svg" width="200" height="51" viewBox="0 0 200 51" fill="none"><path d="M56.7037 28.8338C56.7007 29.008 56.629 29.1739 56.5041 29.2954C56.3791 29.4168 56.2112 29.4839 56.037 29.4819H43.7592C44.074 32.519 46.3518 35.2967 49.574 35.2967C51.7777 35.2967 53.4074 34.4634 54.6296 32.7041C54.6865 32.6117 54.7652 32.5347 54.8589 32.4798C54.9525 32.4249 55.0582 32.3938 55.1666 32.3893C55.2475 32.387 55.328 32.4013 55.4032 32.4311C55.4784 32.461 55.5467 32.506 55.6039 32.5632C55.6611 32.6204 55.706 32.6887 55.7359 32.7639C55.7658 32.8391 55.78 32.9196 55.7777 33.0004C55.7782 33.1121 55.746 33.2216 55.6852 33.3152C54.4444 35.4634 51.9814 36.519 49.574 36.519C45.4444 36.519 42.4814 32.8152 42.4814 28.8708C42.4814 24.9264 45.4259 21.2227 49.574 21.2227C53.7222 21.2227 56.6852 24.8893 56.7037 28.8338ZM55.3889 28.2597C55.1296 25.2227 52.7963 22.4449 49.574 22.4449C46.3518 22.4449 44.074 25.2227 43.7592 28.2597H55.3889Z" fill="#3B3B3B"></path><path d="M71.6298 21.5182C71.7904 21.5229 71.9431 21.5888 72.0567 21.7024C72.1704 21.816 72.2362 21.9687 72.2409 22.1293C72.2432 22.2102 72.229 22.2907 72.1991 22.3659C72.1692 22.4411 72.1242 22.5094 72.067 22.5666C72.0098 22.6238 71.9415 22.6687 71.8663 22.6986C71.7912 22.7285 71.7107 22.7427 71.6298 22.7404H68.3335V35.6849C68.332 35.8465 68.2672 36.0011 68.1529 36.1154C68.0386 36.2297 67.884 36.2945 67.7224 36.296C67.5618 36.2913 67.409 36.2255 67.2954 36.1118C67.1818 35.9982 67.1159 35.8455 67.1113 35.6849V22.7404H63.9446C63.8637 22.7427 63.7832 22.7285 63.708 22.6986C63.6329 22.6687 63.5646 22.6238 63.5074 22.5666C63.4502 22.5094 63.4052 22.4411 63.3753 22.3659C63.3454 22.2907 63.3312 22.2102 63.3335 22.1293C63.3349 21.9677 63.3998 21.8131 63.5141 21.6988C63.6284 21.5845 63.783 21.5197 63.9446 21.5182H67.1113V16.796C67.1116 16.6395 67.1677 16.4883 67.2695 16.3695C67.3714 16.2507 67.5122 16.1721 67.6668 16.1478C67.7532 16.1364 67.8411 16.1437 67.9244 16.1693C68.0078 16.1949 68.0846 16.2382 68.1496 16.2962C68.2147 16.3542 68.2664 16.4256 68.3014 16.5055C68.3363 16.5853 68.3536 16.6718 68.352 16.759V21.5182H71.6298Z" fill="#3B3B3B"></path><path d="M91.7224 27.7783V35.6116C91.7177 35.7722 91.6519 35.925 91.5383 36.0386C91.4246 36.1522 91.2719 36.2181 91.1113 36.2227C91.0304 36.225 90.9499 36.2108 90.8747 36.1809C90.7995 36.151 90.7313 36.1061 90.674 36.0489C90.6168 35.9916 90.5719 35.9234 90.542 35.8482C90.5121 35.773 90.4979 35.6925 90.5002 35.6116V27.7783C90.5002 25.1301 89.0002 22.5005 86.0557 22.5005C82.278 22.5005 80.6483 25.7968 80.8705 29.1857C80.8705 29.2783 80.9076 29.6672 80.9076 29.7227V35.5931C80.9073 35.7496 80.8512 35.9008 80.7493 36.0196C80.6475 36.1384 80.5066 36.217 80.352 36.2412C80.2656 36.2527 80.1777 36.2454 80.0944 36.2198C80.0111 36.1942 79.9343 36.1509 79.8692 36.0929C79.8042 36.0349 79.7524 35.9635 79.7175 35.8836C79.6826 35.8038 79.6653 35.7173 79.6668 35.6301V9.87088C79.6683 9.70925 79.7331 9.55465 79.8474 9.44036C79.9617 9.32607 80.1163 9.26122 80.278 9.25977C80.4386 9.26442 80.5913 9.3303 80.7049 9.44392C80.8185 9.55753 80.8844 9.71027 80.8891 9.87088V24.4264C81.9446 22.5375 83.8335 21.2598 86.0372 21.2598C89.6668 21.2598 91.7224 24.4264 91.7224 27.7783Z" fill="#3B3B3B"></path><path d="M113.778 28.8338C113.775 29.008 113.703 29.1739 113.578 29.2954C113.453 29.4168 113.285 29.4839 113.111 29.4819H100.833C101.148 32.519 103.426 35.2967 106.648 35.2967C108.852 35.2967 110.482 34.4634 111.704 32.7041C111.761 32.6117 111.839 32.5347 111.933 32.4798C112.027 32.4249 112.132 32.3938 112.241 32.3893C112.322 32.387 112.402 32.4013 112.477 32.4311C112.553 32.461 112.621 32.506 112.678 32.5632C112.735 32.6204 112.78 32.6887 112.81 32.7639C112.84 32.8391 112.854 32.9196 112.852 33.0004C112.852 33.1121 112.82 33.2216 112.759 33.3152C111.519 35.4634 109.056 36.519 106.648 36.519C102.519 36.519 99.5557 32.8152 99.5557 28.8708C99.5557 24.9264 102.5 21.2227 106.648 21.2227C110.759 21.2227 113.759 24.8893 113.778 28.8338ZM112.445 28.2597C112.185 25.2227 109.852 22.4449 106.63 22.4449C103.408 22.4449 101.13 25.2227 100.815 28.2597H112.445Z" fill="#3B3B3B"></path><path d="M128.87 22.0936C128.882 22.258 128.828 22.4204 128.721 22.5453C128.613 22.6702 128.461 22.7475 128.296 22.7603C124.685 23.2973 123.056 26.2418 123.056 29.6677V35.538C123.055 35.6945 122.999 35.8458 122.897 35.9646C122.795 36.0834 122.655 36.162 122.5 36.1862C122.414 36.1977 122.326 36.1904 122.242 36.1648C122.159 36.1392 122.082 36.0959 122.017 36.0378C121.952 35.9798 121.9 35.9084 121.865 35.8286C121.831 35.7487 121.813 35.6622 121.815 35.5751V22.1862C121.815 22.0297 121.871 21.8785 121.973 21.7597C122.075 21.6409 122.216 21.5623 122.37 21.5381C122.457 21.5266 122.545 21.5339 122.628 21.5595C122.711 21.5851 122.788 21.6284 122.853 21.6864C122.918 21.7444 122.97 21.8158 123.005 21.8957C123.04 21.9755 123.057 22.062 123.056 22.1492V24.8714C124.074 23.1492 126.093 21.5195 128.204 21.5195C128.518 21.5195 128.87 21.7418 128.87 22.0936Z" fill="#3B3B3B"></path><path d="M149.055 28.8338C149.052 29.008 148.981 29.1739 148.856 29.2954C148.731 29.4168 148.563 29.4839 148.389 29.4819H136.111C136.426 32.519 138.703 35.2967 141.926 35.2967C144.129 35.2967 145.759 34.4634 146.981 32.7041C147.038 32.6117 147.117 32.5347 147.21 32.4798C147.304 32.4249 147.41 32.3938 147.518 32.3893C147.599 32.387 147.68 32.4013 147.755 32.4311C147.83 32.461 147.898 32.506 147.955 32.5632C148.013 32.6204 148.058 32.6887 148.087 32.7639C148.117 32.8391 148.132 32.9196 148.129 33.0004C148.13 33.1121 148.098 33.2216 148.037 33.3152C146.796 35.4634 144.333 36.519 141.926 36.519C137.796 36.519 134.833 32.8152 134.833 28.8708C134.833 24.9264 137.777 21.2227 141.926 21.2227C146.074 21.2227 149.037 24.8893 149.055 28.8338ZM147.74 28.2597C147.481 25.2227 145.148 22.4449 141.926 22.4449C138.703 22.4449 136.426 25.2227 136.111 28.2597H147.74Z" fill="#3B3B3B"></path><path d="M168.907 22.2406V35.6851C168.903 35.8457 168.837 35.9984 168.723 36.112C168.61 36.2256 168.457 36.2915 168.296 36.2962C168.215 36.2985 168.135 36.2843 168.06 36.2544C167.985 36.2245 167.916 36.1795 167.859 36.1223C167.802 36.0651 167.757 35.9968 167.727 35.9216C167.697 35.8464 167.683 35.766 167.685 35.6851V33.1295C166.667 35.148 164.87 36.611 162.574 36.611C158.926 36.611 156.907 33.4443 156.907 30.0925V22.2221C156.909 22.0605 156.974 21.9059 157.088 21.7916C157.202 21.6773 157.357 21.6124 157.519 21.611C157.679 21.6157 157.832 21.6815 157.946 21.7951C158.059 21.9088 158.125 22.0615 158.13 22.2221V30.0925C158.13 32.7406 159.63 35.3703 162.574 35.3703C166.704 35.3703 167.685 31.4999 167.685 27.2221V22.2036C167.687 22.1045 167.712 22.0072 167.758 21.9198C167.805 21.8324 167.872 21.7575 167.954 21.7013C168.035 21.6451 168.129 21.6092 168.227 21.5967C168.326 21.5843 168.426 21.5955 168.519 21.6295C168.635 21.6836 168.733 21.7699 168.802 21.8782C168.871 21.9865 168.908 22.1123 168.907 22.2406Z" fill="#3B3B3B"></path><path d="M200 27.7227V35.5931C199.996 35.7537 199.93 35.9064 199.816 36.0201C199.702 36.1337 199.55 36.1996 199.389 36.2042C199.308 36.2065 199.228 36.1923 199.153 36.1624C199.077 36.1325 199.009 36.0876 198.952 36.0303C198.895 35.9731 198.85 35.9048 198.82 35.8297C198.79 35.7545 198.776 35.674 198.778 35.5931V27.7227C198.778 25.0746 197.278 22.482 194.334 22.482C190.63 22.482 189.222 26.4449 189.222 29.519V35.5931C189.218 35.7537 189.152 35.9064 189.038 36.0201C188.925 36.1337 188.772 36.1996 188.611 36.2042C188.53 36.2065 188.45 36.1923 188.375 36.1624C188.3 36.1325 188.231 36.0876 188.174 36.0303C188.117 35.9731 188.072 35.9048 188.042 35.8297C188.012 35.7545 187.998 35.674 188 35.5931V27.7227C188 25.0746 186.5 22.482 183.556 22.482C179.815 22.482 178.278 25.4264 178.408 29.3524C178.408 29.445 178.445 29.6116 178.408 29.6672V35.5746C178.407 35.7311 178.351 35.8823 178.249 36.0011C178.147 36.1199 178.007 36.1985 177.852 36.2227C177.766 36.2342 177.678 36.2269 177.594 36.2013C177.511 36.1757 177.434 36.1324 177.369 36.0744C177.304 36.0163 177.252 35.945 177.217 35.8651C177.183 35.7852 177.165 35.6988 177.167 35.6116V22.1857C177.167 22.0292 177.223 21.878 177.325 21.7592C177.427 21.6404 177.568 21.5618 177.722 21.5375C177.809 21.5261 177.897 21.5334 177.98 21.559C178.063 21.5846 178.14 21.6279 178.205 21.6859C178.27 21.7439 178.322 21.8153 178.357 21.8952C178.392 21.975 178.409 22.0615 178.408 22.1487V24.3894C179.463 22.5005 181.352 21.2598 183.556 21.2598C186.056 21.2598 188 22.8524 188.796 25.1672C189.815 22.8709 191.796 21.2598 194.334 21.2598C197.945 21.2598 200 24.3894 200 27.7227Z" fill="#3B3B3B"></path><path opacity="0.6" d="M15.3704 18.5371L0 25.5186L15.3704 34.6112L30.7593 25.5186L15.3704 18.5371Z" fill="black"></path><path opacity="0.45" d="M0 25.5185L15.3704 34.6111V0L0 25.5185Z" fill="black"></path><path opacity="0.8" d="M15.3701 0V34.6111L30.759 25.5185L15.3701 0Z" fill="black"></path><path opacity="0.45" d="M0 28.4434L15.3704 50.11V37.5174L0 28.4434Z" fill="black"></path><path opacity="0.8" d="M15.3701 37.5174V50.11L30.759 28.4434L15.3701 37.5174Z" fill="black"></path></svg>