<svg xmlns:xlink="http://www.w3.org/1999/xlink" xmlns="http://www.w3.org/2000/svg" width="160" height="34" viewBox="0 0 160 34" fill="none"><path d="M32.906 20.7461C30.6749 29.6951 21.611 35.1414 12.6609 32.9097C3.71444 30.6786 -1.73183 21.6142 0.500339 12.6657C2.73042 3.71555 11.7943 -1.73124 20.7418 0.499888C29.6914 2.73102 35.1371 11.7965 32.906 20.7461Z" fill="#F7931A"></path><path d="M24.0654 14.3246C24.398 12.1018 22.7056 10.9069 20.3914 10.1098L21.1421 7.09875L19.3093 6.64198L18.5785 9.57366C18.0966 9.4536 17.6017 9.34032 17.11 9.22808L17.8461 6.27708L16.0143 5.82031L15.2631 8.8303C14.8643 8.73947 14.4727 8.64968 14.0927 8.5552L14.0948 8.5458L11.5672 7.91467L11.0796 9.87226C11.0796 9.87226 12.4395 10.1839 12.4107 10.2032C13.1531 10.3885 13.2872 10.8798 13.2648 11.2692L12.4097 14.6994C12.4609 14.7125 12.5272 14.7313 12.6002 14.7605C12.5392 14.7454 12.4739 14.7286 12.4066 14.7125L11.208 19.5177C11.1172 19.7432 10.887 20.0815 10.3681 19.9531C10.3863 19.9797 9.03586 19.6205 9.03586 19.6205L8.12598 21.7185L10.5111 22.3131C10.9548 22.4243 11.3897 22.5407 11.8177 22.6504L11.0592 25.6958L12.89 26.1526L13.6412 23.1395C14.1413 23.2752 14.6267 23.4005 15.1018 23.5185L14.3532 26.5175L16.186 26.9743L16.9445 23.9345C20.0699 24.526 22.42 24.2874 23.4093 21.4607C24.2064 19.1846 23.3696 17.8718 21.7252 17.0156C22.9227 16.7395 23.8248 15.9518 24.0654 14.3246ZM19.8778 20.1969C19.3114 22.4729 15.4792 21.2425 14.2368 20.9339L15.2432 16.8992C16.4857 17.2093 20.4697 17.8232 19.8778 20.1969ZM20.4447 14.2917C19.9279 16.3621 16.7383 15.3102 15.7037 15.0523L16.6162 11.3929C17.6508 11.6508 20.9829 12.1321 20.4447 14.2917Z" fill="white"></path><path fill-rule="evenodd" clip-rule="evenodd" d="M48.9509 10.11C50.3056 10.11 51.476 10.3528 52.4595 10.8294C53.4477 11.3107 54.2631 11.959 54.9172 12.7744C55.5624 13.594 56.0426 14.5519 56.3527 15.6497C56.6607 16.7507 56.8152 17.9341 56.8152 19.2011C56.8152 21.1472 56.4587 22.9857 55.7388 24.7189C55.019 26.4546 54.0423 27.9601 52.7998 29.2443C51.5585 30.5269 50.0926 31.5381 48.4023 32.2851C46.7146 33.0326 44.8797 33.4064 42.9096 33.4064C42.6548 33.4064 42.2069 33.3991 41.5742 33.386C40.9415 33.373 40.2144 33.3077 39.4 33.1976C38.5804 33.0832 37.7139 32.9141 36.7988 32.6875C35.8842 32.4652 35.0155 32.1535 34.1975 31.7578L41.5121 1.02315L48.0635 0.0078125L45.4445 10.9145C46.0052 10.6618 46.57 10.466 47.1338 10.3235C47.6981 10.1831 48.3036 10.11 48.9509 10.11ZM43.4556 28.2091C44.4422 28.2091 45.372 27.9664 46.2453 27.4898C47.1213 27.0126 47.8771 26.3685 48.5104 25.5661C49.1436 24.7601 49.6447 23.8523 50.0101 22.838C50.3755 21.8237 50.5603 20.7656 50.5603 19.6646C50.5603 18.3121 50.3343 17.257 49.8838 16.4944C49.4333 15.7348 48.5996 15.3527 47.389 15.3527C46.9923 15.3527 46.4812 15.4284 45.8475 15.5636C45.2117 15.7072 44.6427 16.0052 44.1327 16.4537L41.344 28.0363C41.5121 28.0661 41.6609 28.0943 41.7877 28.1209C41.912 28.1496 42.0493 28.17 42.186 28.184C42.3306 28.2002 42.4961 28.2086 42.6961 28.2086L42.994 28.2088C43.1306 28.2089 43.284 28.2091 43.4556 28.2091ZM63.611 32.8145H57.3535L62.638 10.5778H68.9383L63.611 32.8145ZM66.656 7.86853C65.7826 7.86853 64.9907 7.60856 64.2881 7.08758C63.5797 6.56973 63.2289 5.7726 63.2289 4.69828C63.2289 4.10735 63.349 3.55296 63.587 3.02989C63.8287 2.50786 64.1445 2.0584 64.5402 1.67628C64.9354 1.29729 65.3932 0.994518 65.9131 0.766393C66.4362 0.541923 66.9927 0.429688 67.5857 0.429688C68.4585 0.429688 69.2463 0.689656 69.9515 1.21064C70.6542 1.73423 71.0076 2.53136 71.0076 3.59994C71.0076 4.19296 70.888 4.74944 70.6479 5.27146C70.4093 5.79348 70.0935 6.24294 69.6978 6.62507C69.3058 7.00458 68.8438 7.30631 68.3249 7.53234C67.8013 7.76047 67.2469 7.86853 66.656 7.86853ZM80.9751 4.02344L74.4211 5.03877L70.2757 22.5407C69.9379 23.9783 69.7422 25.3434 69.6842 26.6422C69.6283 27.9379 69.8283 29.0879 70.2757 30.0855C70.7293 31.0867 71.4873 31.8776 72.5595 32.4565C73.6333 33.0313 75.1404 33.3199 77.0844 33.3199C78.4365 33.3199 79.6063 33.2103 80.5945 32.9827C81.5811 32.7582 82.4968 32.4915 83.3424 32.1814L82.8757 27.36C82.2274 27.5881 81.5869 27.7625 80.9547 27.8878C80.3189 28.0151 79.6611 28.0793 78.9862 28.0793C78.1666 28.0793 77.5417 27.965 77.1053 27.7379C76.6668 27.5145 76.3646 27.1987 76.1965 26.7889C76.0273 26.3802 75.9558 25.8947 75.9866 25.3293C76.0137 24.7666 76.1108 24.161 76.2821 23.5127L78.1405 15.7345H85.1173L86.3848 10.578H79.3657L80.9751 4.02344ZM86.1087 23.9387C86.1087 22.0234 86.4188 20.2172 87.0385 18.5264C87.6571 16.834 88.5482 15.354 89.7044 14.0839C90.8566 12.8201 92.2603 11.8189 93.9125 11.0839C95.5569 10.353 97.398 9.98448 99.4271 9.98448C100.697 9.98448 101.832 10.1045 102.83 10.3452C103.832 10.5879 104.739 10.9017 105.559 11.2953L103.401 16.2023C102.837 15.9737 102.252 15.7722 101.647 15.5895C101.041 15.4031 100.302 15.3133 99.4277 15.3133C97.3391 15.3133 95.6879 16.0332 94.459 17.4682C93.2349 18.9043 92.6184 20.8374 92.6184 23.2622C92.6184 24.6993 92.9285 25.8613 93.5507 26.7503C94.1698 27.6393 95.3136 28.0815 96.9742 28.0815C97.7937 28.0815 98.5846 27.9959 99.3421 27.8288C100.105 27.6597 100.779 27.4467 101.373 27.1951L101.84 32.2253C101.049 32.5323 100.176 32.8095 99.2183 33.0522C98.2589 33.2866 97.1167 33.4082 95.7923 33.4082C94.044 33.4082 92.5641 33.1524 91.3535 32.6487C90.1424 32.1371 89.1417 31.4579 88.3535 30.5976C87.561 29.7353 86.992 28.7283 86.6402 27.5725C86.2883 26.4178 86.1087 25.2046 86.1087 23.9387ZM110.014 32.728C111.115 33.1786 112.412 33.4062 113.906 33.4062C115.963 33.4062 117.776 32.975 119.339 32.1157C120.904 31.2565 122.207 30.1503 123.249 28.7988C124.293 27.4441 125.084 25.9198 125.617 24.2342C126.149 22.5402 126.417 20.8468 126.417 19.158C126.417 17.8065 126.236 16.5709 125.868 15.46C125.502 14.345 124.959 13.3829 124.244 12.5633C123.521 11.7479 122.606 11.1105 121.496 10.6611C120.38 10.2105 119.09 9.98242 117.623 9.98242C115.625 9.98242 113.846 10.4136 112.299 11.2708C110.751 12.1337 109.436 13.2404 108.37 14.594C107.296 15.9455 106.484 17.4662 105.937 19.1586C105.387 20.8473 105.115 22.5407 105.115 24.2347C105.115 25.5852 105.293 26.8177 105.662 27.9306C106.031 29.0441 106.57 30.0104 107.289 30.8258C108.008 31.6454 108.917 32.2775 110.014 32.728ZM114.583 16.1131C115.285 15.5811 116.105 15.3118 117.033 15.3118C118.216 15.3118 119.035 15.7075 119.486 16.4941C119.938 17.284 120.164 18.3854 120.164 19.7928C120.164 20.6656 120.044 21.5912 119.807 22.5616C119.565 23.5347 119.205 24.431 118.725 25.2464C118.245 26.0639 117.652 26.741 116.952 27.275C116.245 27.8127 115.429 28.0799 114.499 28.0799C113.314 28.0799 112.499 27.6842 112.046 26.8976C111.598 26.1067 111.371 25.0078 111.371 23.5968C111.371 22.7224 111.488 21.8021 111.728 20.8285C111.969 19.857 112.327 18.9633 112.809 18.1437C113.286 17.3278 113.878 16.6513 114.583 16.1131ZM133.238 32.8145H126.976L132.26 10.5778H138.563L133.238 32.8145ZM136.279 7.86853C135.406 7.86853 134.614 7.60856 133.913 7.08758C133.208 6.56973 132.854 5.7726 132.854 4.69828C132.854 4.10735 132.976 3.55296 133.214 3.02989C133.453 2.50786 133.771 2.0584 134.166 1.67628C134.56 1.29729 135.022 0.994518 135.54 0.766393C136.06 0.541923 136.617 0.429688 137.208 0.429688C138.083 0.429688 138.873 0.689656 139.577 1.21064C140.281 1.73423 140.636 2.53136 140.636 3.59994C140.636 4.19296 140.51 4.74944 140.274 5.27146C140.037 5.79348 139.719 6.24294 139.325 6.62507C138.928 7.00458 138.472 7.30631 137.952 7.53234C137.428 7.76047 136.873 7.86853 136.279 7.86853ZM144.65 11.1053C144.074 11.2866 143.545 11.4534 143.071 11.592L137.952 32.8149H144.253L148.355 15.6095C149.202 15.4404 150.032 15.3527 150.848 15.3527C151.694 15.3527 152.318 15.515 152.731 15.8382C153.138 16.1665 153.4 16.5904 153.511 17.1083C153.627 17.6324 153.633 18.2379 153.533 18.9249C153.435 19.6182 153.301 20.3276 153.131 21.0616L150.341 32.8154H156.64L159.518 20.8089C160.333 17.4846 160.116 14.862 158.861 12.9456C157.605 11.0293 155.33 10.0683 152.029 10.0683C150.907 10.0683 149.896 10.1173 149.009 10.2181C148.122 10.3167 147.316 10.4441 146.601 10.6012C145.878 10.7537 145.232 10.9228 144.653 11.1045L144.65 11.1053Z" fill="#4D4D4D"></path></svg>