<svg xmlns:xlink="http://www.w3.org/1999/xlink" xmlns="http://www.w3.org/2000/svg" width="187" height="35" viewBox="0 0 187 35" fill="none"><path fill-rule="evenodd" clip-rule="evenodd" d="M102.604 9.20094C102.604 8.88396 102.853 8.63552 103.161 8.63552L105.311 8.62695C105.62 8.62695 105.868 8.88396 105.868 9.19237V22.4712C105.868 22.7882 106.117 23.0366 106.425 23.0366H117.716C118.213 23.0366 118.462 23.6277 118.127 23.9875L116.508 25.7266C116.397 25.838 116.251 25.9065 116.097 25.9065H103.161C102.853 25.9065 102.604 25.6495 102.604 25.3411V9.20094ZM69.0901 18.942H62.0223H61.8853C59.0582 18.942 56.7622 16.6375 56.7622 13.7933C56.7622 10.949 59.0582 8.64453 61.8853 8.64453H62.0223H72.7739C73.2793 8.64453 73.5278 9.26992 73.1508 9.62117L70.7606 11.84C70.6578 11.9343 70.5208 11.9857 70.3837 11.9857H61.8767C60.8829 11.9857 60.0776 12.7909 60.0776 13.7933C60.0776 14.7871 60.8829 15.6009 61.8767 15.6009H69.4842C69.4927 15.6009 69.4927 15.6009 69.4927 15.6095C69.4927 15.6181 69.5013 15.6181 69.5013 15.6181C72.1399 15.8322 74.2046 18.0511 74.2046 20.7497C74.2046 23.5939 71.9086 25.8984 69.0815 25.8984C68.9521 25.8984 68.8304 25.8908 68.7018 25.8827L68.7017 25.8827L68.6789 25.8813C68.6789 25.8813 68.6703 25.8813 68.6703 25.8899C68.6703 25.8984 68.6617 25.8984 68.6617 25.8984H57.9958C57.4818 25.8984 57.242 25.2559 57.636 24.9132L60.2061 22.6944C60.3004 22.6087 60.4289 22.5573 60.5659 22.5573H69.0901C70.0839 22.5573 70.8892 21.752 70.8892 20.7497C70.8892 19.7559 70.0839 18.942 69.0901 18.942ZM82.4461 8.63477C80.7927 8.71187 79.4648 10.0397 79.3877 11.6932V22.5475V22.6846C79.3877 24.4066 80.7413 25.8116 82.4461 25.8801H94.1829C95.8791 25.803 97.2413 24.398 97.2413 22.6846V22.5475V11.7017C97.1727 10.0483 95.8449 8.71187 94.1914 8.64333H82.4461V8.63477ZM84.6392 11.7017C83.6026 11.7446 82.7717 12.5841 82.7288 13.6293V20.4572V20.5429C82.7288 21.6223 83.5769 22.5133 84.6392 22.5561H91.9983C93.0606 22.5133 93.9087 21.6223 93.9087 20.5429V20.4572V13.6293C93.8659 12.5841 93.0349 11.7531 91.9983 11.7017H84.6392ZM137.489 25.9062C137.18 25.9062 136.932 25.6492 136.932 25.3408H136.958V19.7894C136.958 19.4724 136.709 19.224 136.401 19.224H126.515C126.206 19.224 125.958 19.481 125.958 19.7894V25.3494C125.958 25.6664 125.709 25.9148 125.401 25.9148H123.208C122.899 25.9148 122.651 25.6578 122.651 25.3494V11.9935V11.8564C122.651 10.083 124.064 8.65234 125.812 8.65234H125.949H137.215C138.894 8.72088 140.239 10.1259 140.239 11.8478V11.9849V25.3408C140.239 25.6578 139.99 25.9062 139.682 25.9062H137.489ZM125.941 13.3727V16.1484C125.941 16.4654 126.189 16.7139 126.497 16.7139H136.384C136.692 16.7139 136.941 16.4569 136.941 16.1484V13.3727C136.941 12.2933 136.075 11.4195 135.013 11.4195H127.868C126.806 11.4195 125.941 12.2933 125.941 13.3727ZM183.237 25.907C182.928 25.907 182.68 25.6586 182.68 25.3416V19.7816C182.68 19.4732 182.431 19.2162 182.123 19.2162H172.125C171.817 19.2162 171.568 19.4646 171.568 19.7816V25.3416C171.568 25.65 171.32 25.907 171.012 25.907H168.801C168.493 25.907 168.244 25.6586 168.244 25.3416V11.9857V11.8486C168.244 10.0838 169.675 8.64453 171.44 8.64453H171.577H182.962C184.659 8.72163 186.021 10.1266 186.021 11.84V11.9771V25.333C186.021 25.6414 185.772 25.8984 185.464 25.8984H183.237V25.907ZM171.568 13.3735V16.1492C171.568 16.4576 171.817 16.7146 172.125 16.7146H182.123C182.431 16.7146 182.68 16.4662 182.68 16.1492V13.3735C182.68 12.2941 181.806 11.4202 180.735 11.4202H173.513C172.434 11.4202 171.568 12.2941 171.568 13.3735ZM148.917 8.83181C148.814 8.7033 148.66 8.63477 148.497 8.63477H145.979C145.67 8.63477 145.422 8.89178 145.422 9.20019V25.3489C145.422 25.6659 145.67 25.9144 145.979 25.9144H148.189C148.497 25.9144 148.746 25.6574 148.746 25.3489V14.5974C148.746 14.0834 149.388 13.8349 149.723 14.229L159.729 25.8715C159.737 25.8801 159.737 25.8801 159.737 25.8887C159.737 25.8972 159.746 25.9058 159.754 25.9058H162.479C162.787 25.9058 163.036 25.6488 163.036 25.3404V9.20019C163.036 8.88321 162.787 8.63477 162.479 8.63477H160.286C159.977 8.63477 159.729 8.89178 159.729 9.20019V20.1916C159.729 20.7142 159.086 20.9541 158.752 20.56L148.917 8.83181Z" fill="black"></path><path d="M7.17651 26.4374C7.44209 26.1718 7.81047 26.0176 8.19598 26.0176H43.4748C44.1173 26.0176 44.4429 26.7972 43.9888 27.2512L37.0239 34.2162C36.7583 34.4818 36.3899 34.636 36.0044 34.636H0.725581C0.083058 34.636 -0.242487 33.8564 0.211563 33.4023L7.17651 26.4374Z" fill="url(#paint0_linear_43_1430)"></path><path d="M7.17651 0.419782C7.45066 0.154206 7.81904 0 8.19598 0H43.4748C44.1173 0 44.4429 0.779595 43.9888 1.23364L37.0239 8.1986C36.7583 8.46417 36.3899 8.61838 36.0044 8.61838H0.725581C0.083058 8.61838 -0.242487 7.83879 0.211563 7.38474L7.17651 0.419782Z" fill="url(#paint1_linear_43_1430)"></path><path d="M37.0239 13.3475C36.7583 13.0819 36.3899 12.9277 36.0044 12.9277H0.725581C0.083058 12.9277 -0.242487 13.7073 0.211563 14.1614L7.17651 21.1263C7.44209 21.3919 7.81047 21.5461 8.19598 21.5461H43.4748C44.1173 21.5461 44.4429 20.7665 43.9888 20.3125L37.0239 13.3475Z" fill="url(#paint2_linear_43_1430)"></path><defs><linearGradient id="paint0_linear_43_1430" x1="40.1083" y1="-4.1668" x2="15.6946" y2="42.5952" gradientUnits="userSpaceOnUse"><stop stop-color="#00FFA3"></stop><stop offset="1" stop-color="#DC1FFF"></stop></linearGradient><linearGradient id="paint1_linear_43_1430" x1="29.4342" y1="-9.73921" x2="5.02056" y2="37.0227" gradientUnits="userSpaceOnUse"><stop stop-color="#00FFA3"></stop><stop offset="1" stop-color="#DC1FFF"></stop></linearGradient><linearGradient id="paint2_linear_43_1430" x1="34.737" y1="-6.97053" x2="10.3234" y2="39.7914" gradientUnits="userSpaceOnUse"><stop stop-color="#00FFA3"></stop><stop offset="1" stop-color="#DC1FFF"></stop></linearGradient></defs></svg>