<svg xmlns:xlink="http://www.w3.org/1999/xlink" xmlns="http://www.w3.org/2000/svg" width="200" height="43" viewBox="0 0 200 43" fill="none"><path fill-rule="evenodd" clip-rule="evenodd" d="M62.1149 6.38086C59.7734 6.38086 57.5167 6.67507 56.5977 6.92379C55.2601 7.29989 54.9265 7.88528 54.6747 9.09853L49.3668 33.5909C49.3567 33.6505 49.3466 33.709 49.3367 33.7665C49.2635 34.1911 49.2 34.5598 49.2 34.9285C49.2 36.1417 49.9946 36.9334 51.2898 36.9334C52.7123 36.9334 53.2977 36.0143 53.5889 34.5918L55.0933 27.6126C56.1367 27.737 57.5167 27.8644 59.4822 27.8644C68.1357 27.8644 73.5255 23.1843 73.5255 16.1202C73.5255 9.93263 69.2185 6.38086 62.1149 6.38086ZM59.2729 23.8516C57.9353 23.8516 56.8889 23.8091 55.9304 23.6848L58.73 10.6848C59.6066 10.5605 60.9047 10.3906 62.2423 10.3906C66.8405 10.3906 69.1821 12.5654 69.1821 16.1596C69.1791 20.7578 65.8335 23.8516 59.2729 23.8516ZM198.287 28.8662C197.577 28.8662 197.116 29.2848 196.239 30.2463C194.692 31.8356 193.731 32.7122 192.521 32.7122C191.435 32.7122 190.849 31.8356 190.849 30.4131C190.849 29.6184 191.016 28.6569 191.225 27.6135L192.772 20.3401H197.413C198.875 20.3401 199.755 19.503 199.755 17.9986C199.755 17.1614 199.212 16.5366 197.959 16.5366H193.606L194.359 13.1517L194.371 13.0814L194.371 13.0809C194.451 12.6077 194.525 12.1704 194.525 11.7716C194.525 10.6008 193.731 9.76367 192.436 9.76367C191.056 9.76367 190.431 10.6827 190.137 12.1052L189.175 16.5366H187.21C185.705 16.5366 184.829 17.3737 184.829 18.8782C184.829 19.7153 185.414 20.3401 186.667 20.3401H188.38L186.833 27.5286C186.667 28.3233 186.457 29.6184 186.457 30.956C186.457 34.341 188.214 36.8069 191.975 36.8069C194.149 36.8069 196.069 35.721 197.534 34.4229C198.957 33.1702 200 31.6233 200 30.6193C200 29.6609 199.248 28.8662 198.287 28.8662ZM100.023 6.83789C101.318 6.83789 102.155 7.63257 102.155 8.84581C102.155 9.1326 102.097 9.41797 102.033 9.73119C102.004 9.8751 101.973 10.0249 101.946 10.1834L96.7231 34.4635C96.4289 35.886 95.8041 36.805 94.3816 36.805C93.1289 36.805 92.2917 36.0134 92.2917 34.8001C92.2917 34.3816 92.3767 33.963 92.501 33.4625L97.7241 9.17945C98.0183 7.75692 98.6431 6.83789 100.023 6.83789ZM176.761 16.1164C170.073 16.1164 165.517 22.7619 165.517 29.0738C165.517 29.1921 165.52 29.3104 165.523 29.4257C164.474 31.0181 163.133 32.6681 162.214 32.6681C161.547 32.6681 161.295 32.0402 161.295 31.0787C161.295 29.9079 161.629 27.9425 162.005 26.2288L165.475 10.1776C165.481 10.1406 165.487 10.1041 165.493 10.068L165.505 10.002C165.578 9.57735 165.641 9.20865 165.641 8.83995C165.641 7.62671 164.847 6.83203 163.552 6.83203C162.129 6.83203 161.547 7.75106 161.252 9.17359L159.372 17.8665C158.368 16.8231 156.903 16.1103 154.689 16.1103C150.248 16.1103 145.781 19.5286 144.04 24.7729C142.123 29.729 140.409 32.662 139.056 32.662C138.556 32.662 138.262 32.2434 138.262 31.5337C138.262 29.8119 139.056 26.0479 139.616 23.3964L139.616 23.3962L139.617 23.3934C139.736 22.8278 139.845 22.3128 139.933 21.8793C139.955 21.7551 139.976 21.6409 139.996 21.5348L139.996 21.534C140.121 20.8553 140.185 20.5106 140.185 20.0412C140.185 18.2032 137.133 16.0284 133.163 16.0284C128.571 16.0284 124.412 18.9372 122.329 23.2563C119.232 28.7281 116.39 32.662 114.982 32.662C114.355 32.662 114.145 31.8673 113.978 31.1151L112.938 25.3552L119.332 20.1322C119.917 19.6318 120.669 18.919 120.669 17.9999C120.669 16.8716 119.917 16.1194 118.789 16.1194C117.952 16.1194 117.242 16.6199 116.532 17.2053L106.92 25.146L110.139 10.1836C110.165 10.0279 110.195 9.88005 110.224 9.73769L110.224 9.73766C110.289 9.42261 110.348 9.13431 110.348 8.84602C110.348 7.63277 109.511 6.8381 108.216 6.8381C106.835 6.8381 106.211 7.75713 105.916 9.17966L100.693 33.4627C100.569 33.9632 100.484 34.3818 100.484 34.8003C100.484 36.0136 101.321 36.8052 102.574 36.8052C103.996 36.8052 104.621 35.8862 104.916 34.4637L105.586 31.3305L109.514 28.1548L110.475 33.0017C110.851 34.9247 111.855 36.8052 114.446 36.8052C117.024 36.8052 119.053 34.4515 121.085 31.2698C121.701 34.6032 124.073 36.8052 127.364 36.8052C130.667 36.8052 132.923 34.8398 134.385 32.207V32.292C134.385 35.0096 135.765 36.8052 138.189 36.8052C140.382 36.8052 142.202 35.4828 143.827 32.6741C144.749 35.1219 146.812 36.8052 149.681 36.8052C153.066 36.8052 155.49 34.7579 157.036 31.9159V32.1676C157.036 35.1764 158.541 36.8083 161.007 36.8083C163.185 36.8083 165.035 35.5435 166.615 33.487C167.816 35.5435 169.97 36.8083 172.878 36.8083C179.566 36.8083 184.122 30.1627 184.122 23.8084C184.119 19.3345 181.401 16.1164 176.761 16.1164ZM135.092 24.603C133.879 29.826 131.288 32.7955 128.361 32.7955C126.396 32.7955 125.31 31.291 125.31 29.0344C125.31 24.603 128.528 19.838 132.832 19.838C134.127 19.838 135.131 20.2141 136.008 20.757L135.092 24.603ZM158.371 22.3889C157.033 28.5339 153.982 32.7955 150.64 32.7955C148.802 32.7955 147.713 31.3729 147.713 29.0344C147.713 24.5636 150.806 19.9229 154.944 19.9229C156.533 19.9229 157.743 20.4659 158.623 21.1756L158.371 22.3889ZM173.376 32.7955C170.952 32.7955 169.948 31.0393 169.948 28.8251C169.948 24.7698 172.748 20.1322 176.26 20.1322C178.684 20.1322 179.688 21.8884 179.688 24.1026C179.688 28.1973 176.888 32.7955 173.376 32.7955ZM72.6883 29.0744C72.6883 22.7625 77.2441 16.117 83.9321 16.117C88.5697 16.117 91.2874 19.3351 91.2874 23.8059C91.2874 30.1603 86.7316 36.8058 80.0436 36.8058C75.406 36.8058 72.6883 33.5877 72.6883 29.0744ZM77.1197 28.8257C77.1197 31.0399 78.1237 32.796 80.5471 32.796C84.0564 32.796 86.856 28.1978 86.859 24.1031C86.859 21.889 85.8551 20.1328 83.4316 20.1328C79.9193 20.1328 77.1197 24.7704 77.1197 28.8257Z" fill="black"></path><path fill-rule="evenodd" clip-rule="evenodd" d="M27.8256 4.48597C27.8256 6.9635 24.3723 8.97194 20.1124 8.97194C15.8525 8.97194 12.3992 6.9635 12.3992 4.48597C12.3992 2.00844 15.8525 0 20.1124 0C24.3723 0 27.8256 2.00844 27.8256 4.48597ZM27.8256 38.287C27.8256 40.7645 24.3723 42.773 20.1124 42.773C15.8525 42.773 12.3992 40.7645 12.3992 38.287C12.3992 35.8095 15.8525 33.801 20.1124 33.801C24.3723 33.801 27.8256 35.8095 27.8256 38.287ZM9.36341 15.1824C11.4934 11.4934 11.4795 7.49789 9.33253 6.25829C7.18554 5.01868 3.7184 7.00436 1.58846 10.6934C-0.541485 14.3825 -0.527661 18.3779 1.61933 19.6175C3.76633 20.8572 7.23347 18.8715 9.36341 15.1824ZM38.6046 23.1572C40.7501 24.3959 40.7628 28.3907 38.6328 32.0798C36.5029 35.7688 33.0369 37.7552 30.8914 36.5164C28.7458 35.2777 28.7332 31.2829 30.8631 27.5938C32.9931 23.9047 36.459 21.9184 38.6046 23.1572ZM9.334 36.5152C11.481 35.2755 11.4948 31.2801 9.36487 27.591C7.23493 23.902 3.76779 21.9163 1.6208 23.1559C-0.526196 24.3955 -0.54002 28.391 1.58992 32.08C3.71986 35.7691 7.187 37.7548 9.334 36.5152ZM38.6348 10.6956C40.7647 14.3847 40.7521 18.3795 38.6065 19.6182C36.461 20.857 32.995 18.8706 30.8651 15.1816C28.7351 11.4925 28.7478 7.49774 30.8933 6.25897C33.0389 5.0202 36.5048 7.00656 38.6348 10.6956Z" fill="#E6007A"></path></svg>