<svg xmlns:xlink="http://www.w3.org/1999/xlink" xmlns="http://www.w3.org/2000/svg" width="220" height="42" viewBox="0 0 220 42" fill="none"><path fill-rule="evenodd" clip-rule="evenodd" d="M176.129 26.5444C176.774 26.5444 177.419 26.36 177.972 26.0835C178.617 25.7149 179.17 25.2541 179.631 24.6089L181.935 26.2679C181.198 27.1895 180.369 27.9269 179.355 28.3877C178.341 28.8485 177.327 29.0329 176.129 29.0329C174.931 29.0329 173.825 28.8485 172.811 28.4799C171.797 28.1112 170.968 27.5582 170.23 26.8209C169.493 26.0835 168.94 25.2541 168.479 24.2402C168.018 23.2264 167.834 22.2126 167.834 20.9223C167.834 19.6319 168.018 18.5259 168.479 17.5121C168.94 16.4061 169.493 15.5766 170.23 14.8393C170.968 14.102 171.797 13.549 172.811 13.1803C173.825 12.7195 174.931 12.5352 176.129 12.5352C177.235 12.5352 178.157 12.7195 179.078 13.0882C180 13.4568 180.922 14.102 181.659 15.0236L179.447 16.5905C178.894 16.0375 178.341 15.5766 177.788 15.3923C177.235 15.208 176.682 15.1158 176.129 15.1158C175.299 15.1158 174.562 15.3001 173.917 15.5766C173.272 15.8531 172.719 16.2218 172.258 16.7748C171.797 17.2356 171.428 17.8808 171.152 18.5259C170.875 19.2633 170.783 19.9084 170.783 20.7379C170.783 21.5674 170.875 22.3047 171.152 23.0421C171.428 23.7794 171.797 24.3324 172.258 24.8854C172.719 25.3462 173.272 25.807 173.917 26.0835C174.562 26.36 175.299 26.5444 176.129 26.5444ZM57.6034 12.9043L50.6909 28.6647H53.8246L55.207 25.0702H62.0273L63.502 28.6647H66.7278L59.9075 12.9043H57.6034ZM56.2209 22.6739L58.7093 16.3144L61.1057 22.6739H56.2209ZM94.7463 12.9043L87.926 28.6647H91.0597L92.4422 25.0702H99.2624L100.737 28.6647H103.963L97.2348 12.9043H94.7463ZM93.3638 22.6739L95.8523 16.3144L98.2486 22.6739H93.3638ZM110.046 12.9043H112.903V26.084H119.539V28.6647H110.046V12.9043ZM77.235 24.7937L72.9953 12.9043H69.7695L75.9447 28.6647H78.341L84.7004 12.9043H81.6589L77.235 24.7937ZM150.23 12.9043L157.88 24.6094V12.9043H160.645V28.6647H157.143L149.401 16.5909H149.308V28.6647H146.543V12.9043H150.23ZM131.152 12.9043L124.332 28.6647H127.465L128.848 25.0702H135.668L137.143 28.6647H140.368L133.64 12.9043H131.152ZM129.769 22.6739L132.258 16.3144L134.654 22.6739H129.769ZM191.059 19.1716H198.433V12.9043H201.198V28.6647H198.433V21.6601H191.059V28.6647H188.294V12.9043H191.059V19.1716ZM211.981 26.084V21.8444H219.17V19.2637H211.981V15.3928H219.631V12.9043H209.216V28.6647H220V26.084H211.981Z" fill="black"></path><path fill-rule="evenodd" clip-rule="evenodd" d="M20.8295 0C9.30876 0 0 9.30876 0 20.7373C0 32.1659 9.30876 41.5668 20.8295 41.5668C32.3502 41.5668 41.659 32.2581 41.659 20.7373C41.659 9.21659 32.3502 0 20.8295 0ZM19.0783 26.6359C18.6175 27.4654 18.341 27.8341 18.0645 28.2028C17.6959 28.5714 17.3272 28.7558 16.8664 28.9401C16.4055 29.0323 15.9447 29.0323 15.023 29.0323H10.9677C10.1382 29.0323 9.67742 29.0323 9.40092 28.8479C9.12442 28.6636 8.94009 28.3871 8.94009 28.0184C8.94009 27.7419 9.12442 27.3733 9.58525 26.6359L19.447 9.12442C19.9078 8.3871 20.0922 8.01843 20.3687 7.8341C20.6452 7.64977 21.0138 7.64977 21.2903 7.8341C21.5668 7.92627 21.7512 8.3871 22.212 9.12442L24.2396 12.7189C24.7005 13.5484 24.8848 13.9171 25.0691 14.3779C25.1613 14.8387 25.1613 15.2995 25.0691 15.7604C24.977 16.2212 24.7005 16.5899 24.2396 17.4194L19.0783 26.6359ZM32.4424 28.8479C32.1659 29.0323 31.7972 29.0323 30.8756 29.0323H25.0691C24.2396 29.0323 23.7788 29.0323 23.5023 28.8479C23.2258 28.6636 23.0415 28.3871 23.0415 28.0184C23.0415 27.7419 23.2258 27.3733 23.6866 26.6359L26.5438 21.659C27.0046 20.9217 27.1889 20.553 27.4654 20.4608C27.7419 20.2765 28.1106 20.2765 28.3871 20.4608C28.6636 20.553 28.8479 20.9217 29.3088 21.659V21.7512L32.2581 26.6359V26.7281C32.6267 27.4654 32.9032 27.7419 32.8111 28.1106C32.9032 28.3871 32.7189 28.6636 32.4424 28.8479Z" fill="#E84142"></path></svg>