<svg xmlns:xlink="http://www.w3.org/1999/xlink" xmlns="http://www.w3.org/2000/svg" width="200" height="43" viewBox="0 0 200 43" fill="none"><path d="M35.4223 12.8451C34.5563 12.3117 33.4303 12.3117 32.4777 12.8451L25.7223 16.9341L21.1321 19.601L14.3768 23.6901C13.5108 24.2235 12.3848 24.2235 11.4321 23.6901L6.06251 20.49C5.19644 19.9566 4.59018 18.9788 4.59018 17.912V11.6006C4.59018 10.5339 5.10982 9.55605 6.06251 9.02269L11.3455 5.91141C12.2116 5.37805 13.3375 5.37805 14.2902 5.91141L19.5732 9.02269C20.4393 9.55605 21.0455 10.5339 21.0455 11.6006V15.6897L25.6357 12.934V8.8449C25.6357 7.77818 25.1162 6.80036 24.1634 6.267L14.3768 0.400021C13.5108 -0.13334 12.3848 -0.13334 11.4321 0.400021L1.47233 6.267C0.519644 6.80036 0 7.77818 0 8.8449V20.6678C0 21.7344 0.519644 22.7123 1.47233 23.2456L11.4321 29.1126C12.2982 29.646 13.4242 29.646 14.3768 29.1126L21.1321 25.1123L25.7223 22.3567L32.4777 18.3565C33.3438 17.8232 34.4697 17.8232 35.4223 18.3565L40.7053 21.4678C41.5715 22.0012 42.1778 22.979 42.1778 24.0457V30.3571C42.1778 31.4238 41.6581 32.4016 40.7053 32.935L35.4223 36.1353C34.5563 36.6686 33.4303 36.6686 32.4777 36.1353L27.1947 33.0239C26.3285 32.4906 25.7223 31.5128 25.7223 30.446V26.3569L21.1321 29.1126V33.2017C21.1321 34.2684 21.6518 35.2462 22.6045 35.7796L32.5643 41.6467C33.4303 42.18 34.5563 42.18 35.5089 41.6467L45.4688 35.7796C46.3349 35.2462 46.9411 34.2684 46.9411 33.2017V21.3789C46.9411 20.3122 46.4214 19.3343 45.4688 18.801L35.4223 12.8451Z" fill="#7950DD"></path><path fill-rule="evenodd" clip-rule="evenodd" d="M111.412 1.72461V30.2243H105.975V1.72461H111.412ZM65.2275 38.2668V28.4516C66.2836 29.7918 68.2003 30.5408 70.4301 30.5408C76.102 30.5408 79.9356 26.4807 79.9356 20.2919C79.9356 14.1032 76.415 10.0431 70.8994 10.0431C68.3568 10.0431 66.401 10.9891 65.2275 12.5264V10.3584H59.79V38.2668H65.2275ZM69.7651 25.8105C66.8313 25.8105 64.9145 23.6031 64.9145 20.2919C64.9145 16.9413 66.8313 14.7339 69.7651 14.7339C72.6206 14.7339 74.5765 16.9413 74.5765 20.2919C74.5765 23.6031 72.6206 25.8105 69.7651 25.8105ZM92.2824 30.5408C98.3457 30.5408 102.688 26.2047 102.688 20.2919C102.688 14.3791 98.3457 10.0431 92.2824 10.0431C86.2193 10.0431 81.8772 14.3791 81.8772 20.2919C81.8772 26.2047 86.2193 30.5408 92.2824 30.5408ZM92.2824 25.8105C89.3486 25.8105 87.3536 23.5637 87.3536 20.2919C87.3536 16.9807 89.3486 14.7339 92.2824 14.7339C95.2164 14.7339 97.2113 16.9807 97.2113 20.2919C97.2113 23.5637 95.2164 25.8105 92.2824 25.8105ZM127.757 10.3575L123.65 23.1686L119.503 10.3575H113.948L121.107 30.0669L118.212 38.2659H123.415L126.192 30.1457L133.351 10.3575H127.757ZM143.184 10.0431C145.57 10.0431 147.526 10.9497 148.621 12.3293V10.3584H154.098V31.408C154.098 35.547 151.124 38.2668 146.665 38.2668H136.729V33.9702H145.804C147.448 33.9702 148.661 32.6694 148.661 30.8167V28.2151C147.643 29.6736 145.57 30.5408 143.262 30.5408C137.433 30.5408 133.952 26.4807 133.952 20.2919C133.952 14.1032 137.433 10.0431 143.184 10.0431ZM139.311 20.2919C139.311 23.6425 141.228 25.8105 144.122 25.8105C147.056 25.8105 148.974 23.6425 148.974 20.2919C148.974 16.9413 147.056 14.7339 144.122 14.7339C141.228 14.7339 139.311 16.9413 139.311 20.2919ZM167.805 30.5408C173.869 30.5408 178.211 26.2047 178.211 20.2919C178.211 14.3791 173.869 10.0431 167.805 10.0431C161.743 10.0431 157.4 14.3791 157.4 20.2919C157.4 26.2047 161.743 30.5408 167.805 30.5408ZM167.805 25.8105C164.871 25.8105 162.877 23.5637 162.877 20.2919C162.877 16.9807 164.871 14.7339 167.805 14.7339C170.739 14.7339 172.734 16.9807 172.734 20.2919C172.734 23.5637 170.739 25.8105 167.805 25.8105ZM186.662 19.3459V30.2254H181.186V10.3584H186.662V13.1177C187.757 11.1862 189.947 10.0431 192.646 10.0431C197.105 10.0431 200 13.2754 200 17.848V30.2254H194.524V19.0699C194.524 16.6654 192.998 14.931 190.73 14.931C188.344 14.931 186.662 16.7837 186.662 19.3459Z" fill="black"></path></svg>