<svg xmlns:xlink="http://www.w3.org/1999/xlink" xmlns="http://www.w3.org/2000/svg" width="200" height="55" viewBox="0 0 200 55" fill="none"><path fill-rule="evenodd" clip-rule="evenodd" d="M171.472 26.812C170.07 26.812 168.667 26.5002 167.42 26.0326C164.926 24.9416 163.056 23.0713 161.965 20.5775C161.497 19.3306 161.186 17.9279 161.186 16.5251C161.186 13.8755 162.277 11.2258 164.147 9.19964C165.082 8.26448 166.173 7.48517 167.42 7.01759C168.823 6.39414 170.225 6.23828 171.628 6.23828C172.408 6.23828 173.343 6.23828 174.122 6.39414C174.901 6.55 175.525 6.70586 176.148 7.01759C176.772 7.32931 177.395 7.64103 177.863 7.95275C178.33 8.26448 178.954 8.73206 179.421 9.19964L176.772 12.4727C175.992 11.8493 175.213 11.2258 174.434 10.7583C173.654 10.2907 172.719 10.1348 171.784 10.1348C171.005 10.1348 170.225 10.2907 169.446 10.6024C168.667 10.9141 168.043 11.3817 167.576 12.0051C167.108 12.6286 166.641 13.252 166.329 14.0313C166.017 14.8106 165.861 15.59 165.861 16.3693C165.861 17.1486 166.017 18.0837 166.329 18.863C166.641 19.6423 166.952 20.2658 167.576 20.8892C168.667 22.1361 170.226 22.7596 171.784 22.7596C172.719 22.7596 173.81 22.6037 174.745 22.1361C175.525 21.6685 176.46 21.0451 177.083 20.4216L179.889 23.2271L178.33 24.7858C177.707 25.2533 177.083 25.5651 176.46 25.8768C175.836 26.1885 175.057 26.5002 174.278 26.6561C173.187 26.812 172.252 26.812 171.472 26.812ZM120.501 6.38867H124.551L133.125 26.4973H128.605L126.735 21.9773H118.316L116.446 26.4973H111.926L120.501 6.38867ZM125.174 18.2366L122.524 11.6905L119.875 18.2366H125.174ZM55.9615 6.54492H65.004C67.3419 6.54492 69.0564 7.16837 70.1474 8.25939C71.2384 9.19456 71.706 10.4414 71.706 11.6883C71.706 12.1559 71.706 12.7794 71.5501 13.247C71.2384 14.0263 70.7708 14.8056 70.1474 15.429C69.8357 15.7407 69.524 15.8966 69.2122 16.0525C70.3033 16.3642 71.2384 16.9876 72.0177 17.7669C72.6412 18.5462 72.9529 19.4814 72.9529 20.8841C72.9529 21.6635 72.797 22.5986 72.4853 23.2221C72.1736 23.8455 71.5502 24.469 70.9267 24.9365C70.1474 25.4041 69.3681 25.7158 68.5888 26.0275L68.5888 26.0276C67.6536 26.3393 66.5626 26.3393 65.4716 26.3393H65.4716H55.9615V6.54492ZM64.2247 14.6497C65.004 14.6497 65.7833 14.4938 66.5626 14.1821C67.186 13.8704 67.4978 13.247 67.4978 12.6235C67.4978 12.0001 67.186 11.3766 66.7185 11.0649C66.095 10.5973 65.3157 10.4414 64.5364 10.5973H60.1723V14.8056H64.2247V14.6497ZM65.3157 22.5986C66.095 22.5986 66.8743 22.4428 67.6536 22.131C68.2771 21.8193 68.5888 21.1959 68.4329 20.4166C68.4329 19.7931 68.1212 19.1697 67.6536 18.8579C67.186 18.5462 66.2509 18.2345 65.1598 18.2345H60.0164V22.5986H65.3157ZM78.4106 6.54492H82.7748V26.5002H78.4106V6.54492ZM93.532 6.54492H89.4771V26.5002H93.6878V13.8729L103.507 26.5002H107.248V6.54492H102.884V18.8605L93.532 6.54492ZM141.856 6.54492H137.801V26.5002H142.168V13.8729L151.831 26.5002H155.572V6.54492H151.208V18.8605L141.856 6.54492ZM199.844 6.54492H184.879V26.5002H200V22.6011H189.087V18.3929H198.597V14.4964H189.087V10.444H199.844V6.54492ZM61.4193 46.142C60.3283 46.142 59.2372 45.9861 58.3021 45.5185C57.3669 45.2068 56.4317 44.5833 55.4966 43.804L57.0552 42.0896C57.5717 42.606 58.0882 42.9086 58.6932 43.263C58.8186 43.3365 58.9477 43.4121 59.0814 43.4923C59.8607 43.804 60.64 43.9599 61.4193 43.9599C62.0428 43.9599 62.6662 43.804 63.2896 43.4923C63.7572 43.1806 63.9131 42.713 63.9131 42.2454C63.9131 42.0896 63.9131 41.7778 63.7572 41.622C63.6793 41.5441 63.6014 41.4272 63.5234 41.3103L63.5234 41.3102C63.4455 41.1933 63.3676 41.0765 63.2896 40.9985L62.3545 40.531C62.1207 40.453 61.8479 40.3751 61.5752 40.2972C61.3024 40.2192 61.0297 40.1413 60.7959 40.0634C60.6952 40.0382 60.5904 40.013 60.4829 39.9872L60.4819 39.9869L60.4814 39.9868C59.9236 39.8528 59.2919 39.7011 58.7697 39.4399C58.3021 39.2841 57.6786 38.9723 57.3669 38.6606C57.0552 38.3489 56.7435 38.0372 56.4317 37.5696C56.12 36.9462 56.12 36.3227 56.12 35.8551C56.12 35.3386 56.227 34.9291 56.3523 34.4493C56.3783 34.35 56.405 34.2476 56.4317 34.1406C56.5876 33.6731 57.0552 33.2055 57.3669 32.8938L57.3669 32.8938L57.3669 32.8938C57.8345 32.582 58.3021 32.2703 58.9255 32.1145C59.549 31.9586 60.1724 31.8027 60.7959 31.8027C61.731 31.8027 62.6662 31.9586 63.6014 32.2703C64.3806 32.582 65.1599 33.0496 65.9392 33.5172L65.9393 33.5172L64.6924 35.3875C64.0689 34.92 63.4455 34.6082 62.8221 34.2965C62.1986 33.9848 61.5752 33.9848 60.9517 33.9848H60.9517C60.3283 33.9848 59.7048 34.1407 59.2373 34.4524C58.9255 34.7641 58.6138 35.2317 58.6138 35.6993C58.6138 36.011 58.6138 36.1668 58.7697 36.4786C58.8476 36.5565 58.9255 36.6734 59.0035 36.7903C59.0814 36.9072 59.1593 37.0241 59.2373 37.102C59.549 37.2579 59.8607 37.4137 60.3283 37.5696C60.7959 37.7255 61.2634 37.8813 62.0428 38.0372C62.6662 38.193 63.2896 38.3489 64.0689 38.6606C64.5365 38.8165 65.0041 39.1282 65.4717 39.4399L65.4717 39.4399C65.7834 39.7517 66.0951 40.2192 66.251 40.531C66.4069 40.9985 66.5627 41.4661 66.5627 42.0896C66.5627 42.713 66.4069 43.3365 66.251 43.804C65.9393 44.2716 65.6276 44.7392 65.16 45.2068C64.6924 45.5185 64.2248 45.8302 63.6014 45.9861C63.19 45.9861 62.7787 46.0295 62.3902 46.0705L62.3902 46.0705C62.0428 46.1072 61.7137 46.142 61.4193 46.142ZM71.862 31.9551H69.2124V45.9851H71.7062V35.8516L76.0728 42.4003H76.2287L80.5928 35.8516V45.9851H83.0866V31.9551H80.4369L76.0728 38.5012L71.862 31.9551ZM91.5053 31.8008H93.8433L99.9218 45.8308H97.2722L95.8694 42.4019H89.3233L87.9205 45.8308H85.4268L91.5053 31.8008ZM95.0901 40.3757L92.5964 34.7647L90.2585 40.3757H95.0901ZM108.65 31.9556H102.416L102.26 46.139H104.754V41.3073H107.871L111.3 46.139H114.261L110.52 40.8397C110.988 40.6839 111.456 40.528 111.923 40.2163C112.391 39.9046 112.702 39.5928 113.014 39.2811C113.092 39.0473 113.209 38.8525 113.326 38.6577C113.443 38.4628 113.56 38.268 113.638 38.0342C113.793 37.5666 113.949 36.9432 113.949 36.4756C113.949 35.8522 113.793 35.2287 113.638 34.7611C113.326 34.1377 113.014 33.6701 112.702 33.3584C112.235 32.8908 111.611 32.4232 110.988 32.2674C110.209 32.1115 109.429 31.9556 108.65 31.9556ZM110.52 38.1901C110.053 38.6577 109.274 38.8135 108.494 38.8135H104.754V34.1377H108.338C109.118 34.1377 109.897 34.2936 110.52 34.7611C110.988 35.2287 111.3 35.8522 111.3 36.4756C111.3 37.0991 110.988 37.7225 110.52 38.1901ZM120.342 34.1371H115.822V31.9551H127.203V34.1371H122.68V45.9851H120.186L120.342 34.1371ZM139.518 45.5181C140.453 45.9857 141.389 46.1416 142.324 46.1416C142.947 46.1416 143.571 46.1416 144.194 45.674C144.636 45.674 144.999 45.5175 145.34 45.3709L145.34 45.3708C145.48 45.3105 145.616 45.2518 145.753 45.2064C146.081 45.0971 146.332 44.911 146.614 44.702C146.734 44.6132 146.86 44.5201 147 44.4271L148.091 43.3361L146.532 41.7775C145.909 42.4009 145.285 42.8685 144.662 43.1802C144.038 43.4919 143.259 43.6478 142.48 43.6478C141.856 43.8037 141.233 43.6478 140.609 43.3361C139.986 43.0243 139.518 42.7126 139.051 42.245C138.583 41.7775 138.271 41.3099 138.116 40.6864C137.96 40.063 137.804 39.4395 137.804 38.8161C137.804 38.1927 137.96 37.5692 138.116 36.9458C138.271 36.3223 138.583 35.8547 139.051 35.3872C139.518 34.9196 139.986 34.6078 140.609 34.2961C141.233 34.1403 141.856 33.9844 142.48 33.9844C143.259 33.9844 144.038 34.1403 144.662 34.452C145.285 34.7637 145.909 35.2313 146.376 35.6989L147.935 33.8285C147.779 33.6727 147.584 33.5168 147.389 33.361C147.194 33.2051 147 33.0492 146.844 32.8934C146.61 32.8154 146.415 32.6985 146.22 32.5817C146.025 32.4648 145.831 32.3479 145.597 32.2699L144.194 31.8023C143.727 31.6465 143.103 31.6465 142.48 31.6465C141.389 31.6465 140.453 31.9582 139.518 32.2699C137.804 33.0492 136.401 34.452 135.778 36.1665C135.466 37.1016 135.31 38.0368 135.31 38.972C135.154 39.9071 135.466 40.8423 135.778 41.7775C136.401 43.4919 137.804 44.7388 139.518 45.5181ZM150.584 31.9551H152.922V37.7219H159.627V31.9551H162.121V45.9851H159.627V40.0599H152.922V45.9851H150.584V31.9551ZM173.031 31.8008H170.693L164.614 45.8308H167.108L168.511 42.4019H175.057L176.46 45.8308H179.109L173.031 31.8008ZM171.784 34.7647L174.122 40.3757H169.446L171.784 34.7647ZM181.606 31.9551H184.1V45.9851H181.606V31.9551ZM190.022 31.9551H187.84V45.9851H190.334V36.0075L197.974 45.9851H200V31.9551H197.506V41.621L190.022 31.9551Z" fill="#F3BA2F"></path><path d="M28.3718 45.0514V51.13L23.0725 54.2472L17.9291 51.13V45.0514L23.0725 48.1686L28.3718 45.0514ZM0 24.0051L5.14342 27.1224V37.5676L14.03 42.8668V48.9454L0 40.6848V24.0051ZM46.1424 24.0051V40.6848L31.9566 48.9454V42.8668L40.8432 37.5676V27.1224L46.1424 24.0051ZM31.9566 15.7445L37.2558 18.8617V24.9403L28.3692 30.2396V40.8406L23.2258 43.9579L18.0824 40.8406V30.2396L8.88408 24.9403V18.8617L14.1834 15.7445L23.07 21.0438L31.9566 15.7445ZM8.8866 29.3069L14.03 32.4241V38.5027L8.8866 35.3855V29.3069ZM37.2584 29.3069V35.3855L32.1149 38.5027V32.4241L37.2584 29.3069ZM5.14342 10.4452L10.4427 13.5624L5.14342 16.6797V22.7582L0 19.641V13.5624L5.14342 10.4452ZM40.9965 10.4452L46.2958 13.5624V19.641L40.9965 22.7582V16.6797L35.8531 13.5624L40.9965 10.4452ZM23.07 10.4452L28.3692 13.5624L23.07 16.6797L17.9265 13.5624L23.07 10.4452ZM23.07 0L37.2558 8.26064L32.1124 11.3779L23.2258 6.07858L14.1834 11.3779L9.03994 8.26064L23.07 0Z" fill="#F3BA2F"></path></svg>