<svg xmlns:xlink="http://www.w3.org/1999/xlink" xmlns="http://www.w3.org/2000/svg" width="200" height="41" viewBox="0 0 200 41" fill="none"><path fill-rule="evenodd" clip-rule="evenodd" d="M22.3135 2.24295C22.1082 2.3639 21.8716 2.42122 21.6336 2.40767C21.3148 2.38951 21.0162 2.2455 20.8035 2.00728C20.5907 1.76906 20.4813 1.45613 20.4992 1.13726C20.5126 0.899305 20.5962 0.670659 20.7395 0.480245C20.8829 0.289831 21.0795 0.146204 21.3044 0.0675325C21.5294 -0.0111389 21.7726 -0.0213201 22.0034 0.0382769C22.2342 0.0978739 22.4421 0.224571 22.6008 0.402342C22.7595 0.580114 22.862 0.800971 22.8952 1.03698C22.9284 1.27298 22.8909 1.51353 22.7873 1.7282C22.6838 1.94287 22.5189 2.122 22.3135 2.24295ZM31.5859 2.84877C31.7426 2.9515 31.9263 3.00544 32.1137 3.00375C32.3011 3.00207 32.4837 2.94484 32.6386 2.83931C32.7934 2.73378 32.9135 2.58468 32.9836 2.41089C33.0537 2.2371 33.0707 2.04643 33.0324 1.86299C32.9941 1.67955 32.9022 1.5116 32.7685 1.38037C32.6347 1.24915 32.465 1.16056 32.2808 1.12581C32.0967 1.09105 31.9064 1.1117 31.734 1.18514C31.5616 1.25857 31.4148 1.3815 31.3123 1.53836C31.175 1.74846 31.1267 2.00448 31.178 2.25018C31.2293 2.49588 31.376 2.71117 31.5859 2.84877ZM12.126 2.56675C12.035 2.72998 11.8977 2.86263 11.7315 2.94801C11.62 3.00502 11.4983 3.0394 11.3735 3.04916C11.2487 3.05893 11.1232 3.0439 11.0042 3.00493C10.8852 2.96597 10.7751 2.90383 10.6802 2.82211C10.5854 2.7404 10.5076 2.64071 10.4515 2.52881C10.3679 2.36162 10.3357 2.17346 10.3589 1.988C10.382 1.80255 10.4595 1.62809 10.5816 1.48659C10.7037 1.3451 10.865 1.24288 11.045 1.19282C11.2251 1.14275 11.416 1.14708 11.5936 1.20525C11.7712 1.26342 11.9276 1.37283 12.0432 1.51971C12.1588 1.66659 12.2283 1.84438 12.243 2.0307C12.2578 2.21701 12.2171 2.40352 12.126 2.56675ZM11.9168 19.9421C11.8722 20.7185 12.1377 21.4809 12.655 22.0618C13.1722 22.6426 13.8988 22.9943 14.6753 23.0397H14.8353C15.4071 23.0391 15.9662 22.871 16.4436 22.5563C16.921 22.2416 17.2958 21.7939 17.5218 21.2687C17.7477 20.7434 17.8149 20.1634 17.7151 19.6004C17.6152 19.0374 17.3527 18.5159 16.9599 18.1003C16.5671 17.6848 16.0613 17.3933 15.5047 17.262C14.9482 17.1306 14.3654 17.165 13.8282 17.3611C13.2911 17.5571 12.8231 17.9061 12.482 18.3651C12.1409 18.824 11.9416 19.3728 11.9088 19.9437L11.9168 19.9421ZM0.99845 19.2007C0.811779 19.1902 0.626202 19.2354 0.465169 19.3304C0.304136 19.4254 0.174875 19.5659 0.0937235 19.7344C0.0125715 19.9028 -0.0168298 20.0915 0.00923524 20.2767C0.0353003 20.4618 0.115662 20.635 0.240164 20.7745C0.364666 20.914 0.52772 21.0134 0.708721 21.0603C0.889721 21.1071 1.08054 21.0992 1.25707 21.0377C1.4336 20.9761 1.58791 20.8636 1.70051 20.7143C1.8131 20.565 1.87892 20.3858 1.88966 20.1991C1.89701 20.075 1.87975 19.9506 1.83889 19.8331C1.79803 19.7157 1.73436 19.6075 1.65155 19.5147C1.56874 19.4219 1.46841 19.3464 1.35633 19.2925C1.24425 19.2386 1.12263 19.2074 0.99845 19.2007ZM14.7024 8.12948C14.9606 7.99923 15.1744 7.79535 15.3167 7.54362C15.4591 7.29189 15.5236 7.0036 15.5021 6.71521C15.4806 6.42682 15.3742 6.15126 15.1961 5.92338C15.018 5.6955 14.7764 5.52553 14.5018 5.43495C14.2271 5.34438 13.9318 5.33726 13.6531 5.4145C13.3744 5.49175 13.1249 5.64988 12.9361 5.86892C12.7473 6.08796 12.6276 6.35807 12.5923 6.64509C12.557 6.93212 12.6075 7.22318 12.7376 7.48147C12.824 7.65308 12.9434 7.80598 13.0889 7.93143C13.2344 8.05689 13.4032 8.15243 13.5857 8.21261C13.7682 8.27279 13.9607 8.29642 14.1523 8.28216C14.3439 8.26789 14.5308 8.21601 14.7024 8.12948ZM5.37501 11.8901C5.13665 11.8918 4.90312 11.8229 4.70397 11.6919C4.43723 11.5165 4.25102 11.2424 4.18622 10.9298C4.12142 10.6172 4.18333 10.2917 4.35836 10.0247C4.48905 9.82538 4.67593 9.66928 4.89536 9.57618C5.11478 9.48307 5.35689 9.45715 5.59106 9.50169C5.82522 9.54622 6.04091 9.65922 6.21084 9.82637C6.38077 9.99353 6.49729 10.2073 6.54568 10.4407C6.59406 10.6741 6.57212 10.9166 6.48264 11.1376C6.39316 11.3585 6.24016 11.5479 6.04299 11.6819C5.84583 11.8158 5.61336 11.8883 5.37501 11.8901ZM6.48499 18.6664C6.19628 18.6501 5.90921 18.7198 5.66009 18.8666C5.41096 19.0134 5.21095 19.2308 5.08535 19.4913C4.95974 19.7517 4.91418 20.0436 4.95441 20.3299C4.99464 20.6163 5.11887 20.8843 5.31139 21.1001C5.50391 21.3159 5.75607 21.4697 6.03601 21.5422C6.31595 21.6147 6.6111 21.6026 6.88414 21.5073C7.15719 21.4121 7.39588 21.2381 7.57004 21.0072C7.74419 20.7764 7.84601 20.4991 7.8626 20.2104C7.88444 19.823 7.75162 19.4428 7.49331 19.1533C7.23501 18.8638 6.87234 18.6887 6.48499 18.6664ZM4.35843 28.9819C4.47554 28.7744 4.65154 28.6064 4.86417 28.4989C5.00546 28.4275 5.15944 28.3846 5.3173 28.3728C5.47516 28.3609 5.63382 28.3802 5.78419 28.4297C5.93457 28.4792 6.07372 28.5578 6.19369 28.6611C6.31366 28.7644 6.4121 28.8903 6.48338 29.0317C6.59065 29.2444 6.63245 29.4842 6.60349 29.7207C6.57452 29.9571 6.4761 30.1797 6.32065 30.3603C6.16521 30.5408 5.95973 30.6712 5.73019 30.735C5.50064 30.7988 5.25734 30.7931 5.03103 30.7186C4.80473 30.6442 4.60558 30.5043 4.45876 30.3166C4.31194 30.129 4.22405 29.9021 4.20619 29.6645C4.18833 29.4269 4.24131 29.1894 4.35843 28.9819ZM10.5486 15.644C10.8334 15.8306 11.1671 15.9286 11.5075 15.9256C11.848 15.9226 12.1799 15.8186 12.4614 15.627C12.7428 15.4353 12.961 15.1645 13.0886 14.8488C13.2161 14.5331 13.2471 14.1867 13.1778 13.8534C13.1084 13.52 12.9418 13.2147 12.6989 12.9761C12.4561 12.7374 12.1479 12.5762 11.8134 12.5126C11.4789 12.4491 11.1331 12.4862 10.8196 12.6192C10.5062 12.7523 10.2393 12.9752 10.0526 13.26C9.92836 13.449 9.84266 13.6607 9.80036 13.8829C9.75806 14.1051 9.76001 14.3334 9.80608 14.5549C9.85215 14.7763 9.94145 14.9865 10.0689 15.1734C10.1963 15.3603 10.3593 15.5202 10.5486 15.644ZM29.3999 8.25202C29.1104 8.25519 28.8265 8.17246 28.584 8.0143C28.4228 7.90935 28.2838 7.77359 28.175 7.61481C28.0663 7.45604 27.99 7.27736 27.9505 7.08904C27.9109 6.90071 27.9089 6.70643 27.9446 6.51733C27.9803 6.32824 28.053 6.14805 28.1584 5.98709C28.3168 5.74477 28.5435 5.55484 28.8098 5.44133C29.0761 5.32781 29.3701 5.2958 29.6546 5.34934C29.9391 5.40287 30.2014 5.53955 30.4082 5.7421C30.615 5.94465 30.7572 6.20397 30.8167 6.48729C30.8761 6.77061 30.8503 7.0652 30.7424 7.33383C30.6345 7.60246 30.4493 7.83307 30.2104 7.9965C29.9714 8.15993 29.6894 8.24885 29.3999 8.25202ZM27.6831 17.3135C28.0463 17.1869 28.4308 17.1331 28.8148 17.1552C29.1984 17.1749 29.5742 17.2707 29.9204 17.4372C30.2665 17.6037 30.576 17.8374 30.8308 18.1248C31.2072 18.5461 31.4535 19.0673 31.5403 19.6256C31.627 20.1838 31.5505 20.7552 31.3198 21.2709C31.0891 21.7866 30.7141 22.2245 30.2401 22.5319C29.7661 22.8392 29.2134 23.0029 28.6484 23.0032H28.4788C27.7033 22.9587 26.9773 22.6079 26.4604 22.028C25.9436 21.4481 25.6782 20.6867 25.7228 19.9112C25.7674 19.1357 26.1182 18.4097 26.698 17.8928C26.9851 17.6369 27.3199 17.44 27.6831 17.3135ZM15.6642 15.4409C15.9073 15.9265 16.2811 16.3346 16.7436 16.6193C17.206 16.9039 17.7388 17.0538 18.2818 17.0521C18.7825 17.0522 19.2748 16.924 19.7119 16.6797C20.1489 16.4355 20.516 16.0832 20.7782 15.6567C21.0404 15.2302 21.189 14.7436 21.2096 14.2434C21.2303 13.7431 21.1224 13.246 20.8963 12.7993C20.6515 12.3159 20.277 11.9101 19.8147 11.6276C19.3523 11.345 18.8205 11.1967 18.2786 11.1993C17.7795 11.2001 17.2889 11.3285 16.8533 11.5722C16.4177 11.8158 16.0516 12.1668 15.7897 12.5917C15.5278 13.0166 15.3788 13.5013 15.3568 14C15.3349 14.4986 15.4407 14.9946 15.6642 15.4409ZM39.1303 11.206C39.0131 11.4133 38.837 11.5813 38.6243 11.6886C38.3387 11.8323 38.0077 11.8567 37.7041 11.7565C37.4005 11.6563 37.1491 11.4397 37.0051 11.1542C36.8981 10.9414 36.8566 10.7016 36.8858 10.4652C36.915 10.2288 37.0137 10.0063 37.1693 9.82598C37.3249 9.64562 37.5305 9.51544 37.7601 9.45188C37.9896 9.38832 38.2329 9.39425 38.4591 9.4689C38.6853 9.54356 38.8843 9.6836 39.031 9.87133C39.1776 10.0591 39.2653 10.286 39.283 10.5236C39.3007 10.7611 39.2475 10.9986 39.1303 11.206ZM31.1987 12.6221C30.8946 12.7752 30.6427 13.0151 30.475 13.3114C30.3072 13.6077 30.2311 13.9471 30.2562 14.2867C30.2813 14.6263 30.4066 14.9508 30.6161 15.2192C30.8257 15.4876 31.1101 15.6878 31.4334 15.7945C31.7568 15.9013 32.1045 15.9097 32.4327 15.8188C32.7608 15.7279 33.0546 15.5418 33.277 15.2839C33.4993 15.026 33.6402 14.708 33.6818 14.37C33.7234 14.0321 33.6639 13.6894 33.5107 13.3853C33.4092 13.1832 33.2688 13.0031 33.0976 12.8554C32.9264 12.7076 32.7277 12.5951 32.513 12.5242C32.2982 12.4533 32.0716 12.4255 31.8461 12.4423C31.6206 12.4591 31.4006 12.5202 31.1987 12.6221ZM21.6208 9.98936C21.9606 10.0084 22.2985 9.92628 22.5917 9.75336C22.8849 9.58043 23.1203 9.32446 23.2681 9.0178C23.4158 8.71114 23.4694 8.36756 23.4219 8.03048C23.3745 7.6934 23.2282 7.37795 23.0015 7.124C22.7748 6.87005 22.478 6.68899 22.1484 6.60372C21.8189 6.51845 21.4714 6.53278 21.15 6.64492C20.8286 6.75705 20.5477 6.96194 20.3427 7.2337C20.1377 7.50547 20.0179 7.8319 19.9984 8.17174C19.9726 8.62789 20.129 9.0756 20.4333 9.41644C20.7375 9.75729 21.1646 9.96336 21.6208 9.98936ZM13.0165 26.8758C12.8489 27.1722 12.5971 27.4122 12.2931 27.5655C11.8854 27.771 11.4129 27.8063 10.9794 27.6634C10.5458 27.5206 10.1867 27.2115 9.98103 26.8039C9.8276 26.4999 9.76778 26.1572 9.80912 25.8192C9.85047 25.4812 9.99113 25.1631 10.2133 24.905C10.4355 24.6469 10.7292 24.4605 11.0573 24.3694C11.3854 24.2783 11.7332 24.2865 12.0566 24.3931C12.3801 24.4996 12.6647 24.6997 12.8744 24.968C13.0841 25.2363 13.2095 25.5607 13.2349 25.9003C13.2602 26.2399 13.1842 26.5794 13.0165 26.8758ZM22.7331 12.5029C22.376 13.0478 22.2109 13.6962 22.2638 14.3456C22.3168 14.9949 22.5847 15.608 23.0253 16.0879C23.4659 16.5678 24.0539 16.8871 24.6964 16.9952C25.3388 17.1032 25.999 16.994 26.5724 16.6847C27.1457 16.3754 27.5996 15.8837 27.862 15.2874C28.1245 14.6911 28.1806 14.0244 28.0215 13.3926C27.8624 12.7609 27.4972 12.2002 26.9836 11.7994C26.47 11.3986 25.8374 11.1805 25.1859 11.1797C24.6994 11.1794 24.2204 11.3001 23.7922 11.5311C23.364 11.7621 23 12.0961 22.7331 12.5029ZM26.7974 23.6045C27.2351 23.887 27.5896 24.2811 27.8242 24.7463C28.1714 25.4391 28.2299 26.2413 27.987 26.9772C27.7441 27.7131 27.2196 28.3228 26.5282 28.6728C26.1194 28.8801 25.6681 28.9896 25.2097 28.9928C24.6888 28.9928 24.1772 28.8538 23.7279 28.5901C23.2785 28.3264 22.9077 27.9476 22.6536 27.4928C22.3995 27.0379 22.2714 26.5235 22.2824 26.0027C22.2934 25.4818 22.4433 24.9733 22.7164 24.5296C22.9896 24.086 23.3761 23.7233 23.8362 23.4789C24.2964 23.2345 24.8133 23.1173 25.3339 23.1394C25.8544 23.1614 26.3596 23.322 26.7974 23.6045ZM32.941 24.5422C32.6563 24.3553 32.3227 24.2571 31.9822 24.2598C31.6417 24.2626 31.3097 24.3663 31.0281 24.5578C30.7465 24.7492 30.528 25.0199 30.4003 25.3355C30.2726 25.6512 30.2413 25.9976 30.3104 26.331C30.3796 26.6644 30.546 26.9698 30.7888 27.2086C31.0315 27.4474 31.3396 27.6089 31.6741 27.6726C32.0085 27.7363 32.3544 27.6994 32.6679 27.5665C32.9814 27.4337 33.2485 27.2108 33.4354 26.9262C33.6851 26.5443 33.7733 26.0789 33.6806 25.6321C33.588 25.1852 33.322 24.7933 32.941 24.5422ZM38.3475 19.3195C38.4944 19.5686 38.564 19.8557 38.5477 20.1444C38.5255 20.5318 38.3503 20.8944 38.0608 21.1527C37.7713 21.411 37.3911 21.5439 37.0037 21.522C36.715 21.5054 36.4377 21.4036 36.2069 21.2295C35.976 21.0553 35.802 20.8166 35.7068 20.5436C35.6116 20.2705 35.5994 19.9754 35.6719 19.6954C35.7444 19.4155 35.8983 19.1633 36.114 18.9708C36.3298 18.7783 36.5978 18.6541 36.8842 18.6138C37.1705 18.5736 37.4624 18.6192 37.7229 18.7448C37.9833 18.8704 38.2007 19.0704 38.3475 19.3195ZM42.5986 19.1031C42.4115 19.0924 42.2255 19.1373 42.064 19.2323C41.9025 19.3272 41.7728 19.4679 41.6913 19.6366C41.6098 19.8053 41.5801 19.9944 41.606 20.1799C41.632 20.3654 41.7123 20.5391 41.837 20.679C41.9616 20.8188 42.125 20.9186 42.3063 20.9656C42.4876 21.0127 42.6789 21.0049 42.8558 20.9432C43.0327 20.8816 43.1873 20.7689 43.3002 20.6194C43.4131 20.4698 43.479 20.2902 43.4898 20.1031C43.5038 19.8525 43.4178 19.6064 43.2508 19.419C43.0837 19.2316 42.8492 19.118 42.5986 19.1031ZM38.1131 28.2969C38.3513 28.2948 38.5848 28.3633 38.7841 28.4938C38.9166 28.5806 39.0306 28.6925 39.1197 28.8234C39.2088 28.9542 39.2713 29.1013 39.3036 29.2563C39.3358 29.4113 39.3372 29.5711 39.3076 29.7266C39.2781 29.8821 39.2182 30.0303 39.1313 30.1626C39.0006 30.3618 38.8138 30.5178 38.5945 30.6108C38.3751 30.7039 38.1332 30.7298 37.8991 30.6853C37.665 30.6408 37.4494 30.528 37.2795 30.361C37.1096 30.194 36.993 29.9803 36.9444 29.7471C36.8959 29.5138 36.9176 29.2714 37.0069 29.0505C37.0961 28.8296 37.2488 28.6401 37.4457 28.506C37.6426 28.3718 37.8748 28.2991 38.1131 28.2969ZM11.9041 37.3369C11.7475 37.2341 11.5639 37.1801 11.3766 37.1817C11.1893 37.1832 11.0067 37.2403 10.8518 37.3456C10.6969 37.451 10.5767 37.5999 10.5064 37.7735C10.4362 37.9471 10.419 38.1377 10.457 38.3211C10.495 38.5045 10.5866 38.6726 10.7201 38.804C10.8536 38.9354 11.0231 39.0242 11.2071 39.0593C11.3911 39.0944 11.5813 39.0741 11.7538 39.0011C11.9263 38.928 12.0733 38.8055 12.1761 38.6489C12.2444 38.5449 12.2916 38.4285 12.3149 38.3063C12.3382 38.184 12.3372 38.0584 12.3119 37.9366C12.2867 37.8147 12.2377 37.6991 12.1677 37.5962C12.0977 37.4933 12.0082 37.4052 11.9041 37.3369ZM31.3589 37.6181C31.4511 37.455 31.5897 37.323 31.757 37.2386C31.868 37.1824 31.989 37.1487 32.113 37.1394C32.2371 37.1301 32.3618 37.1453 32.48 37.1842C32.5981 37.2232 32.7075 37.2851 32.8017 37.3663C32.8959 37.4476 32.9731 37.5467 33.029 37.6578C33.1134 37.8251 33.1463 38.0137 33.1235 38.1996C33.1007 38.3856 33.0233 38.5606 32.901 38.7026C32.7788 38.8446 32.6172 38.9471 32.4366 38.9972C32.2561 39.0473 32.0648 39.0427 31.8868 38.9841C31.7089 38.9254 31.5523 38.8154 31.437 38.6677C31.3216 38.5201 31.2526 38.3416 31.2387 38.1547C31.2248 37.9679 31.2666 37.7811 31.3589 37.6181ZM20.7555 27.6793C21.1126 27.1344 21.2777 26.4859 21.2248 25.8365C21.1718 25.1871 20.9038 24.5739 20.463 24.094C20.0223 23.6141 19.4342 23.2949 18.7916 23.187C18.1491 23.079 17.4889 23.1884 16.9156 23.4979C16.3422 23.8074 15.8885 24.2993 15.6262 24.8957C15.3639 25.4921 15.308 26.159 15.4674 26.7908C15.6268 27.4225 15.9923 27.9831 16.5061 28.3837C17.02 28.7843 17.6527 29.0021 18.3043 29.0025C18.7909 29.0042 19.2701 28.884 19.6983 28.6528C20.1264 28.4217 20.4899 28.087 20.7555 27.6793ZM14.0896 31.9357C14.3788 31.9329 14.6623 32.0159 14.9043 32.1742C15.2287 32.387 15.4554 32.7198 15.5346 33.0996C15.6138 33.4794 15.539 33.8752 15.3267 34.1999C15.1681 34.4417 14.9414 34.6311 14.6753 34.7441C14.4091 34.8571 14.1154 34.8887 13.8313 34.8349C13.5472 34.781 13.2854 34.6441 13.0791 34.4415C12.8727 34.2389 12.7311 33.9797 12.6721 33.6966C12.613 33.4135 12.6392 33.1193 12.7474 32.8511C12.8556 32.5829 13.0408 32.3528 13.2797 32.1898C13.5186 32.0269 13.8005 31.9385 14.0896 31.9357ZM21.7315 37.7792C21.4936 37.7657 21.2571 37.823 21.0518 37.9439C20.8464 38.0648 20.6816 38.2438 20.578 38.4584C20.4745 38.673 20.4368 38.9134 20.4699 39.1494C20.503 39.3853 20.6053 39.6062 20.7639 39.784C20.9225 39.9618 21.1302 40.0886 21.3609 40.1484C21.5915 40.2082 21.8347 40.1982 22.0597 40.1198C22.2846 40.0413 22.4813 39.898 22.6248 39.7078C22.7683 39.5176 22.8522 39.2891 22.8659 39.0512C22.875 38.8932 22.8528 38.735 22.8007 38.5855C22.7486 38.436 22.6676 38.2983 22.5622 38.1802C22.4569 38.0621 22.3293 37.9659 22.1868 37.8971C22.0442 37.8283 21.8895 37.7882 21.7315 37.7792ZM20.771 30.4303C21.0653 30.2584 21.4039 30.1776 21.7441 30.1983C22.1988 30.2255 22.6242 30.432 22.9268 30.7724C23.2295 31.1129 23.3847 31.5595 23.3585 32.0143C23.3392 32.3545 23.2193 32.6814 23.0141 32.9535C22.8089 33.2255 22.5275 33.4306 22.2057 33.5426C21.8838 33.6547 21.5359 33.6687 21.2061 33.5829C20.8763 33.497 20.5794 33.3153 20.353 33.0606C20.1265 32.8059 19.9808 32.4897 19.9342 32.1521C19.8876 31.8145 19.9423 31.4707 20.0912 31.1642C20.2402 30.8576 20.4768 30.6022 20.771 30.4303ZM28.7857 32.058C28.5274 32.1891 28.3137 32.3939 28.1718 32.6464C28.0299 32.899 27.9661 33.188 27.9885 33.4768C28.0109 33.7657 28.1185 34.0413 28.2977 34.269C28.4769 34.4967 28.7196 34.666 28.995 34.7557C29.2705 34.8453 29.5664 34.8513 29.8453 34.7727C30.1241 34.6941 30.3734 34.5345 30.5615 34.3142C30.7496 34.0939 30.8681 33.8228 30.9021 33.535C30.936 33.2473 30.8838 32.956 30.7521 32.698C30.6652 32.5267 30.5453 32.3743 30.3994 32.2494C30.2534 32.1245 30.0843 32.0296 29.9016 31.9702C29.719 31.9107 29.5264 31.8879 29.3349 31.9029C29.1434 31.918 28.9568 31.9707 28.7857 32.058ZM65.9173 17.6275C65.9173 14.7347 63.9317 13.1762 61.0964 13.1762C57.1828 13.1762 55.3412 15.4435 55.338 19.8915V20.4579C55.338 24.9939 57.1556 27.178 61.098 27.178C64.1013 27.178 66.0581 25.6179 66.0581 22.7827H69.6309C69.6309 27.8596 65.9461 30.2404 61.0405 30.2404C55.0852 30.2404 51.626 27.178 51.626 20.1747C51.626 13.341 55.0852 10.1074 61.0405 10.1074C65.8885 10.1074 69.6309 12.5522 69.6309 17.6275H65.9173ZM79.4504 10.4531L71.8792 29.9061H75.6232L77.1816 25.6804H86.0793L87.6793 29.9061H91.5929L84.0168 10.4531H79.4504ZM78.316 22.6132L80.3016 17.2804C80.5679 16.577 80.9748 15.3238 81.2566 14.4556C81.3947 14.0302 81.5028 13.6972 81.5496 13.5667H81.6904C81.7354 13.692 81.8368 14.0065 81.967 14.4104L81.967 14.4106L81.9673 14.4113L81.9677 14.4126C82.2499 15.2882 82.6671 16.5824 82.9384 17.2804L84.9225 22.6116L78.316 22.6132ZM105.488 10.4531C109.769 10.4531 111.84 12.7507 111.84 16.3508C111.84 18.9892 110.676 20.9172 108.38 21.8244L112.54 29.9061H108.571L104.891 22.386H98.8524V29.9061H95.2219V10.4531H105.488ZM98.8524 19.3284H105.203C107.075 19.3284 108.18 18.1956 108.18 16.3508C108.18 14.594 107.16 13.5443 105.203 13.5443H98.8524V19.3284ZM124.572 10.4531H116.8V29.9061H124.569C130.438 29.9061 134.009 26.8437 134.009 20.1796C134.009 13.5155 130.441 10.4531 124.572 10.4531ZM130.3 20.4628C130.272 24.7172 128.259 26.8149 124.572 26.8149H120.433V13.5443H124.572C128.252 13.5443 130.3 15.6436 130.3 19.8964V20.4628ZM139.688 29.9061H135.945L143.52 10.4531H148.081L155.653 29.9061H151.739L150.152 25.6804H141.248L139.688 29.9061ZM144.368 17.2804L142.385 22.6132L148.992 22.6116L147.008 17.2804C146.732 16.5699 146.304 15.2416 146.021 14.3659L146.021 14.3651C145.898 13.9831 145.803 13.6873 145.76 13.5667H145.616C145.569 13.6972 145.461 14.0299 145.323 14.455L145.323 14.4554C145.041 15.3236 144.634 16.577 144.368 17.2804ZM172.246 22.0228C172.246 22.2416 172.266 22.6809 172.282 23.0372C172.293 23.2802 172.302 23.4846 172.302 23.554L172.161 23.61C172.126 23.564 172.01 23.3689 171.863 23.1237L171.863 23.1234C171.653 22.7722 171.382 22.3182 171.201 22.0516L162.752 10.4531H159.288V29.9061H162.776V18.2516C162.776 17.9408 162.751 17.4383 162.734 17.0839C162.725 16.8909 162.718 16.7418 162.718 16.6916L162.86 16.6068C162.889 16.645 162.956 16.7632 163.049 16.9282L163.05 16.9286C163.234 17.2545 163.522 17.7624 163.82 18.1956L172.328 29.9061H175.729V10.4531H172.243V22.0228H172.246ZM180.406 20.179C180.406 13.3453 184.093 10.1133 190.189 10.1133C196.285 10.1133 200 13.3453 200 20.179C200 27.0126 196.291 30.2446 190.189 30.2446C184.086 30.2446 180.406 27.0126 180.406 20.179ZM190.189 27.1822C194.158 27.1822 196.285 24.9422 196.285 20.491V19.8958C196.285 15.4429 194.131 13.1757 190.189 13.1757C186.277 13.1757 184.121 15.4429 184.121 19.8958V20.491C184.121 24.9422 186.248 27.1822 190.189 27.1822Z" fill="#0033AD"></path></svg>