<svg xmlns:xlink="http://www.w3.org/1999/xlink" xmlns="http://www.w3.org/2000/svg" width="822" height="799" viewBox="0 0 822 799" fill="none"><path d="M522 21.5L507 0L497.5 164.5L510.5 185L522 21.5Z" fill="url(#paint0_linear_1923_14882)"></path><path d="M338 201L323 179.5L497.5 164.5L510.5 185L338 201Z" fill="url(#paint1_linear_1923_14882)"></path><path d="M497.5 164.5L507 0L420 7.75L415 89.5L328 97.5L323 179.5L497.5 164.5Z" fill="url(#paint2_radial_1923_14882)"></path><path d="M354.138 113.536C359.3 113.062 361.395 116.583 361.117 120.773C360.838 124.988 358.245 128.987 353.083 129.461L345.435 130.164L346.49 114.239L354.138 113.536ZM352.462 126.638C355.712 126.34 357.117 124.497 357.341 121.12C357.566 117.72 356.361 116.188 353.135 116.485L349.932 116.779L349.26 126.933L352.462 126.638ZM368.724 125.977C370.278 125.834 371.135 125.089 371.528 124.172L374.922 123.861C374.46 125.807 372.793 128.031 368.491 128.426C363.831 128.855 362.262 126 362.486 122.623C362.716 119.151 364.913 116.093 369.335 115.686C373.852 115.271 375.33 118.063 375.106 121.44C375.082 121.799 375.06 122.134 374.995 122.402L365.889 123.239C365.953 125.494 367.028 126.133 368.724 125.977ZM369.224 118.077C367.527 118.233 366.477 119.019 366.056 121.081L371.815 120.552C371.817 118.743 370.993 117.914 369.224 118.077ZM382.775 124.686C384.328 124.543 385.185 123.798 385.578 122.881L388.972 122.57C388.511 124.516 386.843 126.74 382.541 127.135C377.881 127.564 376.312 124.709 376.536 121.332C376.766 117.86 378.964 114.802 383.385 114.395C387.902 113.98 389.38 116.772 389.156 120.149C389.132 120.508 389.11 120.843 389.045 121.111L379.939 121.948C380.004 124.203 381.078 124.842 382.775 124.686ZM383.274 116.786C381.577 116.942 380.528 117.728 380.106 119.79L385.866 119.261C385.867 117.452 385.043 116.623 383.274 116.786ZM399.298 112.933C403.218 112.573 404.625 115.347 404.397 118.796C404.172 122.196 402.374 125.313 398.454 125.673C396.399 125.862 395.089 125.197 394.341 123.933L393.908 130.47L390.371 130.795L391.482 114.032L395.019 113.707L394.905 115.431C395.828 114.037 397.243 113.122 399.298 112.933ZM397.563 122.994C399.809 122.788 400.673 121.59 400.836 119.123C401.001 116.632 400.285 115.603 398.039 115.81C395.792 116.016 394.784 117.251 394.622 119.694C394.46 122.137 395.316 123.2 397.563 122.994ZM347.607 151.878L356.522 151.059L356.33 153.956L343.782 155.109L344.837 139.184L357.313 138.038L357.122 140.912L348.28 141.724L348.043 145.292L356.169 144.546L355.99 147.252L347.864 147.998L347.607 151.878ZM358.241 147.83C358.463 144.478 360.575 141.285 365.211 140.859C369.346 140.479 371.225 142.591 371.125 145.528L367.684 145.844C367.663 144.37 366.915 143.463 365.099 143.63C363.187 143.806 361.979 144.821 361.802 147.503C361.623 150.209 362.663 150.994 364.575 150.819C366.463 150.645 367.373 149.467 367.611 148.017L371.053 147.7C370.795 150.509 368.645 153.206 364.439 153.592C359.779 154.02 358.019 151.183 358.241 147.83ZM378.723 152.28C373.967 152.717 372.304 149.847 372.526 146.494C372.745 143.189 374.811 139.977 379.566 139.54C384.346 139.1 385.984 141.997 385.766 145.277C385.546 148.606 383.502 151.84 378.723 152.28ZM376.085 146.191C375.909 148.849 376.756 149.699 378.907 149.502C381.081 149.302 382.051 148.285 382.228 145.626C382.404 142.968 381.557 142.118 379.382 142.318C377.232 142.515 376.261 143.533 376.085 146.191ZM396.038 138.026C399.168 137.738 400.359 139.486 400.151 142.623L399.664 149.975L396.127 150.3L396.578 143.499C396.705 141.583 395.943 140.891 394.485 141.025C392.597 141.198 391.466 142.493 391.277 145.342L390.917 150.778L387.38 151.103L388.173 139.13L391.71 138.805L391.555 141.151C392.428 139.453 393.863 138.226 396.038 138.026ZM408.107 149.58C403.351 150.017 401.688 147.147 401.91 143.794C402.129 140.489 404.195 137.277 408.951 136.84C413.73 136.4 415.368 139.297 415.15 142.577C414.93 145.906 412.886 149.14 408.107 149.58ZM405.469 143.491C405.293 146.149 406.14 146.999 408.291 146.802C410.465 146.602 411.435 145.585 411.612 142.926C411.788 140.268 410.941 139.418 408.766 139.618C406.616 139.815 405.646 140.833 405.469 143.491ZM433.428 134.59C436.463 134.312 437.702 136.054 437.494 139.191L437.007 146.543L433.47 146.868L433.923 140.019C434.042 138.223 433.381 137.451 431.947 137.583C430.155 137.747 429.167 139.028 428.978 141.878L428.618 147.314L425.153 147.633L425.606 140.784C425.725 138.987 425.064 138.215 423.63 138.347C421.838 138.512 420.85 139.792 420.661 142.642L420.301 148.078L416.764 148.403L417.557 136.43L421.094 136.105L420.95 138.284C421.769 136.685 423.127 135.537 425.207 135.346C427.334 135.15 428.558 136.038 428.966 137.761C429.792 136.043 431.181 134.797 433.428 134.59ZM440.274 132.771L440.431 130.401L444.279 130.047L444.121 132.418L440.274 132.771ZM439.543 146.31L440.336 134.336L443.873 134.011L443.08 145.985L439.543 146.31ZM445.506 139.812C445.728 136.459 447.84 133.266 452.476 132.84C456.611 132.46 458.49 134.573 458.391 137.509L454.949 137.826C454.928 136.352 454.18 135.445 452.364 135.611C450.452 135.787 449.245 136.803 449.067 139.485C448.888 142.191 449.928 142.976 451.84 142.8C453.728 142.627 454.638 141.448 454.876 139.998L458.318 139.682C458.061 142.49 455.91 145.187 451.704 145.574C447.044 146.002 445.284 143.165 445.506 139.812ZM459.622 140.586L462.848 140.289C462.868 141.43 463.668 142.261 465.46 142.096C467.062 141.949 467.648 141.348 467.703 140.509C467.751 139.791 467.451 139.295 466.124 139.25L463.47 139.161C461.242 139.08 460.102 137.995 460.236 135.983C460.412 133.325 462.741 131.873 465.919 131.581C469.146 131.285 471.237 132.354 471.277 134.968L468.003 135.269C467.949 134.298 467.254 133.672 465.772 133.808C464.242 133.949 463.583 134.581 463.532 135.347C463.493 135.946 463.771 136.396 464.957 136.43L467.447 136.487C470.268 136.585 471.262 137.707 471.121 139.838C470.965 142.185 469.376 143.95 465.265 144.328C461.011 144.718 459.543 142.854 459.622 140.586Z" fill="#001996"></path><path d="M407 281L421.86 303.56L426.84 221.48L411.89 200L407 281Z" fill="url(#paint3_linear_1923_14882)"></path><path d="M187.939 189.69L202.889 211.17L289.859 203.56L274.899 182.08L187.939 189.69Z" fill="url(#paint4_linear_1923_14882)"></path><path d="M274.9 182.08L289.86 203.56L294.84 121.48L279.89 100L274.9 182.08Z" fill="url(#paint5_linear_1923_14882)"></path><path d="M182.961 271.77L197.911 293.25L202.891 211.17L187.941 189.69L182.961 271.77Z" fill="url(#paint6_linear_1923_14882)"></path><path d="M96 279.38L110.95 300.85L197.91 293.25L182.96 271.77L96 279.38Z" fill="url(#paint7_linear_1923_14882)"></path><path d="M97.5 517.5L81.5 496L169 488.5L183.5 510.5L97.5 517.5Z" fill="url(#paint8_linear_1923_14882)"></path><path d="M184 562L167.5 540L163 622.5L181 622L184 562Z" fill="url(#paint9_linear_1923_14882)"></path><path d="M427.5 298.5L413 280L519.5 271.5L518.5 292.5L427.5 298.5Z" fill="url(#paint10_linear_1923_14882)"></path><path d="M534 300.846L515 274L504 478.778L523.375 505L534 300.846Z" fill="#001996"></path><path d="M529 404L512.5 382.5L600 376L615 398L529 404Z" fill="url(#paint11_linear_1923_14882)"></path><path d="M205.5 616L190.5 594L392 573.5L409 597.5L205.5 616Z" fill="url(#paint12_linear_1923_14882)"></path><path d="M566.5 174L552 152.5L639.5 144.5L638.5 167.5L566.5 174Z" fill="url(#paint13_linear_1923_14882)"></path><path d="M746.5 77L731.5 55L721 219.5L735.5 241.5L746.5 77Z" fill="url(#paint14_linear_1923_14882)"></path><path d="M194.5 346L179.5 324L169 488.5L183.5 510.5L194.5 346Z" fill="url(#paint15_linear_1923_14882)"></path><path d="M614 401L599 379.5L589.5 556.5L602.5 579L614 401Z" fill="url(#paint16_linear_1923_14882)"></path><path d="M71 712L81 547.5L168 540L163.5 622.5L249.75 614.25L244.5 696L71 712Z" fill="url(#paint17_radial_1923_14882)"></path><path d="M265 636L249.5 614.5L244.5 696L261 718.5L265 636Z" fill="url(#paint18_linear_1923_14882)"></path><path d="M86 733.5L71 712.5L244.5 696L261 718.5L86 733.5Z" fill="url(#paint19_linear_1923_14882)"></path><path d="M105.96 115.22L96 279.38L182.96 271.77L187.94 189.69L274.9 182.08L279.89 100L105.96 115.22Z" fill="url(#paint20_radial_1923_14882)"></path><path d="M294.939 289.69L309.889 311.17L420.5 301.5L407 281L294.939 289.69Z" fill="url(#paint21_linear_1923_14882)"></path><path d="M287.961 398.77L302.911 420.25L309.891 311.17L294.941 289.69L287.961 398.77Z" fill="url(#paint22_linear_1923_14882)"></path><path d="M202.5 406.5L216.95 427.85L303.91 420.25L288.96 398.77L202.5 406.5Z" fill="url(#paint23_linear_1923_14882)"></path><path d="M212.961 215.22L202 406.5L288.96 399.39L294.941 289.69L407 281L411.891 200L212.961 215.22Z" fill="url(#paint24_radial_1923_14882)"></path><path d="M305 430L288.5 408L280 505.5L301 505L305 430Z" fill="url(#paint25_linear_1923_14882)"></path><path d="M14.5 443L0 421.5L87.5 413.5L86.5 436.5L14.5 443Z" fill="url(#paint26_linear_1923_14882)"></path><path d="M179.5 324L5.5 339L0.25 421.25L87.5 413.5L82 496L169 488.5L179.5 324Z" fill="url(#paint27_radial_1923_14882)"></path><path d="M382.941 687.69L397.891 709.17L484.861 701.56L469.901 680.08L382.941 687.69Z" fill="url(#paint28_linear_1923_14882)"></path><path d="M377.961 769.77L392.911 791.25L397.891 709.17L382.941 687.69L377.961 769.77Z" fill="url(#paint29_linear_1923_14882)"></path><path d="M291 777.38L305.95 798.85L392.91 791.25L377.96 769.77L291 777.38Z" fill="url(#paint30_linear_1923_14882)"></path><path d="M304.314 524L285 498.11L503.686 479L523 504.89L304.314 524Z" fill="#001996"></path><path d="M515 274L298.089 292.095L285 498L503.78 478.657L515 274Z" fill="#FF7800"></path><path d="M382.567 351.69L387.447 351.241L379.338 365.331L378.953 371.147L374.564 371.551L374.949 365.734L368.59 352.974L373.499 352.523L376.204 358.918C376.595 359.946 376.988 360.945 377.322 361.979C377.855 360.866 378.386 359.782 378.948 358.666L382.567 351.69ZM392.75 370.34C387.003 370.868 384.994 367.4 385.262 363.349C385.527 359.356 388.023 355.474 393.77 354.946C399.545 354.415 401.524 357.914 401.261 361.879C400.995 365.901 398.526 369.809 392.75 370.34ZM389.563 362.982C389.351 366.194 390.373 367.222 392.972 366.983C395.6 366.742 396.772 365.512 396.985 362.3C397.198 359.088 396.175 358.061 393.547 358.302C390.948 358.541 389.776 359.77 389.563 362.982ZM414.565 353.495L418.839 353.102L417.881 367.57L413.607 367.963L413.791 365.185C412.767 367.206 411.064 368.657 408.465 368.896C404.681 369.243 403.158 367.111 403.409 363.321L403.996 354.466L408.27 354.073L407.725 362.291C407.574 364.577 408.523 365.41 410.343 365.243C412.48 365.047 413.913 363.333 414.13 360.063L414.565 353.495ZM430.642 351.788L431.595 351.7L431.318 355.867L429.903 355.997C427.045 356.26 425.959 357.912 425.743 361.182L425.365 366.883L421.091 367.275L422.049 352.807L426.208 352.425L426.003 355.521C426.832 353.403 428.216 352.01 430.642 351.788ZM344.63 398.747L348.904 398.354C348.884 400.398 350.055 401.786 353.087 401.507C356.003 401.239 357.024 400.139 357.125 398.605C357.221 397.158 356.404 396.486 354.716 396.411L350.507 396.251C347.126 396.159 345.345 394.453 345.556 391.27C345.786 387.798 348.55 385.07 353.95 384.574C359.697 384.046 361.881 386.606 361.886 390L357.583 390.395C357.471 388.622 356.277 387.582 353.735 387.815C351.396 388.03 350.091 389.099 349.992 390.604C349.917 391.732 350.525 392.51 352.102 392.538L356.084 392.661C359.954 392.737 361.795 394.408 361.572 397.765C361.321 401.556 358.819 404.23 352.812 404.782C346.488 405.363 344.543 402.235 344.63 398.747ZM370.267 402.689C366.166 403.066 365.07 401.413 365.298 397.969L365.697 391.95L363.069 392.192L363.205 390.137L366.26 388.649L368.248 385.072L370.413 384.873L370.185 388.317L374.344 387.935L374.129 391.176L369.971 391.558L369.453 399.37L373.207 399.026L372.981 402.44L370.267 402.689ZM379.863 402.182C376.947 402.45 375.177 401.002 375.349 398.397C375.503 396.082 376.613 394.485 380.381 393.506L383.827 392.614C385.17 392.26 385.657 391.842 385.713 391.003C385.78 389.99 385.246 389.377 383.312 389.555C381.348 389.736 380.372 390.602 380.217 392.083L376.029 392.468C376.35 389.361 379.031 387.015 383.421 386.612C387.81 386.208 389.822 387.893 389.619 390.96L389.205 397.21C389.115 398.57 389.125 399.72 389.187 400.951L385.462 401.293C385.381 400.352 385.357 399.405 385.436 398.218C384.639 400.276 382.809 401.911 379.863 402.182ZM381.501 399.126C383.753 398.919 385.306 397.137 385.485 394.446L385.527 393.81C384.742 394.399 384.006 394.668 383.098 394.953L381.865 395.354C380.31 395.871 379.667 396.476 379.594 397.576C379.518 398.733 380.346 399.232 381.501 399.126ZM401.519 385.207L402.472 385.12L402.196 389.287L400.781 389.417C397.922 389.68 396.837 391.332 396.62 394.602L396.242 400.303L391.968 400.695L392.927 386.227L397.085 385.845L396.88 388.941C397.709 386.823 399.093 385.43 401.519 385.207ZM410.143 399.025C406.043 399.402 404.947 397.748 405.175 394.305L405.574 388.286L402.946 388.528L403.082 386.473L406.137 384.984L408.124 381.408L410.29 381.209L410.062 384.653L414.221 384.27L414.006 387.511L409.848 387.893L409.33 395.706L413.084 395.361L412.858 398.776L410.143 399.025ZM427.012 383.095L431.286 382.702L430.327 397.171L426.053 397.563L426.237 394.786C425.214 396.807 423.51 398.257 420.911 398.496C417.128 398.844 415.604 396.712 415.856 392.921L416.442 384.066L420.716 383.674L420.172 391.892C420.02 394.178 420.97 395.011 422.789 394.843C424.926 394.647 426.36 392.934 426.576 389.664L427.012 383.095ZM444.024 381.072C448.76 380.637 450.461 383.989 450.185 388.156C449.913 392.265 447.74 396.031 443.004 396.466C440.521 396.694 438.938 395.891 438.035 394.363L437.511 402.263L433.237 402.655L434.579 382.4L438.853 382.007L438.715 384.09C439.831 382.406 441.541 381.3 444.024 381.072ZM441.927 393.229C444.642 392.979 445.685 391.532 445.882 388.551C446.082 385.542 445.217 384.298 442.502 384.548C439.788 384.797 438.569 386.29 438.374 389.241C438.178 392.193 439.213 393.478 441.927 393.229Z" fill="white"></path><path d="M714.939 361.69L729.889 383.17L816.859 375.56L801.899 354.08L714.939 361.69Z" fill="url(#paint31_linear_1923_14882)"></path><path d="M801.9 354.08L816.86 375.56L821.84 293.48L806.89 272L801.9 354.08Z" fill="url(#paint32_linear_1923_14882)"></path><path d="M709.961 443.77L724.911 465.25L729.891 383.17L714.941 361.69L709.961 443.77Z" fill="url(#paint33_linear_1923_14882)"></path><path d="M623 451.38L637.95 472.85L724.91 465.25L709.96 443.77L623 451.38Z" fill="url(#paint34_linear_1923_14882)"></path><path d="M244.388 233.055L248.021 232.721L246.966 248.646L243.333 248.98L243.777 242.275L236.488 242.945L236.044 249.65L232.435 249.981L233.49 234.056L237.099 233.725L236.677 240.095L243.966 239.425L244.388 233.055ZM255.612 248.233C250.856 248.67 249.193 245.8 249.416 242.447C249.634 239.142 251.7 235.93 256.456 235.493C261.236 235.053 262.873 237.95 262.656 241.23C262.435 244.559 260.392 247.793 255.612 248.233ZM252.975 242.144C252.799 244.802 253.645 245.652 255.796 245.455C257.971 245.255 258.941 244.237 259.117 241.579C259.293 238.921 258.447 238.071 256.272 238.27C254.121 238.468 253.151 239.485 252.975 242.144ZM264.223 247.061L265.333 230.297L268.87 229.972L267.76 246.736L264.223 247.061ZM271.232 232.945L271.389 230.574L275.237 230.22L275.08 232.591L271.232 232.945ZM270.501 246.484L271.294 234.51L274.831 234.185L274.038 246.159L270.501 246.484ZM276.25 242.076L279.476 241.779C279.496 242.92 280.296 243.751 282.088 243.586C283.69 243.439 284.276 242.838 284.331 242C284.379 241.281 284.079 240.785 282.752 240.74L280.097 240.651C277.87 240.57 276.73 239.485 276.864 237.473C277.04 234.815 279.369 233.363 282.547 233.071C285.774 232.775 287.864 233.844 287.905 236.459L284.631 236.76C284.576 235.789 283.881 235.162 282.4 235.298C280.87 235.439 280.211 236.071 280.16 236.837C280.12 237.436 280.399 237.886 281.585 237.92L284.075 237.977C286.895 238.075 287.89 239.197 287.749 241.329C287.593 243.675 286.004 245.44 281.893 245.818C277.639 246.209 276.171 244.344 276.25 242.076ZM294.762 244.254C291.368 244.566 290.461 243.198 290.65 240.348L290.98 235.367L288.805 235.567L288.917 233.866L291.446 232.634L293.091 229.675L294.883 229.51L294.694 232.36L298.136 232.044L297.958 234.726L294.517 235.042L294.088 241.508L297.195 241.222L297.008 244.048L294.762 244.254ZM300.149 230.288L300.306 227.917L304.154 227.563L303.997 229.934L300.149 230.288ZM299.418 243.827L300.212 231.853L303.749 231.528L302.955 243.502L299.418 243.827ZM305.381 237.328C305.603 233.976 307.715 230.782 312.352 230.356C316.486 229.977 318.365 232.089 318.266 235.026L314.824 235.342C314.803 233.868 314.056 232.961 312.239 233.128C310.327 233.303 309.12 234.319 308.942 237.001C308.763 239.707 309.804 240.492 311.716 240.316C313.604 240.143 314.513 238.964 314.752 237.514L318.193 237.198C317.936 240.007 315.786 242.703 311.579 243.09C306.919 243.518 305.159 240.681 305.381 237.328ZM238.762 274.598C232.787 275.147 230.702 271.483 230.998 267.005C231.29 262.598 233.92 258.406 239.895 257.857C245.367 257.354 247.438 259.449 247.508 263.774L243.779 264.117C243.72 261.79 242.685 260.552 239.746 260.822C236.543 261.116 235.035 263.087 234.798 266.656C234.565 270.176 235.734 271.901 238.912 271.609C241.971 271.328 243.257 269.853 243.613 267.345L247.365 267C246.726 271.629 244.378 274.082 238.762 274.598ZM255.08 273.075C250.324 273.512 248.661 270.642 248.883 267.289C249.102 263.985 251.168 260.772 255.924 260.335C260.704 259.896 262.341 262.792 262.124 266.073C261.903 269.401 259.86 272.636 255.08 273.075ZM252.443 266.986C252.267 269.644 253.113 270.495 255.264 270.297C257.439 270.097 258.409 269.08 258.585 266.422C258.761 263.764 257.915 262.913 255.74 263.113C253.589 263.31 252.619 264.328 252.443 266.986ZM272.395 258.821C275.526 258.534 276.716 260.281 276.509 263.418L276.022 270.77L272.485 271.095L272.935 264.294C273.062 262.378 272.3 261.686 270.842 261.82C268.954 261.994 267.823 263.288 267.635 266.138L267.274 271.574L263.737 271.899L264.531 259.925L268.068 259.6L267.912 261.947C268.785 260.248 270.22 259.021 272.395 258.821ZM278.028 266.706L281.255 266.409C281.274 267.55 282.074 268.381 283.867 268.216C285.468 268.069 286.054 267.468 286.11 266.63C286.157 265.911 285.857 265.415 284.53 265.371L281.876 265.281C279.648 265.2 278.509 264.115 278.642 262.103C278.818 259.445 281.147 257.993 284.326 257.701C287.552 257.405 289.643 258.474 289.683 261.089L286.409 261.39C286.355 260.419 285.66 259.792 284.178 259.928C282.649 260.069 281.989 260.701 281.938 261.467C281.899 262.066 282.178 262.516 283.363 262.55L285.853 262.607C288.674 262.705 289.668 263.827 289.527 265.959C289.372 268.306 287.782 270.07 283.671 270.448C279.417 270.839 277.949 268.974 278.028 266.706ZM300.767 256.595L304.304 256.27L303.511 268.244L299.974 268.569L300.126 266.27C299.279 267.943 297.87 269.143 295.719 269.341C292.588 269.629 291.327 267.864 291.535 264.727L292.02 257.399L295.557 257.074L295.107 263.875C294.981 265.767 295.767 266.456 297.273 266.318C299.041 266.155 300.228 264.737 300.407 262.031L300.767 256.595ZM306.285 267.989L307.395 251.226L310.932 250.901L309.822 267.664L306.285 267.989ZM317.989 266.914C314.595 267.226 313.688 265.857 313.877 263.007L314.207 258.026L312.032 258.226L312.144 256.526L314.673 255.294L316.318 252.334L318.11 252.169L317.921 255.019L321.363 254.703L321.185 257.385L317.744 257.701L317.315 264.167L320.422 263.881L320.235 266.707L317.989 266.914ZM323.376 252.947L323.533 250.576L327.381 250.222L327.224 252.593L323.376 252.947ZM322.645 266.486L323.439 254.512L326.976 254.187L326.183 266.161L322.645 266.486ZM337.465 252.842C340.595 252.555 341.786 254.302 341.578 257.439L341.091 264.791L337.554 265.116L338.005 258.315C338.132 256.399 337.37 255.707 335.912 255.841C334.024 256.015 332.893 257.309 332.704 260.159L332.344 265.595L328.807 265.92L329.6 253.946L333.137 253.621L332.982 255.968C333.854 254.269 335.29 253.042 337.465 252.842ZM353.671 251.734L357.208 251.409L356.446 262.904C356.204 266.568 354.24 268.605 349.388 269.051C345.301 269.426 343.392 267.769 343.402 265.102L346.868 264.784C346.93 265.992 347.713 266.729 349.696 266.547C351.776 266.356 352.757 265.528 352.882 263.636L353.027 261.457C352.133 262.753 350.75 263.546 348.743 263.731C344.847 264.089 343.352 261.56 343.569 258.279C343.791 254.927 345.64 252.115 349.536 251.757C351.544 251.573 352.834 252.168 353.566 253.315L353.671 251.734ZM350.039 261.017C352.238 260.815 353.144 259.685 353.293 257.434C353.444 255.159 352.676 254.206 350.477 254.408C348.23 254.614 347.262 255.608 347.103 258.002C346.945 260.397 347.793 261.224 350.039 261.017Z" fill="#001996"></path><path d="M116.326 659.155L115.271 675.08L111.639 675.413L112.535 661.883L107.456 675.798L103.25 676.184L99.9448 662.969L99.0437 676.571L95.435 676.902L96.4899 660.977L102.728 660.404L105.639 672.394L110.184 659.719L116.326 659.155ZM121.476 674.819C119.062 675.041 117.598 673.842 117.74 671.687C117.867 669.771 118.786 668.449 121.904 667.639L124.756 666.901C125.868 666.608 126.271 666.262 126.317 665.567C126.373 664.729 125.931 664.222 124.33 664.37C122.705 664.519 121.897 665.236 121.768 666.461L118.303 666.78C118.568 664.209 120.787 662.267 124.42 661.934C128.053 661.6 129.718 662.994 129.55 665.532L129.207 670.705C129.133 671.83 129.141 672.782 129.192 673.801L126.109 674.084C126.042 673.305 126.023 672.521 126.088 671.539C125.429 673.242 123.914 674.595 121.476 674.819ZM122.831 672.29C124.695 672.119 125.981 670.644 126.128 668.417L126.163 667.89C125.513 668.379 124.905 668.601 124.153 668.837L123.133 669.168C121.846 669.596 121.314 670.097 121.253 671.007C121.19 671.965 121.875 672.378 122.831 672.29ZM139.398 660.771L140.187 660.699L139.958 664.147L138.787 664.255C136.421 664.472 135.523 665.84 135.344 668.546L135.031 673.264L131.494 673.589L132.287 661.615L135.729 661.299L135.559 663.861C136.245 662.108 137.39 660.956 139.398 660.771ZM150.21 671.869L147.056 667.494L145.047 669.487L144.857 672.361L141.32 672.686L142.43 655.923L145.967 655.598L145.28 665.967C145.725 665.355 146.191 664.765 146.628 664.272L150.693 659.924L154.923 659.535L154.917 659.631L149.447 665.108L154.417 671.483L150.21 671.869ZM161.062 668.825C162.615 668.682 163.472 667.937 163.865 667.02L167.259 666.709C166.798 668.655 165.13 670.879 160.828 671.274C156.168 671.703 154.599 668.848 154.823 665.471C155.053 661.999 157.251 658.941 161.672 658.534C166.189 658.119 167.667 660.911 167.443 664.288C167.419 664.647 167.397 664.982 167.332 665.25L158.226 666.087C158.291 668.342 159.365 668.981 161.062 668.825ZM161.561 660.925C159.864 661.081 158.815 661.867 158.393 663.929L164.153 663.4C164.154 661.591 163.33 660.762 161.561 660.925ZM174.402 669.646C171.009 669.958 170.102 668.59 170.29 665.74L170.62 660.759L168.446 660.959L168.558 659.258L171.087 658.026L172.732 655.067L174.524 654.902L174.335 657.752L177.777 657.435L177.599 660.117L174.158 660.434L173.729 666.9L176.836 666.614L176.649 669.44L174.402 669.646ZM179.79 655.679L179.947 653.309L183.795 652.955L183.638 655.326L179.79 655.679ZM179.059 669.218L179.852 657.245L183.39 656.92L182.596 668.893L179.059 669.218ZM193.878 655.575C197.009 655.287 198.2 657.034 197.992 660.172L197.505 667.523L193.968 667.848L194.418 661.047C194.545 659.132 193.784 658.44 192.326 658.574C190.438 658.747 189.307 660.041 189.118 662.891L188.758 668.327L185.221 668.652L186.014 656.678L189.551 656.353L189.396 658.7C190.268 657.002 191.703 655.775 193.878 655.575ZM210.085 654.467L213.622 654.142L212.86 665.636C212.617 669.3 210.653 671.337 205.802 671.783C201.715 672.159 199.806 670.501 199.816 667.835L203.282 667.516C203.344 668.724 204.127 669.462 206.11 669.28C208.189 669.088 209.171 668.26 209.296 666.369L209.44 664.189C208.547 665.485 207.164 666.279 205.157 666.463C201.261 666.821 199.766 664.293 199.983 661.012C200.205 657.659 202.054 654.848 205.95 654.49C207.957 654.305 209.248 654.901 209.98 656.047L210.085 654.467ZM206.453 663.75C208.652 663.548 209.558 662.417 209.707 660.166C209.858 657.891 209.089 656.938 206.891 657.14C204.644 657.347 203.676 658.34 203.517 660.735C203.358 663.13 204.206 663.956 206.453 663.75Z" fill="#001996"></path><path d="M131.112 140.798L128.418 141.045L127.801 150.353L130.496 150.105L130.32 152.761L121.6 153.563L121.776 150.906L124.471 150.659L125.088 141.351L122.393 141.599L122.567 138.965L131.287 138.163L131.112 140.798ZM140.512 140.567C143.382 140.303 144.473 141.905 144.283 144.78L143.836 151.519L140.594 151.817L141.007 145.583C141.123 143.827 140.425 143.193 139.088 143.316C137.358 143.475 136.321 144.661 136.148 147.273L135.818 152.256L132.576 152.554L133.303 141.578L136.545 141.28L136.403 143.432C137.202 141.874 138.518 140.75 140.512 140.567ZM154.458 139.634L157.547 139.351L153.007 150.677L148.451 151.095L145.366 140.47L148.674 140.166L151.006 148.352L154.458 139.634ZM163.252 147.859C164.676 147.728 165.462 147.045 165.822 146.205L168.933 145.919C168.51 147.703 166.982 149.742 163.038 150.104C158.766 150.497 157.328 147.88 157.533 144.784C157.744 141.601 159.759 138.798 163.812 138.426C167.952 138.045 169.307 140.604 169.102 143.7C169.08 144.029 169.06 144.336 169 144.582L160.653 145.349C160.712 147.416 161.697 148.002 163.252 147.859ZM163.71 140.617C162.155 140.76 161.192 141.481 160.806 143.371L166.086 142.886C166.087 141.228 165.331 140.468 163.71 140.617ZM170.258 145.535L173.215 145.264C173.233 146.309 173.966 147.071 175.609 146.92C177.077 146.785 177.615 146.234 177.665 145.466C177.709 144.807 177.434 144.352 176.218 144.311L173.784 144.229C171.743 144.155 170.698 143.16 170.82 141.316C170.982 138.88 173.116 137.549 176.03 137.281C178.988 137.009 180.904 137.99 180.941 140.386L177.94 140.662C177.89 139.772 177.253 139.198 175.895 139.323C174.493 139.452 173.888 140.031 173.842 140.733C173.805 141.282 174.061 141.695 175.148 141.726L177.431 141.778C180.016 141.868 180.928 142.897 180.798 144.85C180.656 147.002 179.198 148.619 175.43 148.965C171.531 149.324 170.185 147.615 170.258 145.535ZM187.227 147.532C184.116 147.818 183.284 146.564 183.457 143.951L183.76 139.385L181.766 139.569L181.869 138.01L184.187 136.881L185.695 134.168L187.338 134.017L187.165 136.629L190.32 136.339L190.157 138.798L187.002 139.088L186.61 145.015L189.458 144.753L189.286 147.343L187.227 147.532ZM206.771 134.478C209.553 134.223 210.688 135.82 210.498 138.696L210.051 145.435L206.809 145.733L207.225 139.455C207.334 137.808 206.728 137.101 205.413 137.221C203.77 137.372 202.865 138.546 202.692 141.159L202.362 146.142L199.185 146.434L199.601 140.155C199.71 138.509 199.104 137.801 197.789 137.922C196.146 138.073 195.241 139.247 195.068 141.859L194.738 146.842L191.495 147.14L192.222 136.164L195.465 135.866L195.332 137.864C196.083 136.399 197.328 135.346 199.234 135.171C201.184 134.992 202.306 135.805 202.68 137.385C203.438 135.81 204.711 134.668 206.771 134.478ZM217.829 142.844C219.253 142.713 220.038 142.03 220.399 141.19L223.51 140.904C223.087 142.688 221.558 144.727 217.615 145.089C213.343 145.482 211.905 142.865 212.11 139.77C212.321 136.587 214.336 133.783 218.388 133.411C222.529 133.03 223.884 135.59 223.679 138.685C223.657 139.014 223.637 139.321 223.577 139.567L215.23 140.334C215.289 142.401 216.273 142.987 217.829 142.844ZM218.287 135.602C216.731 135.745 215.769 136.466 215.383 138.356L220.662 137.871C220.663 136.213 219.908 135.453 218.287 135.602ZM233.042 132.064C235.912 131.801 237.003 133.402 236.813 136.278L236.366 143.017L233.124 143.315L233.537 137.081C233.653 135.325 232.955 134.691 231.619 134.813C229.888 134.972 228.851 136.159 228.678 138.771L228.348 143.754L225.106 144.052L225.833 133.076L229.075 132.778L228.933 134.929C229.733 133.372 231.048 132.248 233.042 132.064ZM243.622 142.35C240.511 142.636 239.68 141.382 239.853 138.769L240.155 134.203L238.161 134.387L238.265 132.828L240.582 131.699L242.09 128.986L243.733 128.835L243.56 131.447L246.715 131.157L246.552 133.616L243.397 133.906L243.005 139.833L245.853 139.571L245.681 142.161L243.622 142.35Z" fill="#001996"></path><path d="M191 594L202 411.5L289 404L281.5 501.5L397.5 491.5L392 574L191 594Z" fill="url(#paint35_radial_1923_14882)"></path><path d="M413 512.5L397.5 491.5L392 573.5L409 597.5L413 512.5Z" fill="url(#paint36_linear_1923_14882)"></path><path d="M225.159 530.977L222.22 531.247L221.547 541.401L224.486 541.131L224.295 544.028L214.783 544.902L214.975 542.005L217.914 541.735L218.587 531.581L215.647 531.851L215.838 528.977L225.349 528.103L225.159 530.977ZM235.413 530.725C238.544 530.437 239.735 532.184 239.527 535.322L239.04 542.673L235.503 542.998L235.953 536.197C236.08 534.282 235.318 533.59 233.861 533.724C231.972 533.897 230.842 535.191 230.653 538.041L230.293 543.477L226.756 543.802L227.549 531.828L231.086 531.503L230.93 533.85C231.803 532.152 233.238 530.925 235.413 530.725ZM250.627 529.708L253.997 529.398L249.045 541.754L244.074 542.211L240.709 530.619L244.317 530.288L246.861 539.218L250.627 529.708ZM260.221 538.68C261.774 538.537 262.631 537.792 263.025 536.875L266.418 536.564C265.957 538.51 264.289 540.734 259.987 541.129C255.327 541.558 253.758 538.703 253.982 535.326C254.212 531.854 256.41 528.796 260.831 528.389C265.348 527.974 266.826 530.766 266.603 534.143C266.579 534.502 266.557 534.837 266.491 535.105L257.386 535.942C257.45 538.197 258.524 538.836 260.221 538.68ZM260.721 530.78C259.024 530.936 257.974 531.722 257.552 533.784L263.312 533.255C263.313 531.446 262.489 530.617 260.721 530.78ZM267.863 536.145L271.09 535.849C271.109 536.989 271.909 537.82 273.702 537.656C275.303 537.509 275.889 536.907 275.945 536.069C275.992 535.351 275.692 534.855 274.365 534.81L271.711 534.721C269.483 534.64 268.344 533.554 268.477 531.543C268.653 528.885 270.982 527.433 274.161 527.141C277.387 526.844 279.478 527.914 279.518 530.528L276.244 530.829C276.19 529.858 275.495 529.232 274.013 529.368C272.483 529.508 271.824 530.14 271.773 530.907C271.734 531.505 272.013 531.956 273.198 531.99L275.688 532.046C278.509 532.144 279.503 533.267 279.362 535.398C279.207 537.745 277.617 539.51 273.506 539.887C269.252 540.278 267.784 538.414 267.863 536.145ZM286.375 538.324C282.981 538.636 282.074 537.267 282.263 534.417L282.593 529.436L280.418 529.636L280.531 527.936L283.059 526.704L284.704 523.744L286.496 523.58L286.308 526.429L289.749 526.113L289.572 528.795L286.13 529.111L285.702 535.577L288.809 535.292L288.621 538.118L286.375 538.324ZM296.541 537.771C291.785 538.208 290.122 535.338 290.345 531.985C290.563 528.68 292.629 525.468 297.385 525.031C302.165 524.591 303.802 527.488 303.585 530.768C303.364 534.097 301.321 537.331 296.541 537.771ZM293.904 531.682C293.728 534.34 294.574 535.19 296.725 534.993C298.9 534.793 299.87 533.775 300.046 531.117C300.222 528.459 299.376 527.609 297.201 527.808C295.05 528.006 294.08 529.024 293.904 531.682ZM313.103 523.777L313.891 523.704L313.663 527.153L312.492 527.26C310.126 527.478 309.227 528.846 309.048 531.552L308.736 536.269L305.199 536.594L305.992 524.621L309.433 524.304L309.264 526.867C309.95 525.114 311.095 523.961 313.103 523.777ZM226.603 564.754L226.532 565.831C226.445 567.149 226.541 567.854 226.657 568.605L223.024 568.939C222.871 568.381 222.809 567.53 222.896 566.213L222.952 565.375C223.071 563.579 222.046 562.911 220.469 563.056L217.194 563.357L216.787 569.512L213.13 569.848L214.185 553.923L222.574 553.152C226.087 552.829 227.714 554.441 227.543 557.027C227.394 559.278 225.86 560.919 223.945 561.499C225.543 561.757 226.756 562.455 226.603 564.754ZM221.287 560.387C222.936 560.235 223.61 559.388 223.708 557.903C223.797 556.562 223.151 555.907 221.574 556.052L217.654 556.412L217.367 560.747L221.287 560.387ZM235.019 565.789C236.573 565.647 237.43 564.901 237.823 563.985L241.217 563.673C240.755 565.619 239.088 567.843 234.786 568.239C230.125 568.667 228.557 565.812 228.78 562.435C229.01 558.963 231.208 555.905 235.63 555.499C240.147 555.084 241.624 557.875 241.401 561.252C241.377 561.611 241.355 561.946 241.29 562.214L232.184 563.051C232.248 565.306 233.322 565.945 235.019 565.789ZM235.519 557.889C233.822 558.045 232.772 558.832 232.351 560.893L238.11 560.364C238.111 558.555 237.287 557.726 235.519 557.889ZM242.911 567.111L244.021 550.348L247.558 550.023L246.448 566.786L242.911 567.111ZM252.685 566.523C250.271 566.744 248.806 565.546 248.949 563.391C249.076 561.475 249.995 560.153 253.113 559.343L255.964 558.605C257.077 558.312 257.48 557.966 257.526 557.271C257.581 556.433 257.14 555.926 255.538 556.073C253.913 556.223 253.106 556.939 252.977 558.165L249.511 558.484C249.777 555.912 251.996 553.971 255.628 553.637C259.261 553.303 260.927 554.697 260.758 557.236L260.416 562.409C260.341 563.534 260.349 564.485 260.401 565.504L257.318 565.787C257.251 565.008 257.231 564.224 257.296 563.243C256.637 564.945 255.122 566.299 252.685 566.523ZM254.04 563.994C255.904 563.823 257.189 562.348 257.337 560.121L257.372 559.594C256.722 560.082 256.113 560.305 255.361 560.54L254.342 560.872C253.054 561.3 252.522 561.801 252.462 562.711C252.398 563.669 253.084 564.082 254.04 563.994ZM268.128 564.794C264.735 565.106 263.828 563.737 264.016 560.888L264.346 555.907L262.171 556.106L262.284 554.406L264.812 553.174L266.457 550.214L268.25 550.05L268.061 552.899L271.503 552.583L271.325 555.265L267.883 555.581L267.455 562.047L270.562 561.762L270.375 564.588L268.128 564.794ZM273.516 550.827L273.673 548.456L277.521 548.103L277.363 550.474L273.516 550.827ZM272.785 564.366L273.578 552.392L277.115 552.067L276.322 564.041L272.785 564.366ZM284.946 563.63C280.19 564.067 278.527 561.197 278.75 557.844C278.968 554.539 281.034 551.326 285.79 550.889C290.57 550.45 292.207 553.346 291.99 556.627C291.769 559.956 289.726 563.19 284.946 563.63ZM282.309 557.541C282.133 560.199 282.979 561.049 285.13 560.852C287.305 560.652 288.275 559.634 288.451 556.976C288.627 554.318 287.781 553.468 285.606 553.667C283.455 553.865 282.485 554.882 282.309 557.541ZM302.261 549.376C305.392 549.088 306.583 550.835 306.375 553.973L305.888 561.324L302.351 561.649L302.801 554.848C302.928 552.933 302.166 552.241 300.709 552.375C298.82 552.548 297.69 553.842 297.501 556.692L297.141 562.128L293.604 562.453L294.397 550.479L297.934 550.154L297.778 552.501C298.651 550.803 300.086 549.576 302.261 549.376ZM307.894 557.26L311.121 556.964C311.14 558.105 311.94 558.936 313.733 558.771C315.334 558.624 315.92 558.022 315.976 557.184C316.023 556.466 315.724 555.97 314.396 555.925L311.742 555.836C309.514 555.755 308.375 554.669 308.508 552.658C308.684 550 311.013 548.548 314.192 548.256C317.418 547.959 319.509 549.029 319.55 551.643L316.275 551.944C316.221 550.973 315.526 550.347 314.044 550.483C312.515 550.624 311.855 551.255 311.805 552.022C311.765 552.62 312.044 553.071 313.229 553.105L315.72 553.161C318.54 553.259 319.534 554.382 319.393 556.513C319.238 558.86 317.648 560.625 313.538 561.002C309.283 561.393 307.815 559.529 307.894 557.26Z" fill="#001996"></path><path d="M412 597L397 573.5L589.5 556.5L602.5 579L412 597Z" fill="url(#paint37_linear_1923_14882)"></path><path d="M589.5 556.5L599.5 380.25L512.5 387L507 480.5L402 491L397 574L589.5 556.5Z" fill="url(#paint38_radial_1923_14882)"></path><path d="M449.341 516.384L449.15 519.258L443.916 519.739L443.052 532.79L439.419 533.124L440.284 520.072L435.05 520.553L435.24 517.68L449.341 516.384ZM453.498 529.783C455.051 529.64 455.908 528.895 456.301 527.978L459.695 527.667C459.234 529.613 457.566 531.837 453.264 532.232C448.604 532.661 447.035 529.806 447.259 526.429C447.489 522.957 449.687 519.899 454.108 519.492C458.625 519.077 460.103 521.869 459.879 525.246C459.855 525.605 459.833 525.94 459.768 526.208L450.662 527.045C450.727 529.3 451.801 529.939 453.498 529.783ZM453.997 521.883C452.3 522.039 451.251 522.825 450.829 524.887L456.589 524.358C456.59 522.549 455.766 521.72 453.997 521.883ZM461.307 525.162C461.529 521.809 463.641 518.616 468.278 518.19C472.412 517.81 474.291 519.923 474.192 522.86L470.75 523.176C470.729 521.702 469.982 520.795 468.165 520.962C466.253 521.137 465.046 522.153 464.868 524.835C464.689 527.541 465.73 528.326 467.642 528.15C469.53 527.977 470.439 526.798 470.678 525.348L474.119 525.032C473.862 527.841 471.712 530.537 467.505 530.924C462.845 531.352 461.085 528.515 461.307 525.162ZM484.377 516.711C487.508 516.423 488.699 518.17 488.491 521.308L488.004 528.659L484.467 528.985L484.917 522.183C485.044 520.268 484.282 519.576 482.824 519.71C480.936 519.883 479.806 521.177 479.617 524.027L479.257 529.463L475.72 529.788L476.83 513.025L480.367 512.7L479.894 519.836C480.767 518.138 482.202 516.911 484.377 516.711ZM499.197 515.349C502.328 515.062 503.519 516.809 503.311 519.946L502.824 527.298L499.287 527.623L499.738 520.822C499.865 518.906 499.103 518.214 497.645 518.348C495.757 518.522 494.626 519.816 494.437 522.665L494.077 528.101L490.54 528.426L491.333 516.453L494.87 516.128L494.715 518.475C495.587 516.776 497.023 515.549 499.197 515.349ZM511.266 526.903C506.51 527.34 504.848 524.47 505.07 521.117C505.289 517.812 507.354 514.6 512.11 514.163C516.89 513.723 518.527 516.62 518.31 519.9C518.09 523.229 516.046 526.464 511.266 526.903ZM508.629 520.814C508.453 523.472 509.299 524.323 511.45 524.125C513.625 523.925 514.595 522.908 514.771 520.249C514.947 517.591 514.101 516.741 511.926 516.941C509.775 517.138 508.805 518.156 508.629 520.814ZM519.877 525.731L520.988 508.967L524.525 508.642L523.414 525.406L519.877 525.731ZM532.015 524.996C527.259 525.433 525.596 522.563 525.818 519.211C526.037 515.906 528.103 512.693 532.859 512.256C537.639 511.817 539.276 514.713 539.059 517.994C538.838 521.323 536.795 524.557 532.015 524.996ZM529.378 518.907C529.202 521.565 530.048 522.416 532.199 522.218C534.374 522.019 535.344 521.001 535.52 518.343C535.696 515.685 534.85 514.834 532.675 515.034C530.524 515.232 529.554 516.249 529.378 518.907ZM550.786 510.99L554.323 510.665L553.561 522.16C553.319 525.824 551.355 527.861 546.503 528.306C542.416 528.682 540.507 527.025 540.517 524.358L543.983 524.039C544.045 525.248 544.828 525.985 546.812 525.803C548.891 525.612 549.872 524.784 549.997 522.892L550.142 520.712C549.248 522.008 547.865 522.802 545.858 522.986C541.962 523.344 540.467 520.816 540.684 517.535C540.907 514.183 542.756 511.371 546.651 511.013C548.659 510.828 549.949 511.424 550.681 512.57L550.786 510.99ZM547.154 520.273C549.353 520.071 550.259 518.94 550.408 516.689C550.559 514.414 549.791 513.461 547.592 513.663C545.345 513.87 544.377 514.863 544.218 517.258C544.06 519.653 544.908 520.479 547.154 520.273ZM565.783 509.612L569.153 509.302L564.154 522.019C562.98 525.031 561.853 526.634 558.411 526.95L555.424 527.225L555.609 524.423L560.222 523.999L561.157 521.723L559.125 521.91L555.817 510.527L559.426 510.196L561.56 517.426L562.051 519.332L562.731 517.318L565.783 509.612Z" fill="#001996"></path><path d="M300.96 613.22L291 777.38L377.96 769.77L382.94 687.69L469.9 680.08L474.89 598L300.96 613.22Z" fill="url(#paint39_radial_1923_14882)"></path><path d="M699.5 664.5L709 500L622 507.75L617 589.5L530 597.5L525 679.5L699.5 664.5Z" fill="url(#paint40_radial_1923_14882)"></path><path d="M540 701L525 679.5L699.5 664.5L712.5 685L540 701Z" fill="url(#paint41_linear_1923_14882)"></path><path d="M724 521.5L709 500L699.5 664.5L712.5 685L724 521.5Z" fill="url(#paint42_linear_1923_14882)"></path><path d="M469.9 680.08L484.86 701.56L489.84 619.48L474.89 598L469.9 680.08Z" fill="url(#paint43_linear_1923_14882)"></path><path d="M566.186 642.743L565.255 639.592L558.133 640.246L556.77 643.608L553.113 643.944L559.761 627.505L565.305 626.996L569.843 642.407L566.186 642.743ZM559.298 637.354L564.461 636.88L562.367 629.765L559.298 637.354ZM581.5 628.364L578.561 628.634L577.888 638.788L580.828 638.518L580.636 641.415L571.124 642.289L571.316 639.392L574.255 639.122L574.928 628.968L571.988 629.238L572.179 626.364L581.69 625.49L581.5 628.364ZM588.298 640.711L595.256 624.244L598.482 623.947L591.524 640.415L588.298 640.711ZM625.997 621.419L624.942 637.344L621.309 637.678L622.206 624.148L617.127 638.062L612.921 638.449L609.615 625.233L608.714 638.835L605.105 639.167L606.16 623.242L612.398 622.669L615.309 634.659L619.855 621.984L625.997 621.419ZM631.546 633.857L638.979 633.174L638.787 636.072L627.698 637.091L628.753 621.166L632.409 620.83L631.546 633.857Z" fill="#001996"></path><path d="M324.284 657.937L331.716 657.254L331.524 660.152L320.435 661.171L321.49 645.246L325.147 644.91L324.284 657.937ZM339.08 657.411C340.633 657.268 341.49 656.523 341.884 655.606L345.277 655.294C344.816 657.241 343.148 659.465 338.846 659.86C334.186 660.288 332.617 657.433 332.841 654.057C333.071 650.584 335.269 647.526 339.69 647.12C344.207 646.705 345.685 649.497 345.461 652.873C345.438 653.232 345.415 653.568 345.35 653.836L336.245 654.672C336.309 656.927 337.383 657.567 339.08 657.411ZM339.58 649.51C337.883 649.666 336.833 650.453 336.411 652.515L342.171 651.986C342.172 650.177 341.348 649.348 339.58 649.51ZM357.132 645.898L360.669 645.573L359.907 657.068C359.665 660.732 357.701 662.769 352.849 663.215C348.762 663.59 346.853 661.933 346.863 659.266L350.329 658.948C350.391 660.156 351.174 660.893 353.157 660.711C355.237 660.52 356.218 659.692 356.343 657.8L356.488 655.621C355.594 656.917 354.211 657.71 352.204 657.895C348.308 658.253 346.813 655.724 347.03 652.443C347.252 649.091 349.101 646.279 352.997 645.921C355.005 645.737 356.295 646.332 357.027 647.479L357.132 645.898ZM353.5 655.181C355.699 654.979 356.605 653.849 356.754 651.598C356.905 649.323 356.137 648.37 353.938 648.572C351.691 648.778 350.723 649.772 350.564 652.166C350.406 654.561 351.253 655.388 353.5 655.181ZM366.104 657.284C363.69 657.506 362.226 656.307 362.369 654.152C362.495 652.236 363.414 650.914 366.532 650.104L369.384 649.366C370.496 649.073 370.899 648.727 370.945 648.032C371.001 647.194 370.559 646.687 368.958 646.835C367.333 646.984 366.525 647.701 366.397 648.926L362.931 649.245C363.197 646.674 365.415 644.732 369.048 644.398C372.681 644.065 374.346 645.459 374.178 647.997L373.835 653.17C373.761 654.295 373.769 655.247 373.82 656.265L370.737 656.549C370.67 655.769 370.651 654.986 370.716 654.004C370.057 655.707 368.542 657.06 366.104 657.284ZM367.459 654.755C369.324 654.584 370.609 653.109 370.756 650.882L370.791 650.355C370.141 650.844 369.533 651.066 368.781 651.302L367.761 651.633C366.474 652.061 365.942 652.562 365.882 653.472C365.818 654.43 366.503 654.843 367.459 654.755ZM376.169 656.05L377.279 639.286L380.816 638.961L379.706 655.725L376.169 656.05Z" fill="#001996"></path><path d="M626.5 202L611.5 181L600 376L615 398L626.5 202Z" fill="url(#paint44_linear_1923_14882)"></path><path d="M731.5 55L557.5 70L552.25 152.25L639.5 144.5L634 227L721 219.5L731.5 55Z" fill="url(#paint45_radial_1923_14882)"></path><path d="M649.5 248.5L633.5 227L721 219.5L735.5 241.5L649.5 248.5Z" fill="url(#paint46_linear_1923_14882)"></path><path d="M632.96 287.22L623 451.38L709.96 443.77L714.94 361.69L801.9 354.08L806.89 272L632.96 287.22Z" fill="url(#paint47_radial_1923_14882)"></path><path d="M659.37 311.593C661.17 311.711 662.487 312.529 662.333 314.855C662.17 317.314 660.471 318.976 657.36 319.262L649.386 319.994L650.353 305.396L658.48 304.649C661.591 304.364 662.732 305.873 662.601 307.849C662.459 310 661.059 311.089 659.37 311.593ZM657.327 307.264L653.515 307.615L653.284 311.105L656.987 310.765C658.432 310.632 659.005 309.881 659.075 308.828C659.149 307.708 658.707 307.138 657.327 307.264ZM656.784 316.784C658.273 316.647 658.831 315.788 658.902 314.712C658.98 313.549 658.437 312.857 656.838 313.004L653.136 313.344L652.884 317.142L656.784 316.784ZM672.804 306.933L676.046 306.635L675.319 317.611L672.077 317.909L672.216 315.802C671.44 317.335 670.147 318.436 668.176 318.617C665.306 318.88 664.15 317.263 664.341 314.387L664.785 307.67L668.028 307.372L667.615 313.606C667.5 315.341 668.22 315.973 669.6 315.846C671.222 315.697 672.309 314.397 672.474 311.916L672.804 306.933ZM677.376 313.866L680.333 313.594C680.351 314.64 681.085 315.402 682.728 315.251C684.196 315.116 684.733 314.564 684.784 313.796C684.827 313.138 684.553 312.683 683.336 312.642L680.903 312.56C678.861 312.486 677.816 311.491 677.938 309.647C678.1 307.21 680.235 305.88 683.149 305.612C686.106 305.34 688.023 306.32 688.06 308.717L685.058 308.993C685.009 308.103 684.372 307.529 683.013 307.653C681.611 307.782 681.007 308.361 680.96 309.064C680.924 309.613 681.18 310.026 682.266 310.057L684.549 310.109C687.134 310.198 688.046 311.227 687.916 313.181C687.774 315.332 686.317 316.95 682.549 317.296C678.649 317.654 677.303 315.945 677.376 313.866ZM690.298 303.886L690.442 301.713L693.969 301.388L693.825 303.562L690.298 303.886ZM689.628 316.296L690.355 305.321L693.598 305.023L692.87 315.999L689.628 316.296ZM703.212 303.79C706.082 303.526 707.174 305.128 706.983 308.004L706.537 314.743L703.294 315.041L703.707 308.806C703.824 307.05 703.125 306.416 701.789 306.539C700.058 306.698 699.022 307.884 698.849 310.497L698.519 315.48L695.276 315.778L696.003 304.802L699.246 304.504L699.103 306.655C699.903 305.098 701.219 303.973 703.212 303.79ZM714.314 312.152C715.738 312.021 716.524 311.338 716.884 310.497L719.995 310.212C719.572 311.996 718.044 314.035 714.1 314.397C709.828 314.789 708.39 312.172 708.595 309.077C708.806 305.894 710.821 303.091 714.874 302.719C719.014 302.338 720.369 304.897 720.164 307.992C720.142 308.322 720.122 308.629 720.062 308.875L711.715 309.642C711.774 311.709 712.759 312.295 714.314 312.152ZM714.772 304.91C713.217 305.053 712.255 305.774 711.868 307.664L717.148 307.179C717.149 305.52 716.393 304.761 714.772 304.91ZM721.32 309.828L724.277 309.556C724.295 310.602 725.028 311.364 726.672 311.213C728.139 311.078 728.677 310.527 728.728 309.758C728.771 309.1 728.496 308.645 727.28 308.604L724.847 308.522C722.805 308.448 721.76 307.453 721.882 305.609C722.044 303.172 724.179 301.842 727.092 301.574C730.05 301.302 731.966 302.282 732.004 304.679L729.002 304.955C728.952 304.065 728.315 303.491 726.957 303.616C725.555 303.744 724.95 304.324 724.904 305.026C724.868 305.575 725.123 305.988 726.21 306.019L728.493 306.071C731.078 306.16 731.99 307.189 731.86 309.143C731.718 311.294 730.261 312.912 726.492 313.258C722.593 313.617 721.247 311.907 721.32 309.828ZM733.258 308.731L736.215 308.459C736.233 309.505 736.966 310.267 738.61 310.116C740.077 309.981 740.615 309.43 740.666 308.661C740.709 308.003 740.434 307.548 739.218 307.507L736.785 307.425C734.743 307.351 733.698 306.356 733.82 304.512C733.982 302.075 736.117 300.745 739.03 300.477C741.988 300.205 743.904 301.186 743.942 303.582L740.94 303.858C740.89 302.968 740.253 302.394 738.895 302.519C737.493 302.647 736.888 303.227 736.842 303.929C736.806 304.478 737.061 304.891 738.148 304.922L740.431 304.974C743.016 305.064 743.928 306.093 743.798 308.046C743.656 310.198 742.199 311.815 738.43 312.161C734.531 312.52 733.185 310.811 733.258 308.731ZM655.843 327.702C660.575 327.267 662.495 330.494 662.24 334.336C661.984 338.199 659.608 341.865 654.876 342.3L647.865 342.944L648.832 328.346L655.843 327.702ZM654.307 339.712C657.286 339.438 658.574 337.749 658.779 334.654C658.986 331.537 657.881 330.133 654.923 330.404L651.988 330.674L651.371 339.982L654.307 339.712ZM669.214 339.106C670.638 338.975 671.423 338.292 671.784 337.452L674.895 337.166C674.472 338.95 672.943 340.989 669 341.351C664.728 341.744 663.29 339.127 663.495 336.031C663.706 332.848 665.721 330.045 669.773 329.673C673.914 329.292 675.269 331.851 675.064 334.947C675.042 335.276 675.022 335.583 674.962 335.829L666.615 336.596C666.674 338.663 667.658 339.249 669.214 339.106ZM669.672 331.864C668.116 332.007 667.154 332.728 666.768 334.618L672.047 334.133C672.048 332.475 671.293 331.715 669.672 331.864ZM684.873 328.634L687.962 328.35L683.423 339.677L678.866 340.095L675.781 329.47L679.089 329.166L681.421 337.352L684.873 328.634ZM693.668 336.859C695.092 336.728 695.877 336.045 696.238 335.205L699.349 334.919C698.925 336.703 697.397 338.742 693.453 339.104C689.181 339.497 687.744 336.88 687.949 333.784C688.159 330.601 690.174 327.798 694.227 327.426C698.368 327.045 699.722 329.604 699.517 332.7C699.495 333.029 699.475 333.336 699.415 333.582L691.068 334.349C691.128 336.416 692.112 337.002 693.668 336.859ZM694.126 329.617C692.57 329.76 691.608 330.481 691.221 332.371L696.501 331.886C696.502 330.228 695.747 329.468 694.126 329.617ZM700.902 338.071L701.92 322.704L705.162 322.406L704.144 337.773L700.902 338.071ZM712.028 337.397C707.668 337.798 706.144 335.167 706.348 332.094C706.548 329.064 708.442 326.12 712.801 325.719C717.183 325.316 718.684 327.971 718.485 330.979C718.282 334.03 716.409 336.995 712.028 337.397ZM709.61 331.816C709.449 334.252 710.225 335.032 712.196 334.851C714.19 334.668 715.079 333.735 715.241 331.298C715.402 328.862 714.626 328.082 712.633 328.265C710.661 328.447 709.772 329.379 709.61 331.816ZM727.834 324.338C731.427 324.008 732.717 326.551 732.508 329.712C732.301 332.829 730.653 335.686 727.06 336.016C725.176 336.189 723.975 335.58 723.29 334.421L722.893 340.414L719.651 340.711L720.669 325.345L723.911 325.047L723.806 326.628C724.653 325.35 725.95 324.511 727.834 324.338ZM726.243 333.56C728.302 333.371 729.094 332.273 729.243 330.012C729.395 327.729 728.739 326.785 726.679 326.975C724.62 327.164 723.696 328.296 723.547 330.535C723.399 332.774 724.184 333.749 726.243 333.56ZM749.338 322.362C752.12 322.106 753.255 323.704 753.065 326.579L752.618 333.318L749.376 333.616L749.792 327.338C749.901 325.692 749.295 324.984 747.98 325.105C746.337 325.256 745.432 326.43 745.259 329.042L744.929 334.025L741.752 334.317L742.168 328.039C742.277 326.392 741.671 325.684 740.356 325.805C738.713 325.956 737.808 327.13 737.635 329.743L737.305 334.726L734.063 335.024L734.79 324.048L738.032 323.75L737.9 325.747C738.65 324.282 739.896 323.229 741.802 323.054C743.751 322.875 744.873 323.688 745.248 325.268C746.005 323.693 747.279 322.551 749.338 322.362ZM760.396 330.727C761.82 330.597 762.606 329.914 762.966 329.073L766.077 328.787C765.654 330.572 764.126 332.61 760.182 332.973C755.91 333.365 754.472 330.748 754.677 327.653C754.888 324.47 756.903 321.667 760.956 321.294C765.096 320.914 766.451 323.473 766.246 326.568C766.224 326.897 766.204 327.205 766.144 327.45L757.797 328.217C757.856 330.284 758.841 330.87 760.396 330.727ZM760.854 323.485C759.299 323.628 758.336 324.349 757.95 326.239L763.23 325.754C763.231 324.096 762.475 323.336 760.854 323.485ZM775.609 319.948C778.479 319.684 779.571 321.286 779.38 324.161L778.934 330.9L775.691 331.198L776.104 324.964C776.221 323.208 775.522 322.574 774.186 322.697C772.455 322.856 771.419 324.042 771.245 326.654L770.915 331.637L767.673 331.935L768.4 320.959L771.642 320.661L771.5 322.813C772.3 321.255 773.616 320.131 775.609 319.948ZM786.189 330.234C783.078 330.52 782.247 329.265 782.42 326.653L782.722 322.087L780.729 322.27L780.832 320.711L783.15 319.582L784.658 316.869L786.301 316.718L786.128 319.33L789.282 319.04L789.119 321.499L785.965 321.789L785.572 327.716L788.42 327.454L788.248 330.045L786.189 330.234Z" fill="#001996"></path><path d="M79.1602 353.782C82.4683 353.478 83.6417 355.487 83.473 358.033C83.2941 360.733 81.8386 362.984 78.5305 363.288L74.149 363.69L73.8116 368.783L70.4597 369.091L71.4268 354.493L79.1602 353.782ZM77.6505 360.794C79.2717 360.645 79.9258 359.647 80.0101 358.373C80.0915 357.144 79.5801 356.318 77.9589 356.467L74.6071 356.775L74.3206 361.1L77.6505 360.794ZM91.9322 356.034L92.6552 355.968L92.4458 359.129L91.3723 359.228C89.2034 359.427 88.38 360.681 88.2157 363.161L87.9292 367.486L84.6869 367.784L85.414 356.808L88.5687 356.518L88.4131 358.867C89.0421 357.26 90.092 356.203 91.9322 356.034ZM98.7869 366.837C94.4273 367.238 92.9032 364.607 93.1068 361.534C93.3074 358.504 95.2009 355.559 99.5605 355.159C103.942 354.756 105.443 357.411 105.244 360.418C105.041 363.47 103.168 366.435 98.7869 366.837ZM96.3695 361.256C96.2081 363.692 96.9839 364.472 98.9556 364.291C100.949 364.108 101.838 363.175 102 360.738C102.161 358.302 101.385 357.522 99.3919 357.705C97.4202 357.886 96.531 358.819 96.3695 361.256ZM116.348 349.602L119.59 349.304L118.572 364.67L115.33 364.968L115.438 363.344C114.588 364.665 113.269 365.506 111.385 365.68C107.814 366.008 106.524 363.464 106.735 360.281C106.941 357.164 108.588 354.329 112.159 354.001C114.043 353.828 115.264 354.458 115.948 355.638L116.348 349.602ZM112.562 363.041C114.599 362.853 115.545 361.719 115.694 359.48C115.842 357.241 115.036 356.268 112.998 356.455C110.939 356.644 110.127 357.722 109.976 360.005C109.826 362.266 110.503 363.23 112.562 363.041ZM129.649 352.743L132.891 352.445L132.164 363.421L128.922 363.719L129.062 361.612C128.285 363.145 126.993 364.245 125.021 364.427C122.151 364.69 120.995 363.073 121.186 360.197L121.631 353.48L124.873 353.182L124.46 359.416C124.345 361.15 125.066 361.782 126.446 361.656C128.067 361.507 129.155 360.207 129.319 357.726L129.649 352.743ZM134.439 357.758C134.643 354.684 136.578 351.757 140.829 351.367C144.619 351.019 146.341 352.955 146.25 355.647L143.095 355.937C143.076 354.586 142.391 353.754 140.726 353.907C138.973 354.068 137.866 354.999 137.703 357.458C137.539 359.938 138.493 360.658 140.245 360.497C141.976 360.338 142.81 359.257 143.029 357.928L146.183 357.638C145.947 360.213 143.976 362.685 140.121 363.039C135.849 363.432 134.235 360.831 134.439 357.758ZM152.602 361.543C149.491 361.829 148.66 360.574 148.833 357.962L149.136 353.396L147.142 353.579L147.245 352.021L149.563 350.891L151.071 348.178L152.714 348.027L152.541 350.64L155.695 350.35L155.533 352.808L152.378 353.098L151.985 359.025L154.833 358.764L154.662 361.354L152.602 361.543ZM30.4823 395.574L29.6285 392.686L23.1 393.285L21.8507 396.368L18.4988 396.676L24.5923 381.606L29.6749 381.139L33.8342 395.266L30.4823 395.574ZM24.1684 390.635L28.9005 390.2L26.9809 383.678L24.1684 390.635ZM42.5958 383.378L43.3187 383.311L43.1093 386.472L42.0359 386.571C39.867 386.77 39.0436 388.024 38.8793 390.505L38.5928 394.829L35.3505 395.127L36.0776 384.151L39.2323 383.861L39.0767 386.21C39.7057 384.603 40.7555 383.547 42.5958 383.378ZM43.7689 388.899C43.9725 385.826 45.9083 382.899 50.1584 382.508C53.9484 382.16 55.671 384.096 55.5797 386.788L52.425 387.078C52.4057 385.727 51.7204 384.896 50.0554 385.049C48.3028 385.21 47.196 386.14 47.0331 388.599C46.8688 391.08 47.8227 391.799 49.5754 391.638C51.3061 391.479 52.1397 390.399 52.3584 389.07L55.5131 388.78C55.2773 391.354 53.3062 393.826 49.4505 394.181C45.1785 394.573 43.5653 391.972 43.7689 388.899ZM64.9161 381.152C67.7861 380.888 68.8775 382.49 68.6871 385.366L68.2406 392.105L64.9983 392.403L65.4113 386.168C65.5276 384.412 64.8293 383.778 63.4929 383.901C61.7622 384.06 60.7255 385.246 60.5525 387.859L60.2224 392.842L56.9801 393.14L57.998 377.773L61.2403 377.475L60.807 384.017C61.6069 382.46 62.9225 381.335 64.9161 381.152ZM71.2351 379.481L71.3791 377.307L74.9062 376.983L74.7623 379.156L71.2351 379.481ZM70.5654 391.891L71.2925 380.915L74.5348 380.617L73.8077 391.593L70.5654 391.891ZM81.2084 390.913C78.0975 391.199 77.2661 389.945 77.4392 387.332L77.7416 382.766L75.748 382.95L75.8513 381.391L78.1689 380.262L79.6768 377.549L81.3199 377.398L81.1469 380.01L84.3016 379.72L84.1387 382.179L80.984 382.468L80.5914 388.395L83.4394 388.134L83.2678 390.724L81.2084 390.913ZM90.5662 388.177C91.9902 388.046 92.7758 387.363 93.1363 386.523L96.2472 386.237C95.8242 388.021 94.2956 390.06 90.3522 390.422C86.0802 390.815 84.6422 388.198 84.8473 385.103C85.0581 381.92 87.0729 379.116 91.1258 378.744C95.2664 378.363 96.621 380.923 96.416 384.018C96.3942 384.347 96.3738 384.654 96.314 384.9L87.9672 385.667C88.0262 387.734 89.0108 388.32 90.5662 388.177ZM91.0242 380.935C89.4688 381.078 88.5065 381.799 88.12 383.689L93.3997 383.204C93.4007 381.546 92.6454 380.786 91.0242 380.935ZM97.7252 383.941C97.9287 380.868 99.8646 377.941 104.115 377.55C107.905 377.202 109.627 379.138 109.536 381.83L106.381 382.12C106.362 380.769 105.677 379.938 104.012 380.091C102.259 380.252 101.152 381.183 100.989 383.641C100.825 386.122 101.779 386.841 103.532 386.68C105.262 386.521 106.096 385.441 106.315 384.112L109.469 383.822C109.234 386.396 107.263 388.868 103.407 389.223C99.1348 389.615 97.5216 387.014 97.7252 383.941ZM115.889 387.727C112.778 388.013 111.946 386.758 112.119 384.146L112.422 379.58L110.428 379.763L110.531 378.204L112.849 377.075L114.357 374.362L116 374.211L115.827 376.823L118.982 376.533L118.819 378.992L115.664 379.282L115.271 385.209L118.119 384.947L117.948 387.537L115.889 387.727ZM128.685 375.642L131.927 375.344L131.2 386.32L127.958 386.618L128.098 384.51C127.321 386.043 126.029 387.144 124.057 387.325C121.187 387.589 120.031 385.971 120.222 383.096L120.667 376.378L123.909 376.081L123.496 382.315C123.381 384.049 124.102 384.681 125.482 384.554C127.103 384.405 128.191 383.105 128.355 380.625L128.685 375.642ZM140.881 374.347L141.604 374.28L141.395 377.441L140.321 377.54C138.152 377.739 137.329 378.993 137.164 381.473L136.878 385.798L133.636 386.096L134.363 375.12L137.517 374.83L137.362 377.179C137.991 375.572 139.041 374.516 140.881 374.347ZM147.774 382.92C149.198 382.79 149.984 382.106 150.345 381.266L153.455 380.98C153.032 382.765 151.504 384.803 147.56 385.166C143.288 385.558 141.85 382.941 142.055 379.846C142.266 376.663 144.281 373.86 148.334 373.487C152.475 373.107 153.829 375.666 153.624 378.761C153.602 379.09 153.582 379.398 153.522 379.643L145.175 380.41C145.234 382.477 146.219 383.063 147.774 382.92ZM148.232 375.678C146.677 375.821 145.715 376.542 145.328 378.432L150.608 377.947C150.609 376.289 149.854 375.529 148.232 375.678Z" fill="#001996"></path><path d="M584.341 97.6584L584.15 100.532L578.916 101.013L578.052 114.064L574.419 114.398L575.284 101.347L570.05 101.828L570.24 98.954L584.341 97.6584ZM588.455 113.489C583.699 113.926 582.037 111.056 582.259 107.704C582.478 104.399 584.543 101.186 589.299 100.749C594.079 100.31 595.716 103.206 595.499 106.487C595.278 109.816 593.235 113.05 588.455 113.489ZM585.818 107.4C585.642 110.059 586.488 110.909 588.639 110.711C590.814 110.512 591.784 109.494 591.96 106.836C592.136 104.178 591.29 103.327 589.115 103.527C586.964 103.725 585.994 104.742 585.818 107.4ZM606.003 111.496L602.849 107.121L600.84 109.114L600.65 111.988L597.113 112.313L598.223 95.5497L601.76 95.2247L601.073 105.594C601.518 104.982 601.984 104.392 602.421 103.899L606.486 99.5508L610.716 99.1621L610.71 99.2579L605.24 104.735L610.21 111.11L606.003 111.496ZM616.855 108.452C618.408 108.309 619.265 107.564 619.658 106.647L623.052 106.335C622.591 108.282 620.923 110.506 616.621 110.901C611.961 111.329 610.392 108.475 610.616 105.098C610.846 101.626 613.044 98.5674 617.465 98.1611C621.982 97.7461 623.46 100.538 623.236 103.915C623.212 104.274 623.19 104.609 623.125 104.877L614.019 105.713C614.084 107.969 615.158 108.608 616.855 108.452ZM617.354 100.551C615.657 100.707 614.608 101.494 614.186 103.556L619.946 103.027C619.947 101.218 619.123 100.389 617.354 100.551ZM633.451 96.6923C636.581 96.4046 637.772 98.1517 637.564 101.289L637.077 108.641L633.54 108.966L633.991 102.165C634.118 100.249 633.356 99.5572 631.898 99.6911C630.01 99.8646 628.879 101.159 628.69 104.008L628.33 109.444L624.793 109.769L625.586 97.7957L629.123 97.4707L628.968 99.8176C629.841 98.1189 631.276 96.8921 633.451 96.6923ZM645.52 108.246C640.764 108.683 639.101 105.813 639.323 102.46C639.542 99.1554 641.608 95.9428 646.364 95.5057C651.143 95.0665 652.781 97.9627 652.563 101.244C652.343 104.572 650.299 107.807 645.52 108.246ZM642.882 102.157C642.706 104.815 643.553 105.666 645.704 105.468C647.878 105.268 648.848 104.251 649.025 101.592C649.201 98.9343 648.354 98.0838 646.179 98.2837C644.029 98.4813 643.059 99.4987 642.882 102.157ZM670.841 93.2566C673.876 92.9777 675.115 94.7204 674.907 97.8575L674.42 105.209L670.883 105.534L671.336 98.6855C671.455 96.8894 670.794 96.1171 669.36 96.2489C667.568 96.4136 666.58 97.6944 666.391 100.544L666.031 105.98L662.566 106.299L663.019 99.4497C663.138 97.6536 662.477 96.8813 661.043 97.0131C659.251 97.1778 658.263 98.4586 658.074 101.308L657.714 106.744L654.177 107.069L654.97 95.0957L658.507 94.7707L658.363 96.9499C659.182 95.3514 660.54 94.2031 662.62 94.012C664.747 93.8166 665.971 94.7038 666.379 96.4276C667.205 94.7093 668.594 93.463 670.841 93.2566ZM677.687 91.4375L677.844 89.0667L681.692 88.7131L681.535 91.0839L677.687 91.4375ZM676.956 104.976L677.749 93.0026L681.286 92.6776L680.493 104.651L676.956 104.976ZM682.919 98.478C683.141 95.1254 685.253 91.9323 689.889 91.5063C694.024 91.1264 695.903 93.2387 695.804 96.1754L692.362 96.4916C692.341 95.0179 691.593 94.1107 689.777 94.2776C687.865 94.4533 686.658 95.4687 686.48 98.1508C686.301 100.857 687.341 101.642 689.253 101.466C691.141 101.293 692.051 100.114 692.289 98.6643L695.731 98.3481C695.474 101.157 693.323 103.853 689.117 104.24C684.457 104.668 682.697 101.831 682.919 98.478ZM697.035 99.2517L700.261 98.9552C700.281 100.096 701.081 100.927 702.873 100.762C704.475 100.615 705.061 100.014 705.116 99.1756C705.164 98.4571 704.864 97.961 703.537 97.9164L700.883 97.8271C698.655 97.7461 697.516 96.6608 697.649 94.6492C697.825 91.991 700.154 90.5393 703.332 90.2472C706.559 89.9508 708.65 91.0201 708.69 93.6346L705.416 93.9355C705.362 92.9646 704.667 92.3382 703.185 92.4743C701.655 92.6149 700.996 93.2467 700.945 94.0131C700.906 94.6117 701.184 95.0621 702.37 95.096L704.86 95.1528C707.681 95.2507 708.675 96.3732 708.534 98.5045C708.378 100.851 706.789 102.616 702.678 102.994C698.424 103.385 696.956 101.52 697.035 99.2517Z" fill="#001996"></path><path d="M611.5 181L417.5 198L413.25 280.25L518.5 271.5L512.5 382.5L600 376L611.5 181Z" fill="url(#paint48_radial_1923_14882)"></path><path d="M454.328 227.779L457.865 227.454C457.848 229.145 458.817 230.294 461.327 230.063C463.741 229.841 464.585 228.931 464.669 227.662C464.748 226.464 464.073 225.907 462.675 225.845L459.192 225.713C456.394 225.637 454.92 224.225 455.094 221.591C455.285 218.718 457.572 216.46 462.041 216.05C466.797 215.613 468.605 217.732 468.609 220.54L465.048 220.867C464.955 219.4 463.967 218.539 461.864 218.732C459.928 218.91 458.848 219.794 458.765 221.04C458.703 221.974 459.207 222.618 460.512 222.641L463.807 222.742C467.01 222.805 468.533 224.188 468.349 226.966C468.142 230.103 466.071 232.317 461.1 232.774C455.866 233.255 454.256 230.665 454.328 227.779ZM475.545 231.042C472.151 231.354 471.244 229.985 471.433 227.135L471.763 222.154L469.588 222.354L469.7 220.654L472.229 219.422L473.874 216.462L475.666 216.297L475.477 219.147L478.919 218.831L478.741 221.513L475.3 221.829L474.871 228.295L477.978 228.01L477.791 230.835L475.545 231.042ZM483.487 230.621C481.073 230.843 479.608 229.645 479.751 227.49C479.878 225.574 480.797 224.252 483.915 223.442L486.767 222.703C487.879 222.411 488.282 222.064 488.328 221.37C488.383 220.532 487.942 220.025 486.341 220.172C484.715 220.321 483.908 221.038 483.779 222.264L480.314 222.582C480.579 220.011 482.798 218.07 486.431 217.736C490.063 217.402 491.729 218.796 491.561 221.335L491.218 226.507C491.143 227.633 491.152 228.584 491.203 229.603L488.12 229.886C488.053 229.107 488.033 228.323 488.098 227.341C487.439 229.044 485.924 230.397 483.487 230.621ZM484.842 228.093C486.706 227.922 487.991 226.447 488.139 224.22L488.174 223.693C487.524 224.181 486.915 224.404 486.163 224.639L485.144 224.971C483.856 225.399 483.324 225.9 483.264 226.81C483.201 227.768 483.886 228.181 484.842 228.093ZM501.409 216.574L502.197 216.501L501.969 219.95L500.798 220.057C498.432 220.275 497.534 221.643 497.354 224.349L497.042 229.066L493.505 229.391L494.298 217.418L497.739 217.101L497.57 219.664C498.256 217.911 499.401 216.758 501.409 216.574ZM508.546 228.009C505.152 228.321 504.245 226.953 504.434 224.103L504.764 219.122L502.589 219.322L502.702 217.621L505.23 216.389L506.875 213.43L508.668 213.265L508.479 216.115L511.921 215.798L511.743 218.481L508.301 218.797L507.873 225.263L510.98 224.977L510.793 227.803L508.546 228.009ZM522.506 214.826L526.043 214.501L525.25 226.474L521.713 226.799L521.865 224.501C521.018 226.173 519.608 227.374 517.457 227.571C514.326 227.859 513.066 226.095 513.273 222.957L513.759 215.629L517.296 215.304L516.845 222.106C516.72 223.997 517.506 224.687 519.011 224.549C520.78 224.386 521.967 222.968 522.146 220.262L522.506 214.826ZM536.585 213.151C540.505 212.791 541.913 215.566 541.684 219.014C541.459 222.415 539.661 225.531 535.741 225.891C533.686 226.08 532.376 225.415 531.628 224.151L531.195 230.689L527.658 231.014L528.769 214.25L532.306 213.925L532.192 215.649C533.115 214.256 534.53 213.34 536.585 213.151ZM534.85 223.212C537.096 223.006 537.96 221.808 538.123 219.341C538.288 216.851 537.572 215.822 535.326 216.028C533.079 216.234 532.071 217.469 531.909 219.912C531.747 222.355 532.603 223.419 534.85 223.212ZM462.274 241.226C465.883 240.895 467.163 243.086 466.979 245.864C466.784 248.809 465.196 251.264 461.587 251.596L456.807 252.035L456.439 257.591L452.782 257.927L453.837 242.002L462.274 241.226ZM460.627 248.875C462.396 248.713 463.109 247.624 463.201 246.235C463.29 244.894 462.732 243.993 460.963 244.156L457.307 244.492L456.994 249.209L460.627 248.875ZM468.373 256.494L469.484 239.731L473.021 239.406L471.91 256.169L468.373 256.494ZM478.147 255.906C475.733 256.127 474.268 254.929 474.411 252.774C474.538 250.858 475.457 249.536 478.575 248.726L481.427 247.988C482.539 247.695 482.942 247.349 482.988 246.654C483.043 245.816 482.602 245.309 481 245.456C479.375 245.606 478.568 246.322 478.439 247.548L474.974 247.867C475.239 245.295 477.458 243.354 481.091 243.02C484.723 242.686 486.389 244.08 486.221 246.619L485.878 251.792C485.803 252.917 485.812 253.868 485.863 254.887L482.78 255.17C482.713 254.391 482.693 253.607 482.758 252.626C482.099 254.328 480.584 255.682 478.147 255.906ZM479.502 253.377C481.366 253.206 482.651 251.731 482.799 249.504L482.834 248.977C482.184 249.465 481.575 249.688 480.823 249.923L479.804 250.255C478.516 250.683 477.984 251.184 477.924 252.094C477.861 253.052 478.546 253.465 479.502 253.377ZM496.822 241.598C499.953 241.311 501.144 243.058 500.936 246.195L500.449 253.547L496.912 253.872L497.362 247.071C497.489 245.155 496.727 244.463 495.27 244.597C493.382 244.771 492.251 246.065 492.062 248.915L491.702 254.351L488.165 254.676L488.958 242.702L492.495 242.377L492.339 244.724C493.212 243.025 494.647 241.798 496.822 241.598ZM511.643 240.237C514.773 239.949 515.964 241.696 515.756 244.833L515.269 252.185L511.732 252.51L512.183 245.709C512.31 243.793 511.548 243.102 510.09 243.235C508.202 243.409 507.071 244.703 506.882 247.553L506.522 252.989L502.985 253.314L503.778 241.34L507.315 241.015L507.16 243.362C508.033 241.663 509.468 240.436 511.643 240.237ZM518.536 238.413L518.693 236.042L522.541 235.689L522.384 238.06L518.536 238.413ZM517.805 251.952L518.599 239.978L522.136 239.653L521.343 251.627L517.805 251.952ZM532.625 238.309C535.755 238.021 536.946 239.768 536.738 242.905L536.251 250.257L532.714 250.582L533.165 243.781C533.292 241.865 532.53 241.174 531.072 241.308C529.184 241.481 528.053 242.775 527.864 245.625L527.504 251.061L523.967 251.386L524.76 239.412L528.297 239.087L528.142 241.434C529.014 239.735 530.45 238.508 532.625 238.309ZM548.831 237.2L552.368 236.875L551.606 248.37C551.364 252.034 549.4 254.071 544.548 254.517C540.461 254.892 538.552 253.235 538.562 250.568L542.028 250.25C542.09 251.458 542.873 252.195 544.856 252.013C546.936 251.822 547.917 250.994 548.042 249.102L548.187 246.923C547.293 248.219 545.91 249.013 543.903 249.197C540.007 249.555 538.512 247.027 538.729 243.746C538.951 240.393 540.8 237.581 544.696 237.223C546.704 237.039 547.994 237.634 548.726 238.781L548.831 237.2ZM545.199 246.483C547.398 246.281 548.304 245.151 548.453 242.9C548.604 240.625 547.836 239.672 545.637 239.874C543.39 240.08 542.422 241.074 542.263 243.469C542.105 245.863 542.952 246.69 545.199 246.483Z" fill="#001996"></path><defs><linearGradient id="paint0_linear_1923_14882" x1="512.613" y1="36.8714" x2="497.124" y2="179.797" gradientUnits="userSpaceOnUse"><stop stop-color="#D5D5D5"></stop><stop offset="1" stop-color="#AFAFAF"></stop></linearGradient><linearGradient id="paint1_linear_1923_14882" x1="438.659" y1="171.775" x2="438.58" y2="200.304" gradientUnits="userSpaceOnUse"><stop stop-color="#D5D5D5"></stop><stop offset="1" stop-color="#AFAFAF"></stop></linearGradient><radialGradient id="paint2_radial_1923_14882" cx="0" cy="0" r="1" gradientUnits="userSpaceOnUse" gradientTransform="translate(331.015 14.6898) rotate(-180) scale(202.451 202.465)"><stop stop-color="#FAFAFA"></stop><stop offset="1" stop-color="#FAFAFA"></stop></radialGradient><linearGradient id="paint3_linear_1923_14882" x1="419.239" y1="220.64" x2="413.209" y2="301.136" gradientUnits="userSpaceOnUse"><stop stop-color="#D5D5D5"></stop><stop offset="1" stop-color="#AFAFAF"></stop></linearGradient><linearGradient id="paint4_linear_1923_14882" x1="235.129" y1="169.76" x2="241.479" y2="214.94" gradientUnits="userSpaceOnUse"><stop stop-color="#D5D5D5"></stop><stop offset="1" stop-color="#AFAFAF"></stop></linearGradient><linearGradient id="paint5_linear_1923_14882" x1="287.2" y1="120.64" x2="281.2" y2="201.14" gradientUnits="userSpaceOnUse"><stop stop-color="#D5D5D5"></stop><stop offset="1" stop-color="#AFAFAF"></stop></linearGradient><linearGradient id="paint6_linear_1923_14882" x1="180.271" y1="242.4" x2="207.741" y2="240.38" gradientUnits="userSpaceOnUse"><stop stop-color="#D5D5D5"></stop><stop offset="1" stop-color="#AFAFAF"></stop></linearGradient><linearGradient id="paint7_linear_1923_14882" x1="144.46" y1="254.16" x2="147.96" y2="299.17" gradientUnits="userSpaceOnUse"><stop stop-color="#D5D5D5"></stop><stop offset="1" stop-color="#AFAFAF"></stop></linearGradient><linearGradient id="paint8_linear_1923_14882" x1="144.419" y1="494.28" x2="144.326" y2="516.947" gradientUnits="userSpaceOnUse"><stop stop-color="#D5D5D5"></stop><stop offset="1" stop-color="#AFAFAF"></stop></linearGradient><linearGradient id="paint9_linear_1923_14882" x1="175.954" y1="556.443" x2="172.33" y2="620.724" gradientUnits="userSpaceOnUse"><stop stop-color="#D5D5D5"></stop><stop offset="1" stop-color="#AFAFAF"></stop></linearGradient><linearGradient id="paint10_linear_1923_14882" x1="478.695" y1="276.881" x2="478.618" y2="297.985" gradientUnits="userSpaceOnUse"><stop stop-color="#D5D5D5"></stop><stop offset="1" stop-color="#AFAFAF"></stop></linearGradient><linearGradient id="paint11_linear_1923_14882" x1="575.727" y1="381.581" x2="575.641" y2="403.466" gradientUnits="userSpaceOnUse"><stop stop-color="#D5D5D5"></stop><stop offset="1" stop-color="#AFAFAF"></stop></linearGradient><linearGradient id="paint12_linear_1923_14882" x1="325.282" y1="581.97" x2="325.189" y2="615.19" gradientUnits="userSpaceOnUse"><stop stop-color="#D5D5D5"></stop><stop offset="1" stop-color="#AFAFAF"></stop></linearGradient><linearGradient id="paint13_linear_1923_14882" x1="605.974" y1="150.379" x2="605.863" y2="173.437" gradientUnits="userSpaceOnUse"><stop stop-color="#D5D5D5"></stop><stop offset="1" stop-color="#AFAFAF"></stop></linearGradient><linearGradient id="paint14_linear_1923_14882" x1="736.73" y1="92.1703" x2="721.596" y2="236.359" gradientUnits="userSpaceOnUse"><stop stop-color="#D5D5D5"></stop><stop offset="1" stop-color="#AFAFAF"></stop></linearGradient><linearGradient id="paint15_linear_1923_14882" x1="184.73" y1="361.17" x2="169.596" y2="505.359" gradientUnits="userSpaceOnUse"><stop stop-color="#D5D5D5"></stop><stop offset="1" stop-color="#AFAFAF"></stop></linearGradient><linearGradient id="paint16_linear_1923_14882" x1="604.613" y1="419.261" x2="586.635" y2="573.099" gradientUnits="userSpaceOnUse"><stop stop-color="#D5D5D5"></stop><stop offset="1" stop-color="#AFAFAF"></stop></linearGradient><radialGradient id="paint17_radial_1923_14882" cx="0" cy="0" r="1" gradientUnits="userSpaceOnUse" gradientTransform="translate(78.7861 554.076) rotate(180) scale(196.675 194.006)"><stop stop-color="#FAFAFA"></stop><stop offset="1" stop-color="#FAFAFA"></stop></radialGradient><linearGradient id="paint18_linear_1923_14882" x1="257.145" y1="635.228" x2="251.258" y2="716.09" gradientUnits="userSpaceOnUse"><stop stop-color="#D5D5D5"></stop><stop offset="1" stop-color="#AFAFAF"></stop></linearGradient><linearGradient id="paint19_linear_1923_14882" x1="188.202" y1="703.474" x2="188.119" y2="732.785" gradientUnits="userSpaceOnUse"><stop stop-color="#D5D5D5"></stop><stop offset="1" stop-color="#AFAFAF"></stop></linearGradient><radialGradient id="paint20_radial_1923_14882" cx="0" cy="0" r="1" gradientUnits="userSpaceOnUse" gradientTransform="translate(104.01 114.68) rotate(-180) scale(202.33)"><stop stop-color="#FAFAFA"></stop><stop offset="1" stop-color="#FAFAFA"></stop></radialGradient><linearGradient id="paint21_linear_1923_14882" x1="342.129" y1="269.76" x2="348.479" y2="314.94" gradientUnits="userSpaceOnUse"><stop stop-color="#D5D5D5"></stop><stop offset="1" stop-color="#AFAFAF"></stop></linearGradient><linearGradient id="paint22_linear_1923_14882" x1="287.271" y1="342.4" x2="314.741" y2="340.38" gradientUnits="userSpaceOnUse"><stop stop-color="#D5D5D5"></stop><stop offset="1" stop-color="#AFAFAF"></stop></linearGradient><linearGradient id="paint23_linear_1923_14882" x1="250.46" y1="381.16" x2="253.96" y2="426.17" gradientUnits="userSpaceOnUse"><stop stop-color="#D5D5D5"></stop><stop offset="1" stop-color="#AFAFAF"></stop></linearGradient><radialGradient id="paint24_radial_1923_14882" cx="0" cy="0" r="1" gradientUnits="userSpaceOnUse" gradientTransform="translate(211.143 216.899) rotate(-180) scale(230.938 232.92)"><stop stop-color="#FAFAFA"></stop><stop offset="1" stop-color="#FAFAFA"></stop></radialGradient><linearGradient id="paint25_linear_1923_14882" x1="295.421" y1="427.432" x2="291.169" y2="503.405" gradientUnits="userSpaceOnUse"><stop stop-color="#D5D5D5"></stop><stop offset="1" stop-color="#AFAFAF"></stop></linearGradient><linearGradient id="paint26_linear_1923_14882" x1="53.9744" y1="419.379" x2="53.8629" y2="442.437" gradientUnits="userSpaceOnUse"><stop stop-color="#D5D5D5"></stop><stop offset="1" stop-color="#AFAFAF"></stop></linearGradient><radialGradient id="paint27_radial_1923_14882" cx="0" cy="0" r="1" gradientUnits="userSpaceOnUse" gradientTransform="translate(8.05789 338.076) rotate(-180) scale(197.225 194.006)"><stop stop-color="#FAFAFA"></stop><stop offset="1" stop-color="#FAFAFA"></stop></radialGradient><linearGradient id="paint28_linear_1923_14882" x1="430.131" y1="667.76" x2="436.481" y2="712.94" gradientUnits="userSpaceOnUse"><stop stop-color="#D5D5D5"></stop><stop offset="1" stop-color="#AFAFAF"></stop></linearGradient><linearGradient id="paint29_linear_1923_14882" x1="375.271" y1="740.4" x2="402.741" y2="738.38" gradientUnits="userSpaceOnUse"><stop stop-color="#D5D5D5"></stop><stop offset="1" stop-color="#AFAFAF"></stop></linearGradient><linearGradient id="paint30_linear_1923_14882" x1="339.46" y1="752.16" x2="342.96" y2="797.17" gradientUnits="userSpaceOnUse"><stop stop-color="#D5D5D5"></stop><stop offset="1" stop-color="#AFAFAF"></stop></linearGradient><linearGradient id="paint31_linear_1923_14882" x1="762.129" y1="341.76" x2="768.479" y2="386.94" gradientUnits="userSpaceOnUse"><stop stop-color="#D5D5D5"></stop><stop offset="1" stop-color="#AFAFAF"></stop></linearGradient><linearGradient id="paint32_linear_1923_14882" x1="814.2" y1="292.64" x2="808.2" y2="373.14" gradientUnits="userSpaceOnUse"><stop stop-color="#D5D5D5"></stop><stop offset="1" stop-color="#AFAFAF"></stop></linearGradient><linearGradient id="paint33_linear_1923_14882" x1="707.271" y1="414.4" x2="734.741" y2="412.38" gradientUnits="userSpaceOnUse"><stop stop-color="#D5D5D5"></stop><stop offset="1" stop-color="#AFAFAF"></stop></linearGradient><linearGradient id="paint34_linear_1923_14882" x1="671.46" y1="426.16" x2="674.96" y2="471.17" gradientUnits="userSpaceOnUse"><stop stop-color="#D5D5D5"></stop><stop offset="1" stop-color="#AFAFAF"></stop></linearGradient><radialGradient id="paint35_radial_1923_14882" cx="0" cy="0" r="1" gradientUnits="userSpaceOnUse" gradientTransform="translate(199.995 419.549) rotate(-180) scale(227.207 214.309)"><stop stop-color="#FAFAFA"></stop><stop offset="1" stop-color="#FAFAFA"></stop></radialGradient><linearGradient id="paint36_linear_1923_14882" x1="404.954" y1="512.626" x2="398.983" y2="595.048" gradientUnits="userSpaceOnUse"><stop stop-color="#D5D5D5"></stop><stop offset="1" stop-color="#AFAFAF"></stop></linearGradient><linearGradient id="paint37_linear_1923_14882" x1="523.763" y1="564.572" x2="523.673" y2="596.228" gradientUnits="userSpaceOnUse"><stop stop-color="#D5D5D5"></stop><stop offset="1" stop-color="#AFAFAF"></stop></linearGradient><radialGradient id="paint38_radial_1923_14882" cx="0" cy="0" r="1" gradientUnits="userSpaceOnUse" gradientTransform="translate(405.821 396.106) rotate(-180) scale(222.806 218.539)"><stop stop-color="#FAFAFA"></stop><stop offset="1" stop-color="#FAFAFA"></stop></radialGradient><radialGradient id="paint39_radial_1923_14882" cx="0" cy="0" r="1" gradientUnits="userSpaceOnUse" gradientTransform="translate(299.01 612.68) rotate(180) scale(202.33)"><stop stop-color="#FAFAFA"></stop><stop offset="1" stop-color="#FAFAFA"></stop></radialGradient><radialGradient id="paint40_radial_1923_14882" cx="0" cy="0" r="1" gradientUnits="userSpaceOnUse" gradientTransform="translate(533.015 514.69) rotate(180) scale(202.451 202.465)"><stop stop-color="#FAFAFA"></stop><stop offset="1" stop-color="#FAFAFA"></stop></radialGradient><linearGradient id="paint41_linear_1923_14882" x1="640.659" y1="671.775" x2="640.58" y2="700.304" gradientUnits="userSpaceOnUse"><stop stop-color="#D5D5D5"></stop><stop offset="1" stop-color="#AFAFAF"></stop></linearGradient><linearGradient id="paint42_linear_1923_14882" x1="714.613" y1="536.871" x2="699.124" y2="679.797" gradientUnits="userSpaceOnUse"><stop stop-color="#D5D5D5"></stop><stop offset="1" stop-color="#AFAFAF"></stop></linearGradient><linearGradient id="paint43_linear_1923_14882" x1="482.2" y1="618.64" x2="476.2" y2="699.14" gradientUnits="userSpaceOnUse"><stop stop-color="#D5D5D5"></stop><stop offset="1" stop-color="#AFAFAF"></stop></linearGradient><linearGradient id="paint44_linear_1923_14882" x1="616.347" y1="224.249" x2="596.685" y2="391.556" gradientUnits="userSpaceOnUse"><stop stop-color="#D5D5D5"></stop><stop offset="1" stop-color="#AFAFAF"></stop></linearGradient><radialGradient id="paint45_radial_1923_14882" cx="0" cy="0" r="1" gradientUnits="userSpaceOnUse" gradientTransform="translate(560.058 69.076) rotate(-180) scale(197.225 194.006)"><stop stop-color="#FAFAFA"></stop><stop offset="1" stop-color="#FAFAFA"></stop></radialGradient><linearGradient id="paint46_linear_1923_14882" x1="696.419" y1="225.28" x2="696.326" y2="247.947" gradientUnits="userSpaceOnUse"><stop stop-color="#D5D5D5"></stop><stop offset="1" stop-color="#AFAFAF"></stop></linearGradient><radialGradient id="paint47_radial_1923_14882" cx="0" cy="0" r="1" gradientUnits="userSpaceOnUse" gradientTransform="translate(631.01 286.68) rotate(-180) scale(202.33)"><stop stop-color="#FAFAFA"></stop><stop offset="1" stop-color="#FAFAFA"></stop></radialGradient><radialGradient id="paint48_radial_1923_14882" cx="0" cy="0" r="1" gradientUnits="userSpaceOnUse" gradientTransform="translate(421.886 197.49) rotate(-180) scale(218.13 227.28)"><stop stop-color="#FAFAFA"></stop><stop offset="1" stop-color="#FAFAFA"></stop></radialGradient></defs></svg>